%TF.GenerationSoftware,KiCad,Pcbnew,5.0.0*%
%TF.CreationDate,2018-08-13T13:33:07+12:00*%
%TF.ProjectId,keyboard,6B6579626F6172642E6B696361645F70,v0.1*%
%TF.SameCoordinates,PX3b67850PY3da05e0*%
%TF.FileFunction,Legend,Top*%
%TF.FilePolarity,Positive*%
%FSLAX46Y46*%
G04 Gerber Fmt 4.6, Leading zero omitted, Abs format (unit mm)*
G04 Created by KiCad (PCBNEW 5.0.0) date Mon Aug 13 13:33:07 2018*
%MOMM*%
%LPD*%
G01*
G04 APERTURE LIST*
%ADD10C,0.150000*%
%ADD11C,0.100000*%
%ADD12C,0.120000*%
%ADD13C,0.381000*%
%ADD14R,0.740000X2.400000*%
%ADD15C,7.000000*%
%ADD16O,10.000000X5.000000*%
%ADD17C,1.700000*%
%ADD18O,1.700000X1.700000*%
%ADD19O,1.200000X1.900000*%
%ADD20C,1.450000*%
%ADD21C,1.000000*%
%ADD22C,1.600000*%
%ADD23O,1.600000X1.600000*%
%ADD24R,1.750000X1.200000*%
%ADD25O,1.750000X1.200000*%
%ADD26C,0.975000*%
%ADD27C,4.000000*%
%ADD28C,3.050000*%
%ADD29C,1.200000*%
%ADD30C,2.500000*%
G04 APERTURE END LIST*
D10*
X169136190Y-89232571D02*
X169469523Y-89232571D01*
X169612380Y-89756380D02*
X169136190Y-89756380D01*
X169136190Y-88756380D01*
X169612380Y-88756380D01*
X169945714Y-89756380D02*
X170469523Y-89089714D01*
X169945714Y-89089714D02*
X170469523Y-89756380D01*
X170850476Y-89089714D02*
X170850476Y-90089714D01*
X170850476Y-89137333D02*
X170945714Y-89089714D01*
X171136190Y-89089714D01*
X171231428Y-89137333D01*
X171279047Y-89184952D01*
X171326666Y-89280190D01*
X171326666Y-89565904D01*
X171279047Y-89661142D01*
X171231428Y-89708761D01*
X171136190Y-89756380D01*
X170945714Y-89756380D01*
X170850476Y-89708761D01*
X172183809Y-89756380D02*
X172183809Y-89232571D01*
X172136190Y-89137333D01*
X172040952Y-89089714D01*
X171850476Y-89089714D01*
X171755238Y-89137333D01*
X172183809Y-89708761D02*
X172088571Y-89756380D01*
X171850476Y-89756380D01*
X171755238Y-89708761D01*
X171707619Y-89613523D01*
X171707619Y-89518285D01*
X171755238Y-89423047D01*
X171850476Y-89375428D01*
X172088571Y-89375428D01*
X172183809Y-89327809D01*
X172660000Y-89089714D02*
X172660000Y-89756380D01*
X172660000Y-89184952D02*
X172707619Y-89137333D01*
X172802857Y-89089714D01*
X172945714Y-89089714D01*
X173040952Y-89137333D01*
X173088571Y-89232571D01*
X173088571Y-89756380D01*
X173517142Y-89708761D02*
X173612380Y-89756380D01*
X173802857Y-89756380D01*
X173898095Y-89708761D01*
X173945714Y-89613523D01*
X173945714Y-89565904D01*
X173898095Y-89470666D01*
X173802857Y-89423047D01*
X173660000Y-89423047D01*
X173564761Y-89375428D01*
X173517142Y-89280190D01*
X173517142Y-89232571D01*
X173564761Y-89137333D01*
X173660000Y-89089714D01*
X173802857Y-89089714D01*
X173898095Y-89137333D01*
X174374285Y-89756380D02*
X174374285Y-89089714D01*
X174374285Y-88756380D02*
X174326666Y-88804000D01*
X174374285Y-88851619D01*
X174421904Y-88804000D01*
X174374285Y-88756380D01*
X174374285Y-88851619D01*
X174993333Y-89756380D02*
X174898095Y-89708761D01*
X174850476Y-89661142D01*
X174802857Y-89565904D01*
X174802857Y-89280190D01*
X174850476Y-89184952D01*
X174898095Y-89137333D01*
X174993333Y-89089714D01*
X175136190Y-89089714D01*
X175231428Y-89137333D01*
X175279047Y-89184952D01*
X175326666Y-89280190D01*
X175326666Y-89565904D01*
X175279047Y-89661142D01*
X175231428Y-89708761D01*
X175136190Y-89756380D01*
X174993333Y-89756380D01*
X175755238Y-89089714D02*
X175755238Y-89756380D01*
X175755238Y-89184952D02*
X175802857Y-89137333D01*
X175898095Y-89089714D01*
X176040952Y-89089714D01*
X176136190Y-89137333D01*
X176183809Y-89232571D01*
X176183809Y-89756380D01*
D11*
X169104000Y-90066000D02*
X176216000Y-90066000D01*
X151324000Y-90066000D02*
X155896000Y-90066000D01*
D10*
X152252857Y-89708761D02*
X152395714Y-89756380D01*
X152633809Y-89756380D01*
X152729047Y-89708761D01*
X152776666Y-89661142D01*
X152824285Y-89565904D01*
X152824285Y-89470666D01*
X152776666Y-89375428D01*
X152729047Y-89327809D01*
X152633809Y-89280190D01*
X152443333Y-89232571D01*
X152348095Y-89184952D01*
X152300476Y-89137333D01*
X152252857Y-89042095D01*
X152252857Y-88946857D01*
X152300476Y-88851619D01*
X152348095Y-88804000D01*
X152443333Y-88756380D01*
X152681428Y-88756380D01*
X152824285Y-88804000D01*
X153157619Y-88756380D02*
X153395714Y-89756380D01*
X153586190Y-89042095D01*
X153776666Y-89756380D01*
X154014761Y-88756380D01*
X154395714Y-89756380D02*
X154395714Y-88756380D01*
X154633809Y-88756380D01*
X154776666Y-88804000D01*
X154871904Y-88899238D01*
X154919523Y-88994476D01*
X154967142Y-89184952D01*
X154967142Y-89327809D01*
X154919523Y-89518285D01*
X154871904Y-89613523D01*
X154776666Y-89708761D01*
X154633809Y-89756380D01*
X154395714Y-89756380D01*
X3885047Y-29812380D02*
X3885047Y-28812380D01*
X4123142Y-28812380D01*
X4266000Y-28860000D01*
X4361238Y-28955238D01*
X4408857Y-29050476D01*
X4456476Y-29240952D01*
X4456476Y-29383809D01*
X4408857Y-29574285D01*
X4361238Y-29669523D01*
X4266000Y-29764761D01*
X4123142Y-29812380D01*
X3885047Y-29812380D01*
X4885047Y-29431428D02*
X5646952Y-29431428D01*
X3885047Y-27272380D02*
X3885047Y-26272380D01*
X4123142Y-26272380D01*
X4266000Y-26320000D01*
X4361238Y-26415238D01*
X4408857Y-26510476D01*
X4456476Y-26700952D01*
X4456476Y-26843809D01*
X4408857Y-27034285D01*
X4361238Y-27129523D01*
X4266000Y-27224761D01*
X4123142Y-27272380D01*
X3885047Y-27272380D01*
X4885047Y-26891428D02*
X5646952Y-26891428D01*
X5266000Y-27272380D02*
X5266000Y-26510476D01*
X174438095Y-93169619D02*
X174485714Y-93122000D01*
X174580952Y-93074380D01*
X174819047Y-93074380D01*
X174914285Y-93122000D01*
X174961904Y-93169619D01*
X175009523Y-93264857D01*
X175009523Y-93360095D01*
X174961904Y-93502952D01*
X174390476Y-94074380D01*
X175009523Y-94074380D01*
X175866666Y-93407714D02*
X175866666Y-94074380D01*
X175628571Y-93026761D02*
X175390476Y-93741047D01*
X176009523Y-93741047D01*
X171898095Y-93169619D02*
X171945714Y-93122000D01*
X172040952Y-93074380D01*
X172279047Y-93074380D01*
X172374285Y-93122000D01*
X172421904Y-93169619D01*
X172469523Y-93264857D01*
X172469523Y-93360095D01*
X172421904Y-93502952D01*
X171850476Y-94074380D01*
X172469523Y-94074380D01*
X172802857Y-93074380D02*
X173421904Y-93074380D01*
X173088571Y-93455333D01*
X173231428Y-93455333D01*
X173326666Y-93502952D01*
X173374285Y-93550571D01*
X173421904Y-93645809D01*
X173421904Y-93883904D01*
X173374285Y-93979142D01*
X173326666Y-94026761D01*
X173231428Y-94074380D01*
X172945714Y-94074380D01*
X172850476Y-94026761D01*
X172802857Y-93979142D01*
X169358095Y-93169619D02*
X169405714Y-93122000D01*
X169500952Y-93074380D01*
X169739047Y-93074380D01*
X169834285Y-93122000D01*
X169881904Y-93169619D01*
X169929523Y-93264857D01*
X169929523Y-93360095D01*
X169881904Y-93502952D01*
X169310476Y-94074380D01*
X169929523Y-94074380D01*
X170310476Y-93169619D02*
X170358095Y-93122000D01*
X170453333Y-93074380D01*
X170691428Y-93074380D01*
X170786666Y-93122000D01*
X170834285Y-93169619D01*
X170881904Y-93264857D01*
X170881904Y-93360095D01*
X170834285Y-93502952D01*
X170262857Y-94074380D01*
X170881904Y-94074380D01*
X157332857Y-78278761D02*
X157475714Y-78326380D01*
X157713809Y-78326380D01*
X157809047Y-78278761D01*
X157856666Y-78231142D01*
X157904285Y-78135904D01*
X157904285Y-78040666D01*
X157856666Y-77945428D01*
X157809047Y-77897809D01*
X157713809Y-77850190D01*
X157523333Y-77802571D01*
X157428095Y-77754952D01*
X157380476Y-77707333D01*
X157332857Y-77612095D01*
X157332857Y-77516857D01*
X157380476Y-77421619D01*
X157428095Y-77374000D01*
X157523333Y-77326380D01*
X157761428Y-77326380D01*
X157904285Y-77374000D01*
X158237619Y-77326380D02*
X158475714Y-78326380D01*
X158666190Y-77612095D01*
X158856666Y-78326380D01*
X159094761Y-77326380D01*
X159475714Y-78326380D02*
X159475714Y-77326380D01*
X159713809Y-77326380D01*
X159856666Y-77374000D01*
X159951904Y-77469238D01*
X159999523Y-77564476D01*
X160047142Y-77754952D01*
X160047142Y-77897809D01*
X159999523Y-78088285D01*
X159951904Y-78183523D01*
X159856666Y-78278761D01*
X159713809Y-78326380D01*
X159475714Y-78326380D01*
X167008571Y-93479142D02*
X168151428Y-93479142D01*
X167237142Y-93822000D02*
X167922857Y-93822000D01*
X167580000Y-92964857D02*
X167580000Y-93479142D01*
X167694285Y-94164857D02*
X167465714Y-94164857D01*
X162055523Y-93074380D02*
X161579333Y-93074380D01*
X161531714Y-93550571D01*
X161579333Y-93502952D01*
X161674571Y-93455333D01*
X161912666Y-93455333D01*
X162007904Y-93502952D01*
X162055523Y-93550571D01*
X162103142Y-93645809D01*
X162103142Y-93883904D01*
X162055523Y-93979142D01*
X162007904Y-94026761D01*
X161912666Y-94074380D01*
X161674571Y-94074380D01*
X161579333Y-94026761D01*
X161531714Y-93979142D01*
X162388857Y-93074380D02*
X162722190Y-94074380D01*
X163055523Y-93074380D01*
X164301904Y-93550571D02*
X164444761Y-93598190D01*
X164492380Y-93645809D01*
X164540000Y-93741047D01*
X164540000Y-93883904D01*
X164492380Y-93979142D01*
X164444761Y-94026761D01*
X164349523Y-94074380D01*
X163968571Y-94074380D01*
X163968571Y-93074380D01*
X164301904Y-93074380D01*
X164397142Y-93122000D01*
X164444761Y-93169619D01*
X164492380Y-93264857D01*
X164492380Y-93360095D01*
X164444761Y-93455333D01*
X164397142Y-93502952D01*
X164301904Y-93550571D01*
X163968571Y-93550571D01*
X164920952Y-93788666D02*
X165397142Y-93788666D01*
X164825714Y-94074380D02*
X165159047Y-93074380D01*
X165492380Y-94074380D01*
X165682857Y-93074380D02*
X166254285Y-93074380D01*
X165968571Y-94074380D02*
X165968571Y-93074380D01*
X154356190Y-94074380D02*
X154356190Y-93074380D01*
X155022857Y-93074380D02*
X155213333Y-93074380D01*
X155308571Y-93122000D01*
X155403809Y-93217238D01*
X155451428Y-93407714D01*
X155451428Y-93741047D01*
X155403809Y-93931523D01*
X155308571Y-94026761D01*
X155213333Y-94074380D01*
X155022857Y-94074380D01*
X154927619Y-94026761D01*
X154832380Y-93931523D01*
X154784761Y-93741047D01*
X154784761Y-93407714D01*
X154832380Y-93217238D01*
X154927619Y-93122000D01*
X155022857Y-93074380D01*
X159388571Y-93479142D02*
X160531428Y-93479142D01*
X159617142Y-93822000D02*
X160302857Y-93822000D01*
X159960000Y-92964857D02*
X159960000Y-93479142D01*
X160074285Y-94164857D02*
X159845714Y-94164857D01*
X156181904Y-93074380D02*
X156800952Y-93074380D01*
X156467619Y-93455333D01*
X156610476Y-93455333D01*
X156705714Y-93502952D01*
X156753333Y-93550571D01*
X156800952Y-93645809D01*
X156800952Y-93883904D01*
X156753333Y-93979142D01*
X156705714Y-94026761D01*
X156610476Y-94074380D01*
X156324761Y-94074380D01*
X156229523Y-94026761D01*
X156181904Y-93979142D01*
X157086666Y-93074380D02*
X157420000Y-94074380D01*
X157753333Y-93074380D01*
X157991428Y-93074380D02*
X158610476Y-93074380D01*
X158277142Y-93455333D01*
X158420000Y-93455333D01*
X158515238Y-93502952D01*
X158562857Y-93550571D01*
X158610476Y-93645809D01*
X158610476Y-93883904D01*
X158562857Y-93979142D01*
X158515238Y-94026761D01*
X158420000Y-94074380D01*
X158134285Y-94074380D01*
X158039047Y-94026761D01*
X157991428Y-93979142D01*
X151744761Y-93979142D02*
X151697142Y-94026761D01*
X151554285Y-94074380D01*
X151459047Y-94074380D01*
X151316190Y-94026761D01*
X151220952Y-93931523D01*
X151173333Y-93836285D01*
X151125714Y-93645809D01*
X151125714Y-93502952D01*
X151173333Y-93312476D01*
X151220952Y-93217238D01*
X151316190Y-93122000D01*
X151459047Y-93074380D01*
X151554285Y-93074380D01*
X151697142Y-93122000D01*
X151744761Y-93169619D01*
X152649523Y-94074380D02*
X152173333Y-94074380D01*
X152173333Y-93074380D01*
X152982857Y-94074380D02*
X152982857Y-93074380D01*
X153554285Y-94074380D02*
X153125714Y-93502952D01*
X153554285Y-93074380D02*
X152982857Y-93645809D01*
G36*
X157420000Y-86510000D02*
X159960000Y-86510000D01*
X159960000Y-87145000D01*
X157420000Y-87145000D01*
X157420000Y-86510000D01*
G37*
X157420000Y-86510000D02*
X159960000Y-86510000D01*
X159960000Y-87145000D01*
X157420000Y-87145000D01*
X157420000Y-86510000D01*
D12*
X161860000Y-80935000D02*
X161925000Y-80935000D01*
X161860000Y-84465000D02*
X161925000Y-84465000D01*
X155455000Y-80935000D02*
X155520000Y-80935000D01*
X155455000Y-84465000D02*
X155520000Y-84465000D01*
X161925000Y-84465000D02*
X161925000Y-80935000D01*
X155455000Y-84465000D02*
X155455000Y-80935000D01*
X3440000Y-48140000D02*
X3440000Y-45455000D01*
X3440000Y-45455000D02*
X1520000Y-45455000D01*
X1520000Y-45455000D02*
X1520000Y-48140000D01*
D13*
X23912520Y-54920020D02*
X8672520Y-54920020D01*
X8672520Y-54920020D02*
X8672520Y-39680020D01*
X8672520Y-39680020D02*
X23912520Y-39680020D01*
X23912520Y-39680020D02*
X23912520Y-54920020D01*
X21530000Y-93018750D02*
X6290000Y-93018750D01*
X6290000Y-93018750D02*
X6290000Y-77778750D01*
X6290000Y-77778750D02*
X21530000Y-77778750D01*
X21530000Y-77778750D02*
X21530000Y-93018750D01*
X281086250Y-54918750D02*
X265846250Y-54918750D01*
X265846250Y-54918750D02*
X265846250Y-39678750D01*
X265846250Y-39678750D02*
X281086250Y-39678750D01*
X281086250Y-39678750D02*
X281086250Y-54918750D01*
X265846250Y-30153750D02*
X281086250Y-30153750D01*
X265846250Y-45393750D02*
X265846250Y-30153750D01*
X281086250Y-45393750D02*
X265846250Y-45393750D01*
X281086250Y-30153750D02*
X281086250Y-45393750D01*
X273942500Y-1578750D02*
X273942500Y-16818750D01*
X258702500Y-1578750D02*
X273942500Y-1578750D01*
X258702500Y-16818750D02*
X258702500Y-1578750D01*
X273942500Y-16818750D02*
X258702500Y-16818750D01*
X19148750Y-73968750D02*
X3908750Y-73968750D01*
X3908750Y-73968750D02*
X3908750Y-58728750D01*
X3908750Y-58728750D02*
X19148750Y-58728750D01*
X19148750Y-58728750D02*
X19148750Y-73968750D01*
X19150020Y-54920020D02*
X3910020Y-54920020D01*
X3910020Y-54920020D02*
X3910020Y-39680020D01*
X3910020Y-39680020D02*
X19150020Y-39680020D01*
X19150020Y-39680020D02*
X19150020Y-54920020D01*
X50105000Y-54918750D02*
X34865000Y-54918750D01*
X34865000Y-54918750D02*
X34865000Y-39678750D01*
X34865000Y-39678750D02*
X50105000Y-39678750D01*
X50105000Y-39678750D02*
X50105000Y-54918750D01*
X69155000Y-54918750D02*
X53915000Y-54918750D01*
X53915000Y-54918750D02*
X53915000Y-39678750D01*
X53915000Y-39678750D02*
X69155000Y-39678750D01*
X69155000Y-39678750D02*
X69155000Y-54918750D01*
X88205000Y-54918750D02*
X72965000Y-54918750D01*
X72965000Y-54918750D02*
X72965000Y-39678750D01*
X72965000Y-39678750D02*
X88205000Y-39678750D01*
X88205000Y-39678750D02*
X88205000Y-54918750D01*
X64392500Y-35868750D02*
X49152500Y-35868750D01*
X49152500Y-35868750D02*
X49152500Y-20628750D01*
X49152500Y-20628750D02*
X64392500Y-20628750D01*
X64392500Y-20628750D02*
X64392500Y-35868750D01*
X283467500Y-58728750D02*
X283467500Y-73968750D01*
X268227500Y-58728750D02*
X283467500Y-58728750D01*
X268227500Y-73968750D02*
X268227500Y-58728750D01*
X283467500Y-73968750D02*
X268227500Y-73968750D01*
X257273750Y-58728750D02*
X257273750Y-73968750D01*
X242033750Y-58728750D02*
X257273750Y-58728750D01*
X242033750Y-73968750D02*
X242033750Y-58728750D01*
X257273750Y-73968750D02*
X242033750Y-73968750D01*
X250130000Y-58728750D02*
X250130000Y-73968750D01*
X234890000Y-58728750D02*
X250130000Y-58728750D01*
X234890000Y-73968750D02*
X234890000Y-58728750D01*
X250130000Y-73968750D02*
X234890000Y-73968750D01*
X266798750Y-58728750D02*
X266798750Y-73968750D01*
X251558750Y-58728750D02*
X266798750Y-58728750D01*
X251558750Y-73968750D02*
X251558750Y-58728750D01*
X266798750Y-73968750D02*
X251558750Y-73968750D01*
X221555000Y-39678750D02*
X221555000Y-54918750D01*
X206315000Y-39678750D02*
X221555000Y-39678750D01*
X206315000Y-54918750D02*
X206315000Y-39678750D01*
X221555000Y-54918750D02*
X206315000Y-54918750D01*
X59630000Y-73968750D02*
X44390000Y-73968750D01*
X44390000Y-73968750D02*
X44390000Y-58728750D01*
X44390000Y-58728750D02*
X59630000Y-58728750D01*
X59630000Y-58728750D02*
X59630000Y-73968750D01*
X40580000Y-73968750D02*
X25340000Y-73968750D01*
X25340000Y-73968750D02*
X25340000Y-58728750D01*
X25340000Y-58728750D02*
X40580000Y-58728750D01*
X40580000Y-58728750D02*
X40580000Y-73968750D01*
X28673750Y-73968750D02*
X13433750Y-73968750D01*
X13433750Y-73968750D02*
X13433750Y-58728750D01*
X13433750Y-58728750D02*
X28673750Y-58728750D01*
X28673750Y-58728750D02*
X28673750Y-73968750D01*
X154880000Y-73968750D02*
X139640000Y-73968750D01*
X139640000Y-73968750D02*
X139640000Y-58728750D01*
X139640000Y-58728750D02*
X154880000Y-58728750D01*
X154880000Y-58728750D02*
X154880000Y-73968750D01*
X135830000Y-73968750D02*
X120590000Y-73968750D01*
X120590000Y-73968750D02*
X120590000Y-58728750D01*
X120590000Y-58728750D02*
X135830000Y-58728750D01*
X135830000Y-58728750D02*
X135830000Y-73968750D01*
X116780000Y-73968750D02*
X101540000Y-73968750D01*
X101540000Y-73968750D02*
X101540000Y-58728750D01*
X101540000Y-58728750D02*
X116780000Y-58728750D01*
X116780000Y-58728750D02*
X116780000Y-73968750D01*
X97730000Y-73968750D02*
X82490000Y-73968750D01*
X82490000Y-73968750D02*
X82490000Y-58728750D01*
X82490000Y-58728750D02*
X97730000Y-58728750D01*
X97730000Y-58728750D02*
X97730000Y-73968750D01*
X240605000Y-39678750D02*
X240605000Y-54918750D01*
X225365000Y-39678750D02*
X240605000Y-39678750D01*
X225365000Y-54918750D02*
X225365000Y-39678750D01*
X240605000Y-54918750D02*
X225365000Y-54918750D01*
X78680000Y-73968750D02*
X63440000Y-73968750D01*
X63440000Y-73968750D02*
X63440000Y-58728750D01*
X63440000Y-58728750D02*
X78680000Y-58728750D01*
X78680000Y-58728750D02*
X78680000Y-73968750D01*
X202505000Y-54918750D02*
X187265000Y-54918750D01*
X187265000Y-54918750D02*
X187265000Y-39678750D01*
X187265000Y-39678750D02*
X202505000Y-39678750D01*
X202505000Y-39678750D02*
X202505000Y-54918750D01*
X183455000Y-54918750D02*
X168215000Y-54918750D01*
X168215000Y-54918750D02*
X168215000Y-39678750D01*
X168215000Y-39678750D02*
X183455000Y-39678750D01*
X183455000Y-39678750D02*
X183455000Y-54918750D01*
X271561250Y-54918750D02*
X256321250Y-54918750D01*
X256321250Y-54918750D02*
X256321250Y-39678750D01*
X256321250Y-39678750D02*
X271561250Y-39678750D01*
X271561250Y-39678750D02*
X271561250Y-54918750D01*
X259655000Y-39678750D02*
X259655000Y-54918750D01*
X244415000Y-39678750D02*
X259655000Y-39678750D01*
X244415000Y-54918750D02*
X244415000Y-39678750D01*
X259655000Y-54918750D02*
X244415000Y-54918750D01*
X173930000Y-73968750D02*
X158690000Y-73968750D01*
X158690000Y-73968750D02*
X158690000Y-58728750D01*
X158690000Y-58728750D02*
X173930000Y-58728750D01*
X173930000Y-58728750D02*
X173930000Y-73968750D01*
X192980000Y-73968750D02*
X177740000Y-73968750D01*
X177740000Y-73968750D02*
X177740000Y-58728750D01*
X177740000Y-58728750D02*
X192980000Y-58728750D01*
X192980000Y-58728750D02*
X192980000Y-73968750D01*
X212030000Y-58728750D02*
X212030000Y-73968750D01*
X196790000Y-58728750D02*
X212030000Y-58728750D01*
X196790000Y-73968750D02*
X196790000Y-58728750D01*
X212030000Y-73968750D02*
X196790000Y-73968750D01*
X231080000Y-58728750D02*
X231080000Y-73968750D01*
X215840000Y-58728750D02*
X231080000Y-58728750D01*
X215840000Y-73968750D02*
X215840000Y-58728750D01*
X231080000Y-73968750D02*
X215840000Y-73968750D01*
X283467500Y-1578750D02*
X283467500Y-16818750D01*
X268227500Y-1578750D02*
X283467500Y-1578750D01*
X268227500Y-16818750D02*
X268227500Y-1578750D01*
X283467500Y-16818750D02*
X268227500Y-16818750D01*
X138211250Y-93018750D02*
X122971250Y-93018750D01*
X122971250Y-93018750D02*
X122971250Y-77778750D01*
X122971250Y-77778750D02*
X138211250Y-77778750D01*
X138211250Y-77778750D02*
X138211250Y-93018750D01*
X245367500Y-1578750D02*
X245367500Y-16818750D01*
X230127500Y-1578750D02*
X245367500Y-1578750D01*
X230127500Y-16818750D02*
X230127500Y-1578750D01*
X245367500Y-16818750D02*
X230127500Y-16818750D01*
X121542500Y-35868750D02*
X106302500Y-35868750D01*
X106302500Y-35868750D02*
X106302500Y-20628750D01*
X106302500Y-20628750D02*
X121542500Y-20628750D01*
X121542500Y-20628750D02*
X121542500Y-35868750D01*
X102492500Y-35868750D02*
X87252500Y-35868750D01*
X87252500Y-35868750D02*
X87252500Y-20628750D01*
X87252500Y-20628750D02*
X102492500Y-20628750D01*
X102492500Y-20628750D02*
X102492500Y-35868750D01*
X226317500Y-1578750D02*
X226317500Y-16818750D01*
X211077500Y-1578750D02*
X226317500Y-1578750D01*
X211077500Y-16818750D02*
X211077500Y-1578750D01*
X226317500Y-16818750D02*
X211077500Y-16818750D01*
X207267500Y-1578750D02*
X207267500Y-16818750D01*
X192027500Y-1578750D02*
X207267500Y-1578750D01*
X192027500Y-16818750D02*
X192027500Y-1578750D01*
X207267500Y-16818750D02*
X192027500Y-16818750D01*
X188217500Y-16818750D02*
X172977500Y-16818750D01*
X172977500Y-16818750D02*
X172977500Y-1578750D01*
X172977500Y-1578750D02*
X188217500Y-1578750D01*
X188217500Y-1578750D02*
X188217500Y-16818750D01*
X169167500Y-16818750D02*
X153927500Y-16818750D01*
X153927500Y-16818750D02*
X153927500Y-1578750D01*
X153927500Y-1578750D02*
X169167500Y-1578750D01*
X169167500Y-1578750D02*
X169167500Y-16818750D01*
X264417500Y-1578750D02*
X264417500Y-16818750D01*
X249177500Y-1578750D02*
X264417500Y-1578750D01*
X249177500Y-16818750D02*
X249177500Y-1578750D01*
X264417500Y-16818750D02*
X249177500Y-16818750D01*
X140592500Y-35868750D02*
X125352500Y-35868750D01*
X125352500Y-35868750D02*
X125352500Y-20628750D01*
X125352500Y-20628750D02*
X140592500Y-20628750D01*
X140592500Y-20628750D02*
X140592500Y-35868750D01*
X73917500Y-16818750D02*
X58677500Y-16818750D01*
X58677500Y-16818750D02*
X58677500Y-1578750D01*
X58677500Y-1578750D02*
X73917500Y-1578750D01*
X73917500Y-1578750D02*
X73917500Y-16818750D01*
X54867500Y-16818750D02*
X39627500Y-16818750D01*
X39627500Y-16818750D02*
X39627500Y-1578750D01*
X39627500Y-1578750D02*
X54867500Y-1578750D01*
X54867500Y-1578750D02*
X54867500Y-16818750D01*
X35817500Y-16818750D02*
X20577500Y-16818750D01*
X20577500Y-16818750D02*
X20577500Y-1578750D01*
X20577500Y-1578750D02*
X35817500Y-1578750D01*
X35817500Y-1578750D02*
X35817500Y-16818750D01*
X150117500Y-16818750D02*
X134877500Y-16818750D01*
X134877500Y-16818750D02*
X134877500Y-1578750D01*
X134877500Y-1578750D02*
X150117500Y-1578750D01*
X150117500Y-1578750D02*
X150117500Y-16818750D01*
X131067500Y-16818750D02*
X115827500Y-16818750D01*
X115827500Y-16818750D02*
X115827500Y-1578750D01*
X115827500Y-1578750D02*
X131067500Y-1578750D01*
X131067500Y-1578750D02*
X131067500Y-16818750D01*
X112017500Y-16818750D02*
X96777500Y-16818750D01*
X96777500Y-16818750D02*
X96777500Y-1578750D01*
X96777500Y-1578750D02*
X112017500Y-1578750D01*
X112017500Y-1578750D02*
X112017500Y-16818750D01*
X92967500Y-16818750D02*
X77727500Y-16818750D01*
X77727500Y-16818750D02*
X77727500Y-1578750D01*
X77727500Y-1578750D02*
X92967500Y-1578750D01*
X92967500Y-1578750D02*
X92967500Y-16818750D01*
X159642500Y-35868750D02*
X144402500Y-35868750D01*
X144402500Y-35868750D02*
X144402500Y-20628750D01*
X144402500Y-20628750D02*
X159642500Y-20628750D01*
X159642500Y-20628750D02*
X159642500Y-35868750D01*
X21530000Y-35868750D02*
X6290000Y-35868750D01*
X6290000Y-35868750D02*
X6290000Y-20628750D01*
X6290000Y-20628750D02*
X21530000Y-20628750D01*
X21530000Y-20628750D02*
X21530000Y-35868750D01*
X45342500Y-35868750D02*
X30102500Y-35868750D01*
X30102500Y-35868750D02*
X30102500Y-20628750D01*
X30102500Y-20628750D02*
X45342500Y-20628750D01*
X45342500Y-20628750D02*
X45342500Y-35868750D01*
X83442500Y-35868750D02*
X68202500Y-35868750D01*
X68202500Y-35868750D02*
X68202500Y-20628750D01*
X68202500Y-20628750D02*
X83442500Y-20628750D01*
X83442500Y-20628750D02*
X83442500Y-35868750D01*
X254892500Y-20628750D02*
X254892500Y-35868750D01*
X239652500Y-20628750D02*
X254892500Y-20628750D01*
X239652500Y-35868750D02*
X239652500Y-20628750D01*
X254892500Y-35868750D02*
X239652500Y-35868750D01*
X278705000Y-20628750D02*
X278705000Y-35868750D01*
X263465000Y-20628750D02*
X278705000Y-20628750D01*
X263465000Y-35868750D02*
X263465000Y-20628750D01*
X278705000Y-35868750D02*
X263465000Y-35868750D01*
X178692500Y-35868750D02*
X163452500Y-35868750D01*
X163452500Y-35868750D02*
X163452500Y-20628750D01*
X163452500Y-20628750D02*
X178692500Y-20628750D01*
X178692500Y-20628750D02*
X178692500Y-35868750D01*
X197742500Y-35868750D02*
X182502500Y-35868750D01*
X182502500Y-35868750D02*
X182502500Y-20628750D01*
X182502500Y-20628750D02*
X197742500Y-20628750D01*
X197742500Y-20628750D02*
X197742500Y-35868750D01*
X216792500Y-20628750D02*
X216792500Y-35868750D01*
X201552500Y-20628750D02*
X216792500Y-20628750D01*
X201552500Y-35868750D02*
X201552500Y-20628750D01*
X216792500Y-35868750D02*
X201552500Y-35868750D01*
X235842500Y-20628750D02*
X235842500Y-35868750D01*
X220602500Y-20628750D02*
X235842500Y-20628750D01*
X220602500Y-35868750D02*
X220602500Y-20628750D01*
X235842500Y-35868750D02*
X220602500Y-35868750D01*
X107255000Y-54918750D02*
X92015000Y-54918750D01*
X92015000Y-54918750D02*
X92015000Y-39678750D01*
X92015000Y-39678750D02*
X107255000Y-39678750D01*
X107255000Y-39678750D02*
X107255000Y-54918750D01*
X126305000Y-54918750D02*
X111065000Y-54918750D01*
X111065000Y-54918750D02*
X111065000Y-39678750D01*
X111065000Y-39678750D02*
X126305000Y-39678750D01*
X126305000Y-39678750D02*
X126305000Y-54918750D01*
X145355000Y-54918750D02*
X130115000Y-54918750D01*
X130115000Y-54918750D02*
X130115000Y-39678750D01*
X130115000Y-39678750D02*
X145355000Y-39678750D01*
X145355000Y-39678750D02*
X145355000Y-54918750D01*
X164405000Y-54918750D02*
X149165000Y-54918750D01*
X149165000Y-54918750D02*
X149165000Y-39678750D01*
X149165000Y-39678750D02*
X164405000Y-39678750D01*
X164405000Y-39678750D02*
X164405000Y-54918750D01*
X150117500Y-93018750D02*
X134877500Y-93018750D01*
X134877500Y-93018750D02*
X134877500Y-77778750D01*
X134877500Y-77778750D02*
X150117500Y-77778750D01*
X150117500Y-77778750D02*
X150117500Y-93018750D01*
X131067500Y-93018750D02*
X115827500Y-93018750D01*
X115827500Y-93018750D02*
X115827500Y-77778750D01*
X115827500Y-77778750D02*
X131067500Y-77778750D01*
X131067500Y-77778750D02*
X131067500Y-93018750D01*
X276323750Y-58728750D02*
X276323750Y-73968750D01*
X261083750Y-58728750D02*
X276323750Y-58728750D01*
X261083750Y-73968750D02*
X261083750Y-58728750D01*
X276323750Y-73968750D02*
X261083750Y-73968750D01*
X23912520Y-39680020D02*
X23912520Y-54920020D01*
X8672520Y-39680020D02*
X23912520Y-39680020D01*
X8672520Y-54920020D02*
X8672520Y-39680020D01*
X23912520Y-54920020D02*
X8672520Y-54920020D01*
X207267500Y-1580020D02*
X207267500Y-16820020D01*
X192027500Y-1580020D02*
X207267500Y-1580020D01*
X192027500Y-16820020D02*
X192027500Y-1580020D01*
X207267500Y-16820020D02*
X192027500Y-16820020D01*
X102492500Y-20630020D02*
X102492500Y-35870020D01*
X87252500Y-20630020D02*
X102492500Y-20630020D01*
X87252500Y-35870020D02*
X87252500Y-20630020D01*
X102492500Y-35870020D02*
X87252500Y-35870020D01*
X121542500Y-20630020D02*
X121542500Y-35870020D01*
X106302500Y-20630020D02*
X121542500Y-20630020D01*
X106302500Y-35870020D02*
X106302500Y-20630020D01*
X121542500Y-35870020D02*
X106302500Y-35870020D01*
X159642500Y-20630020D02*
X159642500Y-35870020D01*
X144402500Y-20630020D02*
X159642500Y-20630020D01*
X144402500Y-35870020D02*
X144402500Y-20630020D01*
X159642500Y-35870020D02*
X144402500Y-35870020D01*
X178692500Y-20630020D02*
X178692500Y-35870020D01*
X163452500Y-20630020D02*
X178692500Y-20630020D01*
X163452500Y-35870020D02*
X163452500Y-20630020D01*
X178692500Y-35870020D02*
X163452500Y-35870020D01*
X197742500Y-20630020D02*
X197742500Y-35870020D01*
X182502500Y-20630020D02*
X197742500Y-20630020D01*
X182502500Y-35870020D02*
X182502500Y-20630020D01*
X197742500Y-35870020D02*
X182502500Y-35870020D01*
X216792500Y-20630020D02*
X216792500Y-35870020D01*
X201552500Y-20630020D02*
X216792500Y-20630020D01*
X201552500Y-35870020D02*
X201552500Y-20630020D01*
X216792500Y-35870020D02*
X201552500Y-35870020D01*
X235842500Y-20630020D02*
X235842500Y-35870020D01*
X220602500Y-20630020D02*
X235842500Y-20630020D01*
X220602500Y-35870020D02*
X220602500Y-20630020D01*
X235842500Y-35870020D02*
X220602500Y-35870020D01*
X278705000Y-20628750D02*
X278705000Y-35868750D01*
X263465000Y-20628750D02*
X278705000Y-20628750D01*
X263465000Y-35868750D02*
X263465000Y-20628750D01*
X278705000Y-35868750D02*
X263465000Y-35868750D01*
X50105000Y-39680020D02*
X50105000Y-54920020D01*
X34865000Y-39680020D02*
X50105000Y-39680020D01*
X34865000Y-54920020D02*
X34865000Y-39680020D01*
X50105000Y-54920020D02*
X34865000Y-54920020D01*
X69155000Y-39680020D02*
X69155000Y-54920020D01*
X53915000Y-39680020D02*
X69155000Y-39680020D01*
X53915000Y-54920020D02*
X53915000Y-39680020D01*
X69155000Y-54920020D02*
X53915000Y-54920020D01*
X88205000Y-39680020D02*
X88205000Y-54920020D01*
X72965000Y-39680020D02*
X88205000Y-39680020D01*
X72965000Y-54920020D02*
X72965000Y-39680020D01*
X88205000Y-54920020D02*
X72965000Y-54920020D01*
X107255000Y-39680020D02*
X107255000Y-54920020D01*
X92015000Y-39680020D02*
X107255000Y-39680020D01*
X92015000Y-54920020D02*
X92015000Y-39680020D01*
X107255000Y-54920020D02*
X92015000Y-54920020D01*
X126305000Y-39680020D02*
X126305000Y-54920020D01*
X111065000Y-39680020D02*
X126305000Y-39680020D01*
X111065000Y-54920020D02*
X111065000Y-39680020D01*
X126305000Y-54920020D02*
X111065000Y-54920020D01*
X145355000Y-39680020D02*
X145355000Y-54920020D01*
X130115000Y-39680020D02*
X145355000Y-39680020D01*
X130115000Y-54920020D02*
X130115000Y-39680020D01*
X145355000Y-54920020D02*
X130115000Y-54920020D01*
X164405000Y-39680020D02*
X164405000Y-54920020D01*
X149165000Y-39680020D02*
X164405000Y-39680020D01*
X149165000Y-54920020D02*
X149165000Y-39680020D01*
X164405000Y-54920020D02*
X149165000Y-54920020D01*
X54867500Y-1580020D02*
X54867500Y-16820020D01*
X39627500Y-1580020D02*
X54867500Y-1580020D01*
X39627500Y-16820020D02*
X39627500Y-1580020D01*
X54867500Y-16820020D02*
X39627500Y-16820020D01*
X73917500Y-16820020D02*
X58677500Y-16820020D01*
X58677500Y-16820020D02*
X58677500Y-1580020D01*
X58677500Y-1580020D02*
X73917500Y-1580020D01*
X73917500Y-1580020D02*
X73917500Y-16820020D01*
X112017500Y-1580020D02*
X112017500Y-16820020D01*
X96777500Y-1580020D02*
X112017500Y-1580020D01*
X96777500Y-16820020D02*
X96777500Y-1580020D01*
X112017500Y-16820020D02*
X96777500Y-16820020D01*
X131067500Y-1580020D02*
X131067500Y-16820020D01*
X115827500Y-1580020D02*
X131067500Y-1580020D01*
X115827500Y-16820020D02*
X115827500Y-1580020D01*
X131067500Y-16820020D02*
X115827500Y-16820020D01*
X150117500Y-1580020D02*
X150117500Y-16820020D01*
X134877500Y-1580020D02*
X150117500Y-1580020D01*
X134877500Y-16820020D02*
X134877500Y-1580020D01*
X150117500Y-16820020D02*
X134877500Y-16820020D01*
X169167500Y-1580020D02*
X169167500Y-16820020D01*
X153927500Y-1580020D02*
X169167500Y-1580020D01*
X153927500Y-16820020D02*
X153927500Y-1580020D01*
X169167500Y-16820020D02*
X153927500Y-16820020D01*
X226317500Y-1580020D02*
X226317500Y-16820020D01*
X211077500Y-1580020D02*
X226317500Y-1580020D01*
X211077500Y-16820020D02*
X211077500Y-1580020D01*
X226317500Y-16820020D02*
X211077500Y-16820020D01*
X245367500Y-1580020D02*
X245367500Y-16820020D01*
X230127500Y-1580020D02*
X245367500Y-1580020D01*
X230127500Y-16820020D02*
X230127500Y-1580020D01*
X245367500Y-16820020D02*
X230127500Y-16820020D01*
X273942500Y-1580020D02*
X273942500Y-16820020D01*
X258702500Y-1580020D02*
X273942500Y-1580020D01*
X258702500Y-16820020D02*
X258702500Y-1580020D01*
X273942500Y-16820020D02*
X258702500Y-16820020D01*
X21530000Y-20630020D02*
X21530000Y-35870020D01*
X6290000Y-20630020D02*
X21530000Y-20630020D01*
X6290000Y-35870020D02*
X6290000Y-20630020D01*
X21530000Y-35870020D02*
X6290000Y-35870020D01*
X45342500Y-20630020D02*
X45342500Y-35870020D01*
X30102500Y-20630020D02*
X45342500Y-20630020D01*
X30102500Y-35870020D02*
X30102500Y-20630020D01*
X45342500Y-35870020D02*
X30102500Y-35870020D01*
X64392500Y-20630020D02*
X64392500Y-35870020D01*
X49152500Y-20630020D02*
X64392500Y-20630020D01*
X49152500Y-35870020D02*
X49152500Y-20630020D01*
X64392500Y-35870020D02*
X49152500Y-35870020D01*
X83442500Y-20630020D02*
X83442500Y-35870020D01*
X68202500Y-20630020D02*
X83442500Y-20630020D01*
X68202500Y-35870020D02*
X68202500Y-20630020D01*
X83442500Y-35870020D02*
X68202500Y-35870020D01*
X266800020Y-58730020D02*
X266800020Y-73970020D01*
X251560020Y-58730020D02*
X266800020Y-58730020D01*
X251560020Y-73970020D02*
X251560020Y-58730020D01*
X266800020Y-73970020D02*
X251560020Y-73970020D01*
X19148750Y-77778750D02*
X19148750Y-93018750D01*
X3908750Y-77778750D02*
X19148750Y-77778750D01*
X3908750Y-93018750D02*
X3908750Y-77778750D01*
X19148750Y-93018750D02*
X3908750Y-93018750D01*
X66773750Y-77778750D02*
X66773750Y-93018750D01*
X51533750Y-77778750D02*
X66773750Y-77778750D01*
X51533750Y-93018750D02*
X51533750Y-77778750D01*
X66773750Y-93018750D02*
X51533750Y-93018750D01*
X138211250Y-77778750D02*
X138211250Y-93018750D01*
X122971250Y-77778750D02*
X138211250Y-77778750D01*
X122971250Y-93018750D02*
X122971250Y-77778750D01*
X138211250Y-93018750D02*
X122971250Y-93018750D01*
X209648750Y-77778750D02*
X209648750Y-93018750D01*
X194408750Y-77778750D02*
X209648750Y-77778750D01*
X194408750Y-93018750D02*
X194408750Y-77778750D01*
X209648750Y-93018750D02*
X194408750Y-93018750D01*
X233461250Y-77778750D02*
X233461250Y-93018750D01*
X218221250Y-77778750D02*
X233461250Y-77778750D01*
X218221250Y-93018750D02*
X218221250Y-77778750D01*
X233461250Y-93018750D02*
X218221250Y-93018750D01*
X257273750Y-77778750D02*
X257273750Y-93018750D01*
X242033750Y-77778750D02*
X257273750Y-77778750D01*
X242033750Y-93018750D02*
X242033750Y-77778750D01*
X257273750Y-93018750D02*
X242033750Y-93018750D01*
X281086250Y-77778750D02*
X281086250Y-93018750D01*
X265846250Y-77778750D02*
X281086250Y-77778750D01*
X265846250Y-93018750D02*
X265846250Y-77778750D01*
X281086250Y-93018750D02*
X265846250Y-93018750D01*
X183455000Y-39680020D02*
X183455000Y-54920020D01*
X168215000Y-39680020D02*
X183455000Y-39680020D01*
X168215000Y-54920020D02*
X168215000Y-39680020D01*
X183455000Y-54920020D02*
X168215000Y-54920020D01*
X202505000Y-39680020D02*
X202505000Y-54920020D01*
X187265000Y-39680020D02*
X202505000Y-39680020D01*
X187265000Y-54920020D02*
X187265000Y-39680020D01*
X202505000Y-54920020D02*
X187265000Y-54920020D01*
X240605000Y-39680020D02*
X240605000Y-54920020D01*
X225365000Y-39680020D02*
X240605000Y-39680020D01*
X225365000Y-54920020D02*
X225365000Y-39680020D01*
X240605000Y-54920020D02*
X225365000Y-54920020D01*
X271561250Y-39678750D02*
X271561250Y-54918750D01*
X256321250Y-39678750D02*
X271561250Y-39678750D01*
X256321250Y-54918750D02*
X256321250Y-39678750D01*
X271561250Y-54918750D02*
X256321250Y-54918750D01*
X28673750Y-58728750D02*
X28673750Y-73968750D01*
X13433750Y-58728750D02*
X28673750Y-58728750D01*
X13433750Y-73968750D02*
X13433750Y-58728750D01*
X28673750Y-73968750D02*
X13433750Y-73968750D01*
X59630000Y-58730020D02*
X59630000Y-73970020D01*
X44390000Y-58730020D02*
X59630000Y-58730020D01*
X44390000Y-73970020D02*
X44390000Y-58730020D01*
X59630000Y-73970020D02*
X44390000Y-73970020D01*
X78680000Y-58730020D02*
X78680000Y-73970020D01*
X63440000Y-58730020D02*
X78680000Y-58730020D01*
X63440000Y-73970020D02*
X63440000Y-58730020D01*
X78680000Y-73970020D02*
X63440000Y-73970020D01*
X116780000Y-58730020D02*
X116780000Y-73970020D01*
X101540000Y-58730020D02*
X116780000Y-58730020D01*
X101540000Y-73970020D02*
X101540000Y-58730020D01*
X116780000Y-73970020D02*
X101540000Y-73970020D01*
X135830000Y-58730020D02*
X135830000Y-73970020D01*
X120590000Y-58730020D02*
X135830000Y-58730020D01*
X120590000Y-73970020D02*
X120590000Y-58730020D01*
X135830000Y-73970020D02*
X120590000Y-73970020D01*
X154880000Y-58730020D02*
X154880000Y-73970020D01*
X139640000Y-58730020D02*
X154880000Y-58730020D01*
X139640000Y-73970020D02*
X139640000Y-58730020D01*
X154880000Y-73970020D02*
X139640000Y-73970020D01*
X173930000Y-58730020D02*
X173930000Y-73970020D01*
X158690000Y-58730020D02*
X173930000Y-58730020D01*
X158690000Y-73970020D02*
X158690000Y-58730020D01*
X173930000Y-73970020D02*
X158690000Y-73970020D01*
X192980000Y-58730020D02*
X192980000Y-73970020D01*
X177740000Y-58730020D02*
X192980000Y-58730020D01*
X177740000Y-73970020D02*
X177740000Y-58730020D01*
X192980000Y-73970020D02*
X177740000Y-73970020D01*
X212030000Y-58730020D02*
X212030000Y-73970020D01*
X196790000Y-58730020D02*
X212030000Y-58730020D01*
X196790000Y-73970020D02*
X196790000Y-58730020D01*
X212030000Y-73970020D02*
X196790000Y-73970020D01*
X231080000Y-58730020D02*
X231080000Y-73970020D01*
X215840000Y-58730020D02*
X231080000Y-58730020D01*
X215840000Y-73970020D02*
X215840000Y-58730020D01*
X231080000Y-73970020D02*
X215840000Y-73970020D01*
X42961250Y-77778750D02*
X42961250Y-93018750D01*
X27721250Y-77778750D02*
X42961250Y-77778750D01*
X27721250Y-93018750D02*
X27721250Y-77778750D01*
X42961250Y-93018750D02*
X27721250Y-93018750D01*
X97730000Y-58730020D02*
X97730000Y-73970020D01*
X82490000Y-58730020D02*
X97730000Y-58730020D01*
X82490000Y-73970020D02*
X82490000Y-58730020D01*
X97730000Y-73970020D02*
X82490000Y-73970020D01*
X92967500Y-1580020D02*
X92967500Y-16820020D01*
X77727500Y-1580020D02*
X92967500Y-1580020D01*
X77727500Y-16820020D02*
X77727500Y-1580020D01*
X92967500Y-16820020D02*
X77727500Y-16820020D01*
X188217500Y-1580020D02*
X188217500Y-16820020D01*
X172977500Y-1580020D02*
X188217500Y-1580020D01*
X172977500Y-16820020D02*
X172977500Y-1580020D01*
X188217500Y-16820020D02*
X172977500Y-16820020D01*
X254892500Y-20630020D02*
X254892500Y-35870020D01*
X239652500Y-20630020D02*
X254892500Y-20630020D01*
X239652500Y-35870020D02*
X239652500Y-20630020D01*
X254892500Y-35870020D02*
X239652500Y-35870020D01*
X140592500Y-20630020D02*
X140592500Y-35870020D01*
X125352500Y-20630020D02*
X140592500Y-20630020D01*
X125352500Y-35870020D02*
X125352500Y-20630020D01*
X140592500Y-35870020D02*
X125352500Y-35870020D01*
X221555000Y-39680020D02*
X221555000Y-54920020D01*
X206315000Y-39680020D02*
X221555000Y-39680020D01*
X206315000Y-54920020D02*
X206315000Y-39680020D01*
X221555000Y-54920020D02*
X206315000Y-54920020D01*
X16767500Y-16818750D02*
X1527500Y-16818750D01*
X1527500Y-16818750D02*
X1527500Y-1578750D01*
X1527500Y-1578750D02*
X16767500Y-1578750D01*
X16767500Y-1578750D02*
X16767500Y-16818750D01*
X281086250Y-54918750D02*
X265846250Y-54918750D01*
X265846250Y-54918750D02*
X265846250Y-39678750D01*
X265846250Y-39678750D02*
X281086250Y-39678750D01*
X281086250Y-39678750D02*
X281086250Y-54918750D01*
X231080000Y-77778750D02*
X231080000Y-93018750D01*
X215840000Y-77778750D02*
X231080000Y-77778750D01*
X215840000Y-93018750D02*
X215840000Y-77778750D01*
X231080000Y-93018750D02*
X215840000Y-93018750D01*
X40580000Y-58730020D02*
X40580000Y-73970020D01*
X25340000Y-58730020D02*
X40580000Y-58730020D01*
X25340000Y-73970020D02*
X25340000Y-58730020D01*
X40580000Y-73970020D02*
X25340000Y-73970020D01*
X283467500Y-58728750D02*
X283467500Y-73968750D01*
X268227500Y-58728750D02*
X283467500Y-58728750D01*
X268227500Y-73968750D02*
X268227500Y-58728750D01*
X283467500Y-73968750D02*
X268227500Y-73968750D01*
X21530000Y-77747000D02*
X21530000Y-92987000D01*
X6290000Y-77747000D02*
X21530000Y-77747000D01*
X6290000Y-92987000D02*
X6290000Y-77747000D01*
X21530000Y-92987000D02*
X6290000Y-92987000D01*
X50105000Y-77747000D02*
X50105000Y-92987000D01*
X34865000Y-77747000D02*
X50105000Y-77747000D01*
X34865000Y-92987000D02*
X34865000Y-77747000D01*
X50105000Y-92987000D02*
X34865000Y-92987000D01*
X45406000Y-77747000D02*
X45406000Y-92987000D01*
X30166000Y-77747000D02*
X45406000Y-77747000D01*
X30166000Y-92987000D02*
X30166000Y-77747000D01*
X45406000Y-92987000D02*
X30166000Y-92987000D01*
X212030000Y-77778750D02*
X212030000Y-93018750D01*
X196790000Y-77778750D02*
X212030000Y-77778750D01*
X196790000Y-93018750D02*
X196790000Y-77778750D01*
X212030000Y-93018750D02*
X196790000Y-93018750D01*
X235842500Y-77778750D02*
X235842500Y-93018750D01*
X220602500Y-77778750D02*
X235842500Y-77778750D01*
X220602500Y-93018750D02*
X220602500Y-77778750D01*
X235842500Y-93018750D02*
X220602500Y-93018750D01*
X69155000Y-77747000D02*
X69155000Y-92987000D01*
X53915000Y-77747000D02*
X69155000Y-77747000D01*
X53915000Y-92987000D02*
X53915000Y-77747000D01*
X69155000Y-92987000D02*
X53915000Y-92987000D01*
X254892500Y-77778750D02*
X254892500Y-93018750D01*
X239652500Y-77778750D02*
X254892500Y-77778750D01*
X239652500Y-93018750D02*
X239652500Y-77778750D01*
X254892500Y-93018750D02*
X239652500Y-93018750D01*
X278705000Y-77778750D02*
X278705000Y-93018750D01*
X263465000Y-77778750D02*
X278705000Y-77778750D01*
X263465000Y-93018750D02*
X263465000Y-77778750D01*
X278705000Y-93018750D02*
X263465000Y-93018750D01*
X150117500Y-77780020D02*
X150117500Y-93020020D01*
X134877500Y-77780020D02*
X150117500Y-77780020D01*
X134877500Y-93020020D02*
X134877500Y-77780020D01*
X150117500Y-93020020D02*
X134877500Y-93020020D01*
X131067500Y-77778750D02*
X131067500Y-93018750D01*
X115827500Y-77778750D02*
X131067500Y-77778750D01*
X115827500Y-93018750D02*
X115827500Y-77778750D01*
X131067500Y-93018750D02*
X115827500Y-93018750D01*
X19150020Y-58730020D02*
X19150020Y-73970020D01*
X3910020Y-58730020D02*
X19150020Y-58730020D01*
X3910020Y-73970020D02*
X3910020Y-58730020D01*
X19150020Y-73970020D02*
X3910020Y-73970020D01*
X276323750Y-58728750D02*
X276323750Y-73968750D01*
X261083750Y-58728750D02*
X276323750Y-58728750D01*
X261083750Y-73968750D02*
X261083750Y-58728750D01*
X276323750Y-73968750D02*
X261083750Y-73968750D01*
X19150020Y-39680020D02*
X19150020Y-54920020D01*
X3910020Y-39680020D02*
X19150020Y-39680020D01*
X3910020Y-54920020D02*
X3910020Y-39680020D01*
X19150020Y-54920020D02*
X3910020Y-54920020D01*
X264417500Y-1578750D02*
X264417500Y-16818750D01*
X249177500Y-1578750D02*
X264417500Y-1578750D01*
X249177500Y-16818750D02*
X249177500Y-1578750D01*
X264417500Y-16818750D02*
X249177500Y-16818750D01*
X283467500Y-1578750D02*
X283467500Y-16818750D01*
X268227500Y-1578750D02*
X283467500Y-1578750D01*
X268227500Y-16818750D02*
X268227500Y-1578750D01*
X283467500Y-16818750D02*
X268227500Y-16818750D01*
X35817500Y-1578750D02*
X35817500Y-16818750D01*
X20577500Y-1578750D02*
X35817500Y-1578750D01*
X20577500Y-16818750D02*
X20577500Y-1578750D01*
X35817500Y-16818750D02*
X20577500Y-16818750D01*
X16767500Y-1578750D02*
X16767500Y-16818750D01*
X1527500Y-1578750D02*
X16767500Y-1578750D01*
X1527500Y-16818750D02*
X1527500Y-1578750D01*
X16767500Y-16818750D02*
X1527500Y-16818750D01*
X265846250Y-30153750D02*
X281086250Y-30153750D01*
X265846250Y-45393750D02*
X265846250Y-30153750D01*
X281086250Y-45393750D02*
X265846250Y-45393750D01*
X281086250Y-30153750D02*
X281086250Y-45393750D01*
X257273750Y-58728750D02*
X257273750Y-73968750D01*
X242033750Y-58728750D02*
X257273750Y-58728750D01*
X242033750Y-73968750D02*
X242033750Y-58728750D01*
X257273750Y-73968750D02*
X242033750Y-73968750D01*
X250130000Y-58728750D02*
X250130000Y-73968750D01*
X234890000Y-58728750D02*
X250130000Y-58728750D01*
X234890000Y-73968750D02*
X234890000Y-58728750D01*
X250130000Y-73968750D02*
X234890000Y-73968750D01*
X259655000Y-39680020D02*
X259655000Y-54920020D01*
X244415000Y-39680020D02*
X259655000Y-39680020D01*
X244415000Y-54920020D02*
X244415000Y-39680020D01*
X259655000Y-54920020D02*
X244415000Y-54920020D01*
X19148750Y-93018750D02*
X3908750Y-93018750D01*
X3908750Y-93018750D02*
X3908750Y-77778750D01*
X3908750Y-77778750D02*
X19148750Y-77778750D01*
X19148750Y-77778750D02*
X19148750Y-93018750D01*
X42961250Y-93018750D02*
X27721250Y-93018750D01*
X27721250Y-93018750D02*
X27721250Y-77778750D01*
X27721250Y-77778750D02*
X42961250Y-77778750D01*
X42961250Y-77778750D02*
X42961250Y-93018750D01*
X45342500Y-93018750D02*
X30102500Y-93018750D01*
X30102500Y-93018750D02*
X30102500Y-77778750D01*
X30102500Y-77778750D02*
X45342500Y-77778750D01*
X45342500Y-77778750D02*
X45342500Y-93018750D01*
X50105000Y-93018750D02*
X34865000Y-93018750D01*
X34865000Y-93018750D02*
X34865000Y-77778750D01*
X34865000Y-77778750D02*
X50105000Y-77778750D01*
X50105000Y-77778750D02*
X50105000Y-93018750D01*
X66773750Y-93018750D02*
X51533750Y-93018750D01*
X51533750Y-93018750D02*
X51533750Y-77778750D01*
X51533750Y-77778750D02*
X66773750Y-77778750D01*
X66773750Y-77778750D02*
X66773750Y-93018750D01*
X69155000Y-93018750D02*
X53915000Y-93018750D01*
X53915000Y-93018750D02*
X53915000Y-77778750D01*
X53915000Y-77778750D02*
X69155000Y-77778750D01*
X69155000Y-77778750D02*
X69155000Y-93018750D01*
X209648750Y-77778750D02*
X209648750Y-93018750D01*
X194408750Y-77778750D02*
X209648750Y-77778750D01*
X194408750Y-93018750D02*
X194408750Y-77778750D01*
X209648750Y-93018750D02*
X194408750Y-93018750D01*
X212030000Y-77778750D02*
X212030000Y-93018750D01*
X196790000Y-77778750D02*
X212030000Y-77778750D01*
X196790000Y-93018750D02*
X196790000Y-77778750D01*
X212030000Y-93018750D02*
X196790000Y-93018750D01*
X235842500Y-93018750D02*
X220602500Y-93018750D01*
X220602500Y-93018750D02*
X220602500Y-77778750D01*
X220602500Y-77778750D02*
X235842500Y-77778750D01*
X235842500Y-77778750D02*
X235842500Y-93018750D01*
X231080000Y-93018750D02*
X215840000Y-93018750D01*
X215840000Y-93018750D02*
X215840000Y-77778750D01*
X215840000Y-77778750D02*
X231080000Y-77778750D01*
X231080000Y-77778750D02*
X231080000Y-93018750D01*
X233461250Y-77778750D02*
X233461250Y-93018750D01*
X218221250Y-77778750D02*
X233461250Y-77778750D01*
X218221250Y-93018750D02*
X218221250Y-77778750D01*
X233461250Y-93018750D02*
X218221250Y-93018750D01*
X254892500Y-77778750D02*
X254892500Y-93018750D01*
X239652500Y-77778750D02*
X254892500Y-77778750D01*
X239652500Y-93018750D02*
X239652500Y-77778750D01*
X254892500Y-93018750D02*
X239652500Y-93018750D01*
X257273750Y-93018750D02*
X242033750Y-93018750D01*
X242033750Y-93018750D02*
X242033750Y-77778750D01*
X242033750Y-77778750D02*
X257273750Y-77778750D01*
X257273750Y-77778750D02*
X257273750Y-93018750D01*
X281086250Y-77778750D02*
X281086250Y-93018750D01*
X265846250Y-77778750D02*
X281086250Y-77778750D01*
X265846250Y-93018750D02*
X265846250Y-77778750D01*
X281086250Y-93018750D02*
X265846250Y-93018750D01*
X278705000Y-93018750D02*
X263465000Y-93018750D01*
X263465000Y-93018750D02*
X263465000Y-77778750D01*
X263465000Y-77778750D02*
X278705000Y-77778750D01*
X278705000Y-77778750D02*
X278705000Y-93018750D01*
D10*
X2932380Y-44449047D02*
X2932380Y-44925238D01*
X1932380Y-44925238D01*
X2408571Y-44115714D02*
X2408571Y-43782380D01*
X2932380Y-43639523D02*
X2932380Y-44115714D01*
X1932380Y-44115714D01*
X1932380Y-43639523D01*
X2932380Y-43210952D02*
X1932380Y-43210952D01*
X1932380Y-42972857D01*
X1980000Y-42830000D01*
X2075238Y-42734761D01*
X2170476Y-42687142D01*
X2360952Y-42639523D01*
X2503809Y-42639523D01*
X2694285Y-42687142D01*
X2789523Y-42734761D01*
X2884761Y-42830000D01*
X2932380Y-42972857D01*
X2932380Y-43210952D01*
X2027619Y-42258571D02*
X1980000Y-42210952D01*
X1932380Y-42115714D01*
X1932380Y-41877619D01*
X1980000Y-41782380D01*
X2027619Y-41734761D01*
X2122857Y-41687142D01*
X2218095Y-41687142D01*
X2360952Y-41734761D01*
X2932380Y-42306190D01*
X2932380Y-41687142D01*
%LPC*%
D14*
X161230000Y-80750000D03*
X161230000Y-84650000D03*
X159960000Y-80750000D03*
X159960000Y-84650000D03*
X158690000Y-80750000D03*
X158690000Y-84650000D03*
X157420000Y-80750000D03*
X157420000Y-84650000D03*
X156150000Y-80750000D03*
X156150000Y-84650000D03*
D15*
X25199300Y-27900800D03*
D16*
X283541200Y-56501200D03*
X1410000Y-56501200D03*
D15*
X260049900Y-27900800D03*
X190499400Y-85200700D03*
X128200000Y-47000000D03*
D17*
X2480000Y-24280000D03*
D18*
X2480000Y-26820000D03*
X2480000Y-29360000D03*
D17*
X2480000Y-31900000D03*
X152340000Y-91590000D03*
D18*
X154880000Y-91590000D03*
X157420000Y-91590000D03*
X159960000Y-91590000D03*
X162500000Y-91590000D03*
X165040000Y-91590000D03*
X167580000Y-91590000D03*
X170120000Y-91590000D03*
X172660000Y-91590000D03*
X175200000Y-91590000D03*
D19*
X21710000Y-1442500D03*
X14710000Y-1442500D03*
D20*
X20710000Y-4142500D03*
X15710000Y-4142500D03*
D21*
X79696000Y-71270000D03*
X81596000Y-71270000D03*
D22*
X2480000Y-71270000D03*
D23*
X2480000Y-81430000D03*
D24*
X39310000Y-36726000D03*
D25*
X39310000Y-38726000D03*
D10*
G36*
X2960142Y-45716174D02*
X2983803Y-45719684D01*
X3007007Y-45725496D01*
X3029529Y-45733554D01*
X3051153Y-45743782D01*
X3071670Y-45756079D01*
X3090883Y-45770329D01*
X3108607Y-45786393D01*
X3124671Y-45804117D01*
X3138921Y-45823330D01*
X3151218Y-45843847D01*
X3161446Y-45865471D01*
X3169504Y-45887993D01*
X3175316Y-45911197D01*
X3178826Y-45934858D01*
X3180000Y-45958750D01*
X3180000Y-46446250D01*
X3178826Y-46470142D01*
X3175316Y-46493803D01*
X3169504Y-46517007D01*
X3161446Y-46539529D01*
X3151218Y-46561153D01*
X3138921Y-46581670D01*
X3124671Y-46600883D01*
X3108607Y-46618607D01*
X3090883Y-46634671D01*
X3071670Y-46648921D01*
X3051153Y-46661218D01*
X3029529Y-46671446D01*
X3007007Y-46679504D01*
X2983803Y-46685316D01*
X2960142Y-46688826D01*
X2936250Y-46690000D01*
X2023750Y-46690000D01*
X1999858Y-46688826D01*
X1976197Y-46685316D01*
X1952993Y-46679504D01*
X1930471Y-46671446D01*
X1908847Y-46661218D01*
X1888330Y-46648921D01*
X1869117Y-46634671D01*
X1851393Y-46618607D01*
X1835329Y-46600883D01*
X1821079Y-46581670D01*
X1808782Y-46561153D01*
X1798554Y-46539529D01*
X1790496Y-46517007D01*
X1784684Y-46493803D01*
X1781174Y-46470142D01*
X1780000Y-46446250D01*
X1780000Y-45958750D01*
X1781174Y-45934858D01*
X1784684Y-45911197D01*
X1790496Y-45887993D01*
X1798554Y-45865471D01*
X1808782Y-45843847D01*
X1821079Y-45823330D01*
X1835329Y-45804117D01*
X1851393Y-45786393D01*
X1869117Y-45770329D01*
X1888330Y-45756079D01*
X1908847Y-45743782D01*
X1930471Y-45733554D01*
X1952993Y-45725496D01*
X1976197Y-45719684D01*
X1999858Y-45716174D01*
X2023750Y-45715000D01*
X2936250Y-45715000D01*
X2960142Y-45716174D01*
X2960142Y-45716174D01*
G37*
D26*
X2480000Y-46202500D03*
D10*
G36*
X2960142Y-47591174D02*
X2983803Y-47594684D01*
X3007007Y-47600496D01*
X3029529Y-47608554D01*
X3051153Y-47618782D01*
X3071670Y-47631079D01*
X3090883Y-47645329D01*
X3108607Y-47661393D01*
X3124671Y-47679117D01*
X3138921Y-47698330D01*
X3151218Y-47718847D01*
X3161446Y-47740471D01*
X3169504Y-47762993D01*
X3175316Y-47786197D01*
X3178826Y-47809858D01*
X3180000Y-47833750D01*
X3180000Y-48321250D01*
X3178826Y-48345142D01*
X3175316Y-48368803D01*
X3169504Y-48392007D01*
X3161446Y-48414529D01*
X3151218Y-48436153D01*
X3138921Y-48456670D01*
X3124671Y-48475883D01*
X3108607Y-48493607D01*
X3090883Y-48509671D01*
X3071670Y-48523921D01*
X3051153Y-48536218D01*
X3029529Y-48546446D01*
X3007007Y-48554504D01*
X2983803Y-48560316D01*
X2960142Y-48563826D01*
X2936250Y-48565000D01*
X2023750Y-48565000D01*
X1999858Y-48563826D01*
X1976197Y-48560316D01*
X1952993Y-48554504D01*
X1930471Y-48546446D01*
X1908847Y-48536218D01*
X1888330Y-48523921D01*
X1869117Y-48509671D01*
X1851393Y-48493607D01*
X1835329Y-48475883D01*
X1821079Y-48456670D01*
X1808782Y-48436153D01*
X1798554Y-48414529D01*
X1790496Y-48392007D01*
X1784684Y-48368803D01*
X1781174Y-48345142D01*
X1780000Y-48321250D01*
X1780000Y-47833750D01*
X1781174Y-47809858D01*
X1784684Y-47786197D01*
X1790496Y-47762993D01*
X1798554Y-47740471D01*
X1808782Y-47718847D01*
X1821079Y-47698330D01*
X1835329Y-47679117D01*
X1851393Y-47661393D01*
X1869117Y-47645329D01*
X1888330Y-47631079D01*
X1908847Y-47618782D01*
X1930471Y-47608554D01*
X1952993Y-47600496D01*
X1976197Y-47594684D01*
X1999858Y-47591174D01*
X2023750Y-47590000D01*
X2936250Y-47590000D01*
X2960142Y-47591174D01*
X2960142Y-47591174D01*
G37*
D26*
X2480000Y-48077500D03*
D22*
X17562520Y-42220020D03*
X15022520Y-42220020D03*
D25*
X153610000Y-38726000D03*
D24*
X153610000Y-36726000D03*
D27*
X85347500Y-77145020D03*
D28*
X85347500Y-92385020D03*
D29*
X27880000Y-46410000D03*
X27880000Y-48410000D03*
X27880000Y-50410000D03*
D27*
X80585000Y-77145020D03*
D28*
X80585000Y-92385020D03*
D27*
X180597500Y-77145020D03*
D28*
X180597500Y-92385020D03*
D27*
X278230020Y-17455020D03*
D28*
X278230020Y-2215020D03*
D27*
X9147500Y-74605020D03*
D28*
X9147500Y-59365020D03*
D27*
X32960000Y-74605020D03*
D28*
X32960000Y-59365020D03*
D27*
X247272500Y-74605020D03*
D28*
X247272500Y-59365020D03*
D27*
X275847500Y-55553750D03*
D28*
X275847500Y-40313750D03*
D27*
X252035000Y-55555020D03*
D28*
X252035000Y-40315020D03*
D27*
X281722520Y-25867500D03*
D28*
X266482520Y-25867500D03*
D27*
X281722520Y-49680000D03*
D28*
X266482520Y-49680000D03*
D27*
X254417520Y-17455020D03*
D28*
X254417520Y-2215020D03*
D27*
X66297500Y-77145020D03*
D28*
X66297500Y-92385020D03*
D27*
X199647500Y-77145020D03*
D28*
X199647500Y-92385020D03*
D27*
X271085000Y-74603750D03*
D28*
X271085000Y-59363750D03*
D22*
X15180000Y-80318750D03*
X274736250Y-42218750D03*
X272196250Y-42218750D03*
X268386250Y-39043750D03*
X268386250Y-36503750D03*
X265052500Y-4118750D03*
X267592500Y-4118750D03*
X12798750Y-61268750D03*
X10258750Y-61268750D03*
X12800020Y-42220020D03*
X10260020Y-42220020D03*
X43755000Y-42218750D03*
X41215000Y-42218750D03*
X62805000Y-42218750D03*
X60265000Y-42218750D03*
X81855000Y-42218750D03*
X79315000Y-42218750D03*
X58042500Y-23168750D03*
X55502500Y-23168750D03*
X274577500Y-61268750D03*
X277117500Y-61268750D03*
X248383750Y-61268750D03*
X250923750Y-61268750D03*
X241240000Y-61268750D03*
X243780000Y-61268750D03*
X257908750Y-61268750D03*
X260448750Y-61268750D03*
X212665000Y-42218750D03*
X215205000Y-42218750D03*
X53280000Y-61268750D03*
X50740000Y-61268750D03*
X34230000Y-61268750D03*
X31690000Y-61268750D03*
X22323750Y-61268750D03*
X19783750Y-61268750D03*
X148530000Y-61268750D03*
X145990000Y-61268750D03*
X129480000Y-61268750D03*
X126940000Y-61268750D03*
X110430000Y-61268750D03*
X107890000Y-61268750D03*
X91380000Y-61268750D03*
X88840000Y-61268750D03*
X231715000Y-42218750D03*
X234255000Y-42218750D03*
X72330000Y-61268750D03*
X69790000Y-61268750D03*
X196155000Y-42218750D03*
X193615000Y-42218750D03*
X177105000Y-42218750D03*
X174565000Y-42218750D03*
X265211250Y-42218750D03*
X262671250Y-42218750D03*
X250765000Y-42218750D03*
X253305000Y-42218750D03*
X167580000Y-61268750D03*
X165040000Y-61268750D03*
X186630000Y-61268750D03*
X184090000Y-61268750D03*
X203140000Y-61268750D03*
X205680000Y-61268750D03*
X222190000Y-61268750D03*
X224730000Y-61268750D03*
X274577500Y-4118750D03*
X277117500Y-4118750D03*
X131861250Y-80318750D03*
X129321250Y-80318750D03*
X236477500Y-4118750D03*
X239017500Y-4118750D03*
X115192500Y-23168750D03*
X112652500Y-23168750D03*
X96142500Y-23168750D03*
X93602500Y-23168750D03*
X217427500Y-4118750D03*
X219967500Y-4118750D03*
X198377500Y-4118750D03*
X200917500Y-4118750D03*
X181867500Y-4118750D03*
X179327500Y-4118750D03*
X162817500Y-4118750D03*
X160277500Y-4118750D03*
X255527500Y-4118750D03*
X258067500Y-4118750D03*
X134242500Y-23168750D03*
X131702500Y-23168750D03*
X67567500Y-4118750D03*
X65027500Y-4118750D03*
X48517500Y-4118750D03*
X45977500Y-4118750D03*
X29467500Y-4118750D03*
X26927500Y-4118750D03*
X143767500Y-4118750D03*
X141227500Y-4118750D03*
X124717500Y-4118750D03*
X122177500Y-4118750D03*
X105667500Y-4118750D03*
X103127500Y-4118750D03*
X86617500Y-4118750D03*
X84077500Y-4118750D03*
X153292500Y-23168750D03*
X150752500Y-23168750D03*
X15180000Y-23168750D03*
X12640000Y-23168750D03*
X38992500Y-23168750D03*
X36452500Y-23168750D03*
X77092500Y-23168750D03*
X74552500Y-23168750D03*
X246002500Y-23168750D03*
X248542500Y-23168750D03*
X269815000Y-23168750D03*
X272355000Y-23168750D03*
X172342500Y-23168750D03*
X169802500Y-23168750D03*
X191392500Y-23168750D03*
X188852500Y-23168750D03*
X207902500Y-23168750D03*
X210442500Y-23168750D03*
X226952500Y-23168750D03*
X229492500Y-23168750D03*
X100905000Y-42218750D03*
X98365000Y-42218750D03*
X119955000Y-42218750D03*
X117415000Y-42218750D03*
X139005000Y-42218750D03*
X136465000Y-42218750D03*
X158055000Y-42218750D03*
X155515000Y-42218750D03*
X143767500Y-80318750D03*
X141227500Y-80318750D03*
X124717500Y-80318750D03*
X122177500Y-80318750D03*
X267433750Y-61268750D03*
X269973750Y-61268750D03*
D17*
X11212520Y-47300020D03*
X21372520Y-47300020D03*
D30*
X20102520Y-49840020D03*
X13752520Y-52380020D03*
D27*
X16292520Y-47300020D03*
D17*
X194567500Y-9200020D03*
X204727500Y-9200020D03*
D30*
X203457500Y-11740020D03*
X197107500Y-14280020D03*
D27*
X199647500Y-9200020D03*
D17*
X89792500Y-28250020D03*
X99952500Y-28250020D03*
D30*
X98682500Y-30790020D03*
X92332500Y-33330020D03*
D27*
X94872500Y-28250020D03*
D17*
X108842500Y-28250020D03*
X119002500Y-28250020D03*
D30*
X117732500Y-30790020D03*
X111382500Y-33330020D03*
D27*
X113922500Y-28250020D03*
D17*
X146942500Y-28250020D03*
X157102500Y-28250020D03*
D30*
X155832500Y-30790020D03*
X149482500Y-33330020D03*
D27*
X152022500Y-28250020D03*
D17*
X165992500Y-28250020D03*
X176152500Y-28250020D03*
D30*
X174882500Y-30790020D03*
X168532500Y-33330020D03*
D27*
X171072500Y-28250020D03*
D17*
X185042500Y-28250020D03*
X195202500Y-28250020D03*
D30*
X193932500Y-30790020D03*
X187582500Y-33330020D03*
D27*
X190122500Y-28250020D03*
D17*
X204092500Y-28250020D03*
X214252500Y-28250020D03*
D30*
X212982500Y-30790020D03*
X206632500Y-33330020D03*
D27*
X209172500Y-28250020D03*
D17*
X223142500Y-28250020D03*
X233302500Y-28250020D03*
D30*
X232032500Y-30790020D03*
X225682500Y-33330020D03*
D27*
X228222500Y-28250020D03*
D17*
X266005000Y-28248750D03*
X276165000Y-28248750D03*
D30*
X274895000Y-30788750D03*
X268545000Y-33328750D03*
D27*
X271085000Y-28248750D03*
D17*
X37405000Y-47300020D03*
X47565000Y-47300020D03*
D30*
X46295000Y-49840020D03*
X39945000Y-52380020D03*
D27*
X42485000Y-47300020D03*
D17*
X56455000Y-47300020D03*
X66615000Y-47300020D03*
D30*
X65345000Y-49840020D03*
X58995000Y-52380020D03*
D27*
X61535000Y-47300020D03*
D17*
X75505000Y-47300020D03*
X85665000Y-47300020D03*
D30*
X84395000Y-49840020D03*
X78045000Y-52380020D03*
D27*
X80585000Y-47300020D03*
D17*
X94555000Y-47300020D03*
X104715000Y-47300020D03*
D30*
X103445000Y-49840020D03*
X97095000Y-52380020D03*
D27*
X99635000Y-47300020D03*
D17*
X113605000Y-47300020D03*
X123765000Y-47300020D03*
D30*
X122495000Y-49840020D03*
X116145000Y-52380020D03*
D27*
X118685000Y-47300020D03*
D17*
X132655000Y-47300020D03*
X142815000Y-47300020D03*
D30*
X141545000Y-49840020D03*
X135195000Y-52380020D03*
D27*
X137735000Y-47300020D03*
D17*
X151705000Y-47300020D03*
X161865000Y-47300020D03*
D30*
X160595000Y-49840020D03*
X154245000Y-52380020D03*
D27*
X156785000Y-47300020D03*
D17*
X42167500Y-9200020D03*
X52327500Y-9200020D03*
D30*
X51057500Y-11740020D03*
X44707500Y-14280020D03*
D27*
X47247500Y-9200020D03*
X66297500Y-9200020D03*
D30*
X63757500Y-14280020D03*
X70107500Y-11740020D03*
D17*
X71377500Y-9200020D03*
X61217500Y-9200020D03*
X99317500Y-9200020D03*
X109477500Y-9200020D03*
D30*
X108207500Y-11740020D03*
X101857500Y-14280020D03*
D27*
X104397500Y-9200020D03*
D17*
X118367500Y-9200020D03*
X128527500Y-9200020D03*
D30*
X127257500Y-11740020D03*
X120907500Y-14280020D03*
D27*
X123447500Y-9200020D03*
D17*
X137417500Y-9200020D03*
X147577500Y-9200020D03*
D30*
X146307500Y-11740020D03*
X139957500Y-14280020D03*
D27*
X142497500Y-9200020D03*
D17*
X156467500Y-9200020D03*
X166627500Y-9200020D03*
D30*
X165357500Y-11740020D03*
X159007500Y-14280020D03*
D27*
X161547500Y-9200020D03*
D17*
X213617500Y-9200020D03*
X223777500Y-9200020D03*
D30*
X222507500Y-11740020D03*
X216157500Y-14280020D03*
D27*
X218697500Y-9200020D03*
D17*
X232667500Y-9200020D03*
X242827500Y-9200020D03*
D30*
X241557500Y-11740020D03*
X235207500Y-14280020D03*
D27*
X237747500Y-9200020D03*
D17*
X261242500Y-9200020D03*
X271402500Y-9200020D03*
D30*
X270132500Y-11740020D03*
X263782500Y-14280020D03*
D27*
X266322500Y-9200020D03*
D17*
X8830000Y-28250020D03*
X18990000Y-28250020D03*
D30*
X17720000Y-30790020D03*
X11370000Y-33330020D03*
D27*
X13910000Y-28250020D03*
D17*
X32642500Y-28250020D03*
X42802500Y-28250020D03*
D30*
X41532500Y-30790020D03*
X35182500Y-33330020D03*
D27*
X37722500Y-28250020D03*
D17*
X51692500Y-28250020D03*
X61852500Y-28250020D03*
D30*
X60582500Y-30790020D03*
X54232500Y-33330020D03*
D27*
X56772500Y-28250020D03*
D17*
X70742500Y-28250020D03*
X80902500Y-28250020D03*
D30*
X79632500Y-30790020D03*
X73282500Y-33330020D03*
D27*
X75822500Y-28250020D03*
D17*
X254100020Y-66350020D03*
X264260020Y-66350020D03*
D30*
X262990020Y-68890020D03*
X256640020Y-71430020D03*
D27*
X259180020Y-66350020D03*
D17*
X6448750Y-85398750D03*
X16608750Y-85398750D03*
D30*
X15338750Y-87938750D03*
X8988750Y-90478750D03*
D27*
X11528750Y-85398750D03*
D17*
X54073750Y-85398750D03*
X64233750Y-85398750D03*
D30*
X62963750Y-87938750D03*
X56613750Y-90478750D03*
D27*
X59153750Y-85398750D03*
D17*
X125511250Y-85398750D03*
X135671250Y-85398750D03*
D30*
X134401250Y-87938750D03*
X128051250Y-90478750D03*
D27*
X130591250Y-85398750D03*
D17*
X196948750Y-85398750D03*
X207108750Y-85398750D03*
D30*
X205838750Y-87938750D03*
X199488750Y-90478750D03*
D27*
X202028750Y-85398750D03*
D17*
X220761250Y-85398750D03*
X230921250Y-85398750D03*
D30*
X229651250Y-87938750D03*
X223301250Y-90478750D03*
D27*
X225841250Y-85398750D03*
D17*
X244573750Y-85398750D03*
X254733750Y-85398750D03*
D30*
X253463750Y-87938750D03*
X247113750Y-90478750D03*
D27*
X249653750Y-85398750D03*
D17*
X268386250Y-85398750D03*
X278546250Y-85398750D03*
D30*
X277276250Y-87938750D03*
X270926250Y-90478750D03*
D27*
X273466250Y-85398750D03*
D17*
X170755000Y-47300020D03*
X180915000Y-47300020D03*
D30*
X179645000Y-49840020D03*
X173295000Y-52380020D03*
D27*
X175835000Y-47300020D03*
D17*
X189805000Y-47300020D03*
X199965000Y-47300020D03*
D30*
X198695000Y-49840020D03*
X192345000Y-52380020D03*
D27*
X194885000Y-47300020D03*
D17*
X227905000Y-47300020D03*
X238065000Y-47300020D03*
D30*
X236795000Y-49840020D03*
X230445000Y-52380020D03*
D27*
X232985000Y-47300020D03*
D17*
X258861250Y-47298750D03*
X269021250Y-47298750D03*
D30*
X267751250Y-49838750D03*
X261401250Y-52378750D03*
D27*
X263941250Y-47298750D03*
D17*
X15973750Y-66348750D03*
X26133750Y-66348750D03*
D30*
X24863750Y-68888750D03*
X18513750Y-71428750D03*
D27*
X21053750Y-66348750D03*
D17*
X46930000Y-66350020D03*
X57090000Y-66350020D03*
D30*
X55820000Y-68890020D03*
X49470000Y-71430020D03*
D27*
X52010000Y-66350020D03*
D17*
X65980000Y-66350020D03*
X76140000Y-66350020D03*
D30*
X74870000Y-68890020D03*
X68520000Y-71430020D03*
D27*
X71060000Y-66350020D03*
D17*
X104080000Y-66350020D03*
X114240000Y-66350020D03*
D30*
X112970000Y-68890020D03*
X106620000Y-71430020D03*
D27*
X109160000Y-66350020D03*
D17*
X123130000Y-66350020D03*
X133290000Y-66350020D03*
D30*
X132020000Y-68890020D03*
X125670000Y-71430020D03*
D27*
X128210000Y-66350020D03*
D17*
X142180000Y-66350020D03*
X152340000Y-66350020D03*
D30*
X151070000Y-68890020D03*
X144720000Y-71430020D03*
D27*
X147260000Y-66350020D03*
D17*
X161230000Y-66350020D03*
X171390000Y-66350020D03*
D30*
X170120000Y-68890020D03*
X163770000Y-71430020D03*
D27*
X166310000Y-66350020D03*
D17*
X180280000Y-66350020D03*
X190440000Y-66350020D03*
D30*
X189170000Y-68890020D03*
X182820000Y-71430020D03*
D27*
X185360000Y-66350020D03*
D17*
X199330000Y-66350020D03*
X209490000Y-66350020D03*
D30*
X208220000Y-68890020D03*
X201870000Y-71430020D03*
D27*
X204410000Y-66350020D03*
D17*
X218380000Y-66350020D03*
X228540000Y-66350020D03*
D30*
X227270000Y-68890020D03*
X220920000Y-71430020D03*
D27*
X223460000Y-66350020D03*
D17*
X30261250Y-85398750D03*
X40421250Y-85398750D03*
D30*
X39151250Y-87938750D03*
X32801250Y-90478750D03*
D27*
X35341250Y-85398750D03*
D17*
X85030000Y-66350020D03*
X95190000Y-66350020D03*
D30*
X93920000Y-68890020D03*
X87570000Y-71430020D03*
D27*
X90110000Y-66350020D03*
D17*
X80267500Y-9200020D03*
X90427500Y-9200020D03*
D30*
X89157500Y-11740020D03*
X82807500Y-14280020D03*
D27*
X85347500Y-9200020D03*
D17*
X175517500Y-9200020D03*
X185677500Y-9200020D03*
D30*
X184407500Y-11740020D03*
X178057500Y-14280020D03*
D27*
X180597500Y-9200020D03*
D17*
X242192500Y-28250020D03*
X252352500Y-28250020D03*
D30*
X251082500Y-30790020D03*
X244732500Y-33330020D03*
D27*
X247272500Y-28250020D03*
D17*
X127892500Y-28250020D03*
X138052500Y-28250020D03*
D30*
X136782500Y-30790020D03*
X130432500Y-33330020D03*
D27*
X132972500Y-28250020D03*
D17*
X208855000Y-47300020D03*
X219015000Y-47300020D03*
D30*
X217745000Y-49840020D03*
X211395000Y-52380020D03*
D27*
X213935000Y-47300020D03*
D22*
X10417500Y-4118750D03*
X7877500Y-4118750D03*
D27*
X273466250Y-47298750D03*
D30*
X270926250Y-52378750D03*
X277276250Y-49838750D03*
D17*
X278546250Y-47298750D03*
X268386250Y-47298750D03*
X218380000Y-85398750D03*
X228540000Y-85398750D03*
D30*
X227270000Y-87938750D03*
X220920000Y-90478750D03*
D27*
X223460000Y-85398750D03*
D17*
X27880000Y-66350020D03*
X38040000Y-66350020D03*
D30*
X36770000Y-68890020D03*
X30420000Y-71430020D03*
D27*
X32960000Y-66350020D03*
D17*
X270767500Y-66348750D03*
X280927500Y-66348750D03*
D30*
X279657500Y-68888750D03*
X273307500Y-71428750D03*
D27*
X275847500Y-66348750D03*
D17*
X8830000Y-85367000D03*
X18990000Y-85367000D03*
D30*
X17720000Y-87907000D03*
X11370000Y-90447000D03*
D27*
X13910000Y-85367000D03*
D17*
X37405000Y-85367000D03*
X47565000Y-85367000D03*
D30*
X46295000Y-87907000D03*
X39945000Y-90447000D03*
D27*
X42485000Y-85367000D03*
D17*
X32706000Y-85367000D03*
X42866000Y-85367000D03*
D30*
X41596000Y-87907000D03*
X35246000Y-90447000D03*
D27*
X37786000Y-85367000D03*
D17*
X199330000Y-85398750D03*
X209490000Y-85398750D03*
D30*
X208220000Y-87938750D03*
X201870000Y-90478750D03*
D27*
X204410000Y-85398750D03*
D17*
X223142500Y-85398750D03*
X233302500Y-85398750D03*
D30*
X232032500Y-87938750D03*
X225682500Y-90478750D03*
D27*
X228222500Y-85398750D03*
D17*
X56455000Y-85367000D03*
X66615000Y-85367000D03*
D30*
X65345000Y-87907000D03*
X58995000Y-90447000D03*
D27*
X61535000Y-85367000D03*
D17*
X242192500Y-85398750D03*
X252352500Y-85398750D03*
D30*
X251082500Y-87938750D03*
X244732500Y-90478750D03*
D27*
X247272500Y-85398750D03*
D17*
X266005000Y-85398750D03*
X276165000Y-85398750D03*
D30*
X274895000Y-87938750D03*
X268545000Y-90478750D03*
D27*
X271085000Y-85398750D03*
D17*
X137417500Y-85400020D03*
X147577500Y-85400020D03*
D30*
X146307500Y-87940020D03*
X139957500Y-90480020D03*
D27*
X142497500Y-85400020D03*
D17*
X118367500Y-85398750D03*
X128527500Y-85398750D03*
D30*
X127257500Y-87938750D03*
X120907500Y-90478750D03*
D27*
X123447500Y-85398750D03*
D17*
X6450020Y-66350020D03*
X16610020Y-66350020D03*
D30*
X15340020Y-68890020D03*
X8990020Y-71430020D03*
D27*
X11530020Y-66350020D03*
D17*
X263623750Y-66348750D03*
X273783750Y-66348750D03*
D30*
X272513750Y-68888750D03*
X266163750Y-71428750D03*
D27*
X268703750Y-66348750D03*
D17*
X6450020Y-47300020D03*
X16610020Y-47300020D03*
D30*
X15340020Y-49840020D03*
X8990020Y-52380020D03*
D27*
X11530020Y-47300020D03*
D17*
X251717500Y-9198750D03*
X261877500Y-9198750D03*
D30*
X260607500Y-11738750D03*
X254257500Y-14278750D03*
D27*
X256797500Y-9198750D03*
D17*
X270767500Y-9198750D03*
X280927500Y-9198750D03*
D30*
X279657500Y-11738750D03*
X273307500Y-14278750D03*
D27*
X275847500Y-9198750D03*
D17*
X23117500Y-9198750D03*
X33277500Y-9198750D03*
D30*
X32007500Y-11738750D03*
X25657500Y-14278750D03*
D27*
X28197500Y-9198750D03*
D17*
X4067500Y-9198750D03*
X14227500Y-9198750D03*
D30*
X12957500Y-11738750D03*
X6607500Y-14278750D03*
D27*
X9147500Y-9198750D03*
D17*
X273466250Y-42853750D03*
X273466250Y-32693750D03*
D30*
X276006250Y-33963750D03*
X278546250Y-40313750D03*
D27*
X273466250Y-37773750D03*
D17*
X244573750Y-66348750D03*
X254733750Y-66348750D03*
D30*
X253463750Y-68888750D03*
X247113750Y-71428750D03*
D27*
X249653750Y-66348750D03*
D17*
X237430000Y-66348750D03*
X247590000Y-66348750D03*
D30*
X246320000Y-68831600D03*
X239970000Y-71428750D03*
D27*
X242510000Y-66348750D03*
D17*
X246955000Y-47300020D03*
X257115000Y-47300020D03*
D30*
X255845000Y-49840020D03*
X249495000Y-52380020D03*
D27*
X252035000Y-47300020D03*
D22*
X12798750Y-80318750D03*
X10258750Y-80318750D03*
X36611250Y-80318750D03*
X34071250Y-80318750D03*
X38992500Y-80318750D03*
X43755000Y-80318750D03*
X41215000Y-80318750D03*
X60423750Y-80318750D03*
X57883750Y-80318750D03*
X62805000Y-80318750D03*
X200758750Y-80318750D03*
X203298750Y-80318750D03*
X205680000Y-80318750D03*
X229492500Y-80318750D03*
X224730000Y-80318750D03*
X222190000Y-80318750D03*
X227111250Y-80318750D03*
X246002500Y-80318750D03*
X248542500Y-80318750D03*
X250923750Y-80318750D03*
X274736250Y-80318750D03*
X272355000Y-80318750D03*
X269815000Y-80318750D03*
M02*
