M48
;DRILL file {KiCad 5.0.0} date Mon Aug 13 13:33:08 2018
;FORMAT={-:-/ absolute / metric / decimal}
FMAT,2
METRIC,TZ
T1C0.400
T2C0.500
T3C0.600
T4C0.700
T5C0.750
T6C0.800
T7C0.850
T8C1.000
T9C1.500
%
G90
G05
M71
T1
X2.48Y-49.426
X4.512Y-52.22
X6.29Y-34.44
X8.83Y-24.534
X11.116Y-21.74
X14.418Y-61.872
X15.942Y-5.484
X16.704Y-6.5
X17.212Y-7.77
X17.72Y-80.16
X18.685Y-17.676
X18.685Y-18.489
X18.838Y-5.484
X19.092Y-16.914
X19.752Y-18.692
X20.768Y-22.756
X21.53Y-71.778
X22.292Y-75.842
X23.562Y-5.484
X24.07Y-41.552
X24.07Y-59.078
X26.102Y-44.346
X26.102Y-61.872
X26.61Y-79.652
X27.626Y-1.166
X28.896Y-34.948
X28.896Y-36.726
X29.404Y-60.602
X29.658Y-25.804
X30.674Y-25.804
X34.992Y-3.706
X34.992Y-20.978
X35.5Y-53.744
X40.58Y-4.722
X40.58Y-23.772
X44.898Y-59.078
X45.152Y-25.804
X47.692Y-74.826
X49.318Y-87.272
X52.772Y-47.14
X54.804Y-73.302
X57.09Y-14.12
X69.79Y-77.62
X69.79Y-87.78
X73.092Y-70.
X82.49Y-34.948
X82.49Y-36.98
X82.49Y-56.792
X83.506Y-34.948
X85.03Y-19.2
X85.03Y-73.302
X85.538Y-18.286
X86.3Y-55.014
X86.351Y-18.286
X86.96Y-19.2
X87.57Y-44.6
X87.57Y-56.538
X87.824Y-79.652
X88.332Y-77.112
X88.84Y-76.35
X89.5Y-75.639
X90.313Y-75.588
X91.126Y-80.922
X94.174Y-77.874
X95.19Y-63.65
X95.2Y-79.144
X96.216Y-80.16
X99.254Y-80.973
X100.27Y-73.302
X101.388Y-87.983
X101.438Y-87.17
X101.489Y-86.358
X101.54Y-85.545
X101.591Y-84.732
X101.642Y-83.919
X101.692Y-83.106
X101.743Y-82.294
X101.794Y-89.304
X102.302Y-71.27
X103.318Y-80.16
X104.08Y-79.398
X104.207Y-89.304
X104.334Y-85.24
X104.842Y-81.811
X105.096Y-79.398
X105.858Y-87.272
X106.112Y-79.398
X106.823Y-17.676
X107.89Y-85.24
X107.89Y-89.304
X108.144Y-78.382
X109.922Y-87.272
X110.125Y-52.372
X111.319Y-57.808
X111.395Y-17.676
X111.446Y-85.24
X111.573Y-81.938
X111.573Y-89.304
X113.986Y-81.049
X114.113Y-92.479
X116.78Y-88.898
X117.796Y-78.128
X117.847Y-78.941
X117.898Y-79.754
X117.948Y-80.566
X117.948Y-91.692
X117.999Y-81.379
X117.999Y-90.879
X118.05Y-82.192
X118.05Y-83.97
X118.05Y-88.491
X118.05Y-90.066
X119.066Y-57.808
X130.496Y-57.808
X134.56Y-60.602
X134.56Y-79.906
X135.322Y-61.872
X135.322Y-80.668
X137.1Y-58.57
X145.736Y-57.808
X151.07Y-16.66
X152.34Y-83.716
X154.88Y-81.938
X156.15Y-87.78
X157.42Y-63.65
X158.69Y-86.51
X166.31Y-63.65
X168.342Y-75.334
X168.85Y-82.7
X170.12Y-81.43
X170.12Y-82.7
X170.12Y-84.605
X170.12Y-85.875
X171.39Y-6.5
X172.66Y-58.062
X172.66Y-75.334
X172.66Y-82.065
X172.66Y-83.335
X172.66Y-84.605
X172.66Y-85.875
X172.66Y-87.145
X173.778Y-86.51
X175.2Y-83.335
X175.2Y-85.875
X177.74Y-85.24
X177.74Y-86.51
X181.55Y-36.98
X182.82Y-20.216
X183.836Y-58.062
X184.09Y-38.758
X184.852Y-89.558
X190.948Y-1.42
X209.49Y-14.12
X209.49Y-36.98
X213.3Y-73.048
X216.094Y-60.856
X216.094Y-79.652
X216.856Y-63.65
X216.856Y-80.922
X217.11Y-57.3
X230.572Y-74.572
X233.112Y-59.078
X234.89Y-17.676
X236.414Y-87.272
X237.43Y-75.842
X250.13Y-2.69
X258.766Y-74.826
X260.29Y-36.98
X266.64Y-1.42
X268.418Y-42.822
X272.228Y-20.978
T2
X79.696Y-71.27
X81.596Y-71.27
T4
X27.88Y-46.41
X27.88Y-48.41
X27.88Y-50.41
T5
X153.61Y-36.726
X153.61Y-38.726
X39.31Y-36.726
X39.31Y-38.726
T6
X117.415Y-42.219
X119.955Y-42.219
X60.265Y-42.219
X62.805Y-42.219
X246.002Y-23.169
X248.542Y-23.169
X229.492Y-80.319
X274.736Y-80.319
X274.577Y-61.269
X277.118Y-61.269
X50.74Y-61.269
X53.28Y-61.269
X174.565Y-42.219
X177.105Y-42.219
X79.315Y-42.219
X81.855Y-42.219
X200.759Y-80.319
X203.299Y-80.319
X93.602Y-23.169
X96.142Y-23.169
X274.577Y-4.119
X277.118Y-4.119
X31.69Y-61.269
X34.23Y-61.269
X267.434Y-61.269
X269.974Y-61.269
X250.765Y-42.219
X253.305Y-42.219
X222.19Y-80.319
X224.73Y-80.319
X55.502Y-23.169
X58.042Y-23.169
X269.815Y-23.169
X272.355Y-23.169
X62.805Y-80.319
X7.877Y-4.119
X10.417Y-4.119
X12.64Y-23.169
X15.18Y-23.169
X268.386Y-36.504
X268.386Y-39.044
X112.652Y-23.169
X115.192Y-23.169
X160.278Y-4.119
X162.817Y-4.119
X57.884Y-80.319
X60.424Y-80.319
X217.427Y-4.119
X219.968Y-4.119
X98.365Y-42.219
X100.905Y-42.219
X103.127Y-4.119
X105.667Y-4.119
X122.177Y-4.119
X124.718Y-4.119
X26.927Y-4.119
X29.467Y-4.119
X69.79Y-61.269
X72.33Y-61.269
X272.196Y-42.219
X274.736Y-42.219
X155.515Y-42.219
X158.055Y-42.219
X250.924Y-80.319
X184.09Y-61.269
X186.63Y-61.269
X122.177Y-80.319
X124.718Y-80.319
X10.259Y-61.269
X12.799Y-61.269
X165.04Y-61.269
X167.58Y-61.269
X38.992Y-80.319
X227.111Y-80.319
X236.477Y-4.119
X239.017Y-4.119
X269.815Y-80.319
X272.355Y-80.319
X126.94Y-61.269
X129.48Y-61.269
X74.552Y-23.169
X77.093Y-23.169
X136.465Y-42.219
X139.005Y-42.219
X65.028Y-4.119
X67.567Y-4.119
X145.99Y-61.269
X148.53Y-61.269
X45.977Y-4.119
X48.517Y-4.119
X212.665Y-42.219
X215.205Y-42.219
X131.702Y-23.169
X134.243Y-23.169
X10.26Y-42.22
X12.8Y-42.22
X141.227Y-4.119
X143.767Y-4.119
X15.18Y-80.319
X41.215Y-80.319
X43.755Y-80.319
X188.852Y-23.169
X191.392Y-23.169
X231.715Y-42.219
X234.255Y-42.219
X255.527Y-4.119
X258.067Y-4.119
X15.023Y-42.22
X17.563Y-42.22
X141.227Y-80.319
X143.767Y-80.319
X205.68Y-80.319
X257.909Y-61.269
X260.449Y-61.269
X36.453Y-23.169
X38.992Y-23.169
X262.671Y-42.219
X265.211Y-42.219
X2.48Y-71.27
X2.48Y-81.43
X129.321Y-80.319
X131.861Y-80.319
X84.078Y-4.119
X86.617Y-4.119
X246.002Y-80.319
X248.542Y-80.319
X265.053Y-4.119
X267.592Y-4.119
X107.89Y-61.269
X110.43Y-61.269
X248.384Y-61.269
X250.924Y-61.269
X179.327Y-4.119
X181.867Y-4.119
X34.071Y-80.319
X36.611Y-80.319
X150.752Y-23.169
X153.292Y-23.169
X10.259Y-80.319
X12.799Y-80.319
X226.952Y-23.169
X229.492Y-23.169
X169.802Y-23.169
X172.343Y-23.169
X19.784Y-61.269
X22.324Y-61.269
X241.24Y-61.269
X243.78Y-61.269
X207.903Y-23.169
X210.442Y-23.169
X203.14Y-61.269
X205.68Y-61.269
X222.19Y-61.269
X224.73Y-61.269
X41.215Y-42.219
X43.755Y-42.219
X193.615Y-42.219
X196.155Y-42.219
X88.84Y-61.269
X91.38Y-61.269
X198.377Y-4.119
X200.917Y-4.119
T7
X15.71Y-4.143
X20.71Y-4.143
T8
X2.48Y-24.28
X2.48Y-26.82
X2.48Y-29.36
X2.48Y-31.9
X152.34Y-91.59
X154.88Y-91.59
X157.42Y-91.59
X159.96Y-91.59
X162.5Y-91.59
X165.04Y-91.59
X167.58Y-91.59
X170.12Y-91.59
X172.66Y-91.59
X175.2Y-91.59
T9
X235.207Y-14.28
X241.557Y-11.74
X220.92Y-90.479
X227.27Y-87.939
X144.72Y-71.43
X151.07Y-68.89
X58.995Y-52.38
X65.345Y-49.84
X101.858Y-14.28
X108.207Y-11.74
X211.395Y-52.38
X217.745Y-49.84
X230.445Y-52.38
X236.795Y-49.84
X268.545Y-90.479
X274.895Y-87.939
X187.582Y-33.33
X193.933Y-30.79
X216.157Y-14.28
X222.507Y-11.74
X270.926Y-90.479
X277.276Y-87.939
X56.614Y-90.479
X62.964Y-87.939
X49.47Y-71.43
X55.82Y-68.89
X225.682Y-90.479
X232.032Y-87.939
X82.807Y-14.28
X89.157Y-11.74
X106.62Y-71.43
X112.97Y-68.89
X111.382Y-33.33
X117.733Y-30.79
X163.77Y-71.43
X170.12Y-68.89
X178.058Y-14.28
X184.407Y-11.74
X197.107Y-14.28
X203.457Y-11.74
X135.195Y-52.38
X141.545Y-49.84
X130.433Y-33.33
X136.782Y-30.79
X276.006Y-33.964
X278.546Y-40.314
X206.632Y-33.33
X212.982Y-30.79
X92.332Y-33.33
X98.682Y-30.79
X270.926Y-52.379
X277.276Y-49.839
X73.282Y-33.33
X79.632Y-30.79
X273.308Y-14.279
X279.657Y-11.739
X125.67Y-71.43
X132.02Y-68.89
X201.87Y-90.479
X208.22Y-87.939
X254.257Y-14.279
X260.608Y-11.739
X173.295Y-52.38
X179.645Y-49.84
X11.37Y-90.447
X17.72Y-87.907
X32.801Y-90.479
X39.151Y-87.939
X97.095Y-52.38
X103.445Y-49.84
X11.37Y-33.33
X17.72Y-30.79
X168.532Y-33.33
X174.882Y-30.79
X249.495Y-52.38
X255.845Y-49.84
X54.232Y-33.33
X60.582Y-30.79
X8.99Y-71.43
X15.34Y-68.89
X44.707Y-14.28
X51.057Y-11.74
X268.545Y-33.329
X274.895Y-30.789
X256.64Y-71.43
X262.99Y-68.89
X78.045Y-52.38
X84.395Y-49.84
X8.99Y-52.38
X15.34Y-49.84
X225.682Y-33.33
X232.032Y-30.79
X263.782Y-14.28
X270.132Y-11.74
X273.308Y-71.429
X279.657Y-68.889
X35.182Y-33.33
X41.532Y-30.79
X239.97Y-71.429
X246.32Y-68.832
X182.82Y-71.43
X189.17Y-68.89
X87.57Y-71.43
X93.92Y-68.89
X13.753Y-52.38
X20.103Y-49.84
X154.245Y-52.38
X160.595Y-49.84
X139.957Y-90.48
X146.308Y-87.94
X128.051Y-90.479
X134.401Y-87.939
X244.732Y-33.33
X251.082Y-30.79
X120.907Y-14.28
X127.257Y-11.74
X220.92Y-71.43
X227.27Y-68.89
X25.657Y-14.279
X32.008Y-11.739
X8.989Y-90.479
X15.339Y-87.939
X247.114Y-90.479
X253.464Y-87.939
X149.482Y-33.33
X155.832Y-30.79
X6.607Y-14.279
X12.957Y-11.739
X139.957Y-14.28
X146.308Y-11.74
X30.42Y-71.43
X36.77Y-68.89
X39.945Y-52.38
X46.295Y-49.84
X39.945Y-90.447
X46.295Y-87.907
X18.514Y-71.429
X24.864Y-68.889
X120.907Y-90.479
X127.257Y-87.939
X199.489Y-90.479
X205.839Y-87.939
X116.145Y-52.38
X122.495Y-49.84
X261.401Y-52.379
X267.751Y-49.839
X201.87Y-71.43
X208.22Y-68.89
X68.52Y-71.43
X74.87Y-68.89
X244.732Y-90.479
X251.082Y-87.939
X63.758Y-14.28
X70.108Y-11.74
X192.345Y-52.38
X198.695Y-49.84
X266.164Y-71.429
X272.514Y-68.889
X159.007Y-14.28
X165.357Y-11.74
X223.301Y-90.479
X229.651Y-87.939
X247.114Y-71.429
X253.464Y-68.889
X35.246Y-90.447
X41.596Y-87.907
X58.995Y-90.447
X65.345Y-87.907
T3
X14.71Y-1.792G85X14.71Y-1.093
G05
X21.71Y-1.093G85X21.71Y-1.792
G05
T0
M30
