%TF.GenerationSoftware,KiCad,Pcbnew,5.0.0*%
%TF.CreationDate,2018-08-13T13:33:07+12:00*%
%TF.ProjectId,keyboard,6B6579626F6172642E6B696361645F70,v0.1*%
%TF.SameCoordinates,PX3b67850PY3da05e0*%
%TF.FileFunction,Soldermask,Top*%
%TF.FilePolarity,Negative*%
%FSLAX46Y46*%
G04 Gerber Fmt 4.6, Leading zero omitted, Abs format (unit mm)*
G04 Created by KiCad (PCBNEW 5.0.0) date Mon Aug 13 13:33:07 2018*
%MOMM*%
%LPD*%
G01*
G04 APERTURE LIST*
%ADD10R,0.740000X2.400000*%
%ADD11C,7.000000*%
%ADD12O,10.000000X5.000000*%
%ADD13C,1.700000*%
%ADD14O,1.700000X1.700000*%
%ADD15O,1.200000X1.900000*%
%ADD16C,1.450000*%
%ADD17C,1.000000*%
%ADD18C,1.600000*%
%ADD19O,1.600000X1.600000*%
%ADD20R,1.750000X1.200000*%
%ADD21O,1.750000X1.200000*%
%ADD22C,0.150000*%
%ADD23C,0.975000*%
%ADD24C,4.000000*%
%ADD25C,3.050000*%
%ADD26C,1.200000*%
%ADD27C,2.500000*%
G04 APERTURE END LIST*
D10*
X161230000Y-80750000D03*
X161230000Y-84650000D03*
X159960000Y-80750000D03*
X159960000Y-84650000D03*
X158690000Y-80750000D03*
X158690000Y-84650000D03*
X157420000Y-80750000D03*
X157420000Y-84650000D03*
X156150000Y-80750000D03*
X156150000Y-84650000D03*
D11*
X25199300Y-27900800D03*
D12*
X283541200Y-56501200D03*
X1410000Y-56501200D03*
D11*
X260049900Y-27900800D03*
X190499400Y-85200700D03*
X128200000Y-47000000D03*
D13*
X2480000Y-24280000D03*
D14*
X2480000Y-26820000D03*
X2480000Y-29360000D03*
D13*
X2480000Y-31900000D03*
X152340000Y-91590000D03*
D14*
X154880000Y-91590000D03*
X157420000Y-91590000D03*
X159960000Y-91590000D03*
X162500000Y-91590000D03*
X165040000Y-91590000D03*
X167580000Y-91590000D03*
X170120000Y-91590000D03*
X172660000Y-91590000D03*
X175200000Y-91590000D03*
D15*
X21710000Y-1442500D03*
X14710000Y-1442500D03*
D16*
X20710000Y-4142500D03*
X15710000Y-4142500D03*
D17*
X79696000Y-71270000D03*
X81596000Y-71270000D03*
D18*
X2480000Y-71270000D03*
D19*
X2480000Y-81430000D03*
D20*
X39310000Y-36726000D03*
D21*
X39310000Y-38726000D03*
D22*
G36*
X2960142Y-45716174D02*
X2983803Y-45719684D01*
X3007007Y-45725496D01*
X3029529Y-45733554D01*
X3051153Y-45743782D01*
X3071670Y-45756079D01*
X3090883Y-45770329D01*
X3108607Y-45786393D01*
X3124671Y-45804117D01*
X3138921Y-45823330D01*
X3151218Y-45843847D01*
X3161446Y-45865471D01*
X3169504Y-45887993D01*
X3175316Y-45911197D01*
X3178826Y-45934858D01*
X3180000Y-45958750D01*
X3180000Y-46446250D01*
X3178826Y-46470142D01*
X3175316Y-46493803D01*
X3169504Y-46517007D01*
X3161446Y-46539529D01*
X3151218Y-46561153D01*
X3138921Y-46581670D01*
X3124671Y-46600883D01*
X3108607Y-46618607D01*
X3090883Y-46634671D01*
X3071670Y-46648921D01*
X3051153Y-46661218D01*
X3029529Y-46671446D01*
X3007007Y-46679504D01*
X2983803Y-46685316D01*
X2960142Y-46688826D01*
X2936250Y-46690000D01*
X2023750Y-46690000D01*
X1999858Y-46688826D01*
X1976197Y-46685316D01*
X1952993Y-46679504D01*
X1930471Y-46671446D01*
X1908847Y-46661218D01*
X1888330Y-46648921D01*
X1869117Y-46634671D01*
X1851393Y-46618607D01*
X1835329Y-46600883D01*
X1821079Y-46581670D01*
X1808782Y-46561153D01*
X1798554Y-46539529D01*
X1790496Y-46517007D01*
X1784684Y-46493803D01*
X1781174Y-46470142D01*
X1780000Y-46446250D01*
X1780000Y-45958750D01*
X1781174Y-45934858D01*
X1784684Y-45911197D01*
X1790496Y-45887993D01*
X1798554Y-45865471D01*
X1808782Y-45843847D01*
X1821079Y-45823330D01*
X1835329Y-45804117D01*
X1851393Y-45786393D01*
X1869117Y-45770329D01*
X1888330Y-45756079D01*
X1908847Y-45743782D01*
X1930471Y-45733554D01*
X1952993Y-45725496D01*
X1976197Y-45719684D01*
X1999858Y-45716174D01*
X2023750Y-45715000D01*
X2936250Y-45715000D01*
X2960142Y-45716174D01*
X2960142Y-45716174D01*
G37*
D23*
X2480000Y-46202500D03*
D22*
G36*
X2960142Y-47591174D02*
X2983803Y-47594684D01*
X3007007Y-47600496D01*
X3029529Y-47608554D01*
X3051153Y-47618782D01*
X3071670Y-47631079D01*
X3090883Y-47645329D01*
X3108607Y-47661393D01*
X3124671Y-47679117D01*
X3138921Y-47698330D01*
X3151218Y-47718847D01*
X3161446Y-47740471D01*
X3169504Y-47762993D01*
X3175316Y-47786197D01*
X3178826Y-47809858D01*
X3180000Y-47833750D01*
X3180000Y-48321250D01*
X3178826Y-48345142D01*
X3175316Y-48368803D01*
X3169504Y-48392007D01*
X3161446Y-48414529D01*
X3151218Y-48436153D01*
X3138921Y-48456670D01*
X3124671Y-48475883D01*
X3108607Y-48493607D01*
X3090883Y-48509671D01*
X3071670Y-48523921D01*
X3051153Y-48536218D01*
X3029529Y-48546446D01*
X3007007Y-48554504D01*
X2983803Y-48560316D01*
X2960142Y-48563826D01*
X2936250Y-48565000D01*
X2023750Y-48565000D01*
X1999858Y-48563826D01*
X1976197Y-48560316D01*
X1952993Y-48554504D01*
X1930471Y-48546446D01*
X1908847Y-48536218D01*
X1888330Y-48523921D01*
X1869117Y-48509671D01*
X1851393Y-48493607D01*
X1835329Y-48475883D01*
X1821079Y-48456670D01*
X1808782Y-48436153D01*
X1798554Y-48414529D01*
X1790496Y-48392007D01*
X1784684Y-48368803D01*
X1781174Y-48345142D01*
X1780000Y-48321250D01*
X1780000Y-47833750D01*
X1781174Y-47809858D01*
X1784684Y-47786197D01*
X1790496Y-47762993D01*
X1798554Y-47740471D01*
X1808782Y-47718847D01*
X1821079Y-47698330D01*
X1835329Y-47679117D01*
X1851393Y-47661393D01*
X1869117Y-47645329D01*
X1888330Y-47631079D01*
X1908847Y-47618782D01*
X1930471Y-47608554D01*
X1952993Y-47600496D01*
X1976197Y-47594684D01*
X1999858Y-47591174D01*
X2023750Y-47590000D01*
X2936250Y-47590000D01*
X2960142Y-47591174D01*
X2960142Y-47591174D01*
G37*
D23*
X2480000Y-48077500D03*
D18*
X17562520Y-42220020D03*
X15022520Y-42220020D03*
D21*
X153610000Y-38726000D03*
D20*
X153610000Y-36726000D03*
D24*
X85347500Y-77145020D03*
D25*
X85347500Y-92385020D03*
D26*
X27880000Y-46410000D03*
X27880000Y-48410000D03*
X27880000Y-50410000D03*
D24*
X80585000Y-77145020D03*
D25*
X80585000Y-92385020D03*
D24*
X180597500Y-77145020D03*
D25*
X180597500Y-92385020D03*
D24*
X278230020Y-17455020D03*
D25*
X278230020Y-2215020D03*
D24*
X9147500Y-74605020D03*
D25*
X9147500Y-59365020D03*
D24*
X32960000Y-74605020D03*
D25*
X32960000Y-59365020D03*
D24*
X247272500Y-74605020D03*
D25*
X247272500Y-59365020D03*
D24*
X275847500Y-55553750D03*
D25*
X275847500Y-40313750D03*
D24*
X252035000Y-55555020D03*
D25*
X252035000Y-40315020D03*
D24*
X281722520Y-25867500D03*
D25*
X266482520Y-25867500D03*
D24*
X281722520Y-49680000D03*
D25*
X266482520Y-49680000D03*
D24*
X254417520Y-17455020D03*
D25*
X254417520Y-2215020D03*
D24*
X66297500Y-77145020D03*
D25*
X66297500Y-92385020D03*
D24*
X199647500Y-77145020D03*
D25*
X199647500Y-92385020D03*
D24*
X271085000Y-74603750D03*
D25*
X271085000Y-59363750D03*
D18*
X15180000Y-80318750D03*
X274736250Y-42218750D03*
X272196250Y-42218750D03*
X268386250Y-39043750D03*
X268386250Y-36503750D03*
X265052500Y-4118750D03*
X267592500Y-4118750D03*
X12798750Y-61268750D03*
X10258750Y-61268750D03*
X12800020Y-42220020D03*
X10260020Y-42220020D03*
X43755000Y-42218750D03*
X41215000Y-42218750D03*
X62805000Y-42218750D03*
X60265000Y-42218750D03*
X81855000Y-42218750D03*
X79315000Y-42218750D03*
X58042500Y-23168750D03*
X55502500Y-23168750D03*
X274577500Y-61268750D03*
X277117500Y-61268750D03*
X248383750Y-61268750D03*
X250923750Y-61268750D03*
X241240000Y-61268750D03*
X243780000Y-61268750D03*
X257908750Y-61268750D03*
X260448750Y-61268750D03*
X212665000Y-42218750D03*
X215205000Y-42218750D03*
X53280000Y-61268750D03*
X50740000Y-61268750D03*
X34230000Y-61268750D03*
X31690000Y-61268750D03*
X22323750Y-61268750D03*
X19783750Y-61268750D03*
X148530000Y-61268750D03*
X145990000Y-61268750D03*
X129480000Y-61268750D03*
X126940000Y-61268750D03*
X110430000Y-61268750D03*
X107890000Y-61268750D03*
X91380000Y-61268750D03*
X88840000Y-61268750D03*
X231715000Y-42218750D03*
X234255000Y-42218750D03*
X72330000Y-61268750D03*
X69790000Y-61268750D03*
X196155000Y-42218750D03*
X193615000Y-42218750D03*
X177105000Y-42218750D03*
X174565000Y-42218750D03*
X265211250Y-42218750D03*
X262671250Y-42218750D03*
X250765000Y-42218750D03*
X253305000Y-42218750D03*
X167580000Y-61268750D03*
X165040000Y-61268750D03*
X186630000Y-61268750D03*
X184090000Y-61268750D03*
X203140000Y-61268750D03*
X205680000Y-61268750D03*
X222190000Y-61268750D03*
X224730000Y-61268750D03*
X274577500Y-4118750D03*
X277117500Y-4118750D03*
X131861250Y-80318750D03*
X129321250Y-80318750D03*
X236477500Y-4118750D03*
X239017500Y-4118750D03*
X115192500Y-23168750D03*
X112652500Y-23168750D03*
X96142500Y-23168750D03*
X93602500Y-23168750D03*
X217427500Y-4118750D03*
X219967500Y-4118750D03*
X198377500Y-4118750D03*
X200917500Y-4118750D03*
X181867500Y-4118750D03*
X179327500Y-4118750D03*
X162817500Y-4118750D03*
X160277500Y-4118750D03*
X255527500Y-4118750D03*
X258067500Y-4118750D03*
X134242500Y-23168750D03*
X131702500Y-23168750D03*
X67567500Y-4118750D03*
X65027500Y-4118750D03*
X48517500Y-4118750D03*
X45977500Y-4118750D03*
X29467500Y-4118750D03*
X26927500Y-4118750D03*
X143767500Y-4118750D03*
X141227500Y-4118750D03*
X124717500Y-4118750D03*
X122177500Y-4118750D03*
X105667500Y-4118750D03*
X103127500Y-4118750D03*
X86617500Y-4118750D03*
X84077500Y-4118750D03*
X153292500Y-23168750D03*
X150752500Y-23168750D03*
X15180000Y-23168750D03*
X12640000Y-23168750D03*
X38992500Y-23168750D03*
X36452500Y-23168750D03*
X77092500Y-23168750D03*
X74552500Y-23168750D03*
X246002500Y-23168750D03*
X248542500Y-23168750D03*
X269815000Y-23168750D03*
X272355000Y-23168750D03*
X172342500Y-23168750D03*
X169802500Y-23168750D03*
X191392500Y-23168750D03*
X188852500Y-23168750D03*
X207902500Y-23168750D03*
X210442500Y-23168750D03*
X226952500Y-23168750D03*
X229492500Y-23168750D03*
X100905000Y-42218750D03*
X98365000Y-42218750D03*
X119955000Y-42218750D03*
X117415000Y-42218750D03*
X139005000Y-42218750D03*
X136465000Y-42218750D03*
X158055000Y-42218750D03*
X155515000Y-42218750D03*
X143767500Y-80318750D03*
X141227500Y-80318750D03*
X124717500Y-80318750D03*
X122177500Y-80318750D03*
X267433750Y-61268750D03*
X269973750Y-61268750D03*
D13*
X11212520Y-47300020D03*
X21372520Y-47300020D03*
D27*
X20102520Y-49840020D03*
X13752520Y-52380020D03*
D24*
X16292520Y-47300020D03*
D13*
X194567500Y-9200020D03*
X204727500Y-9200020D03*
D27*
X203457500Y-11740020D03*
X197107500Y-14280020D03*
D24*
X199647500Y-9200020D03*
D13*
X89792500Y-28250020D03*
X99952500Y-28250020D03*
D27*
X98682500Y-30790020D03*
X92332500Y-33330020D03*
D24*
X94872500Y-28250020D03*
D13*
X108842500Y-28250020D03*
X119002500Y-28250020D03*
D27*
X117732500Y-30790020D03*
X111382500Y-33330020D03*
D24*
X113922500Y-28250020D03*
D13*
X146942500Y-28250020D03*
X157102500Y-28250020D03*
D27*
X155832500Y-30790020D03*
X149482500Y-33330020D03*
D24*
X152022500Y-28250020D03*
D13*
X165992500Y-28250020D03*
X176152500Y-28250020D03*
D27*
X174882500Y-30790020D03*
X168532500Y-33330020D03*
D24*
X171072500Y-28250020D03*
D13*
X185042500Y-28250020D03*
X195202500Y-28250020D03*
D27*
X193932500Y-30790020D03*
X187582500Y-33330020D03*
D24*
X190122500Y-28250020D03*
D13*
X204092500Y-28250020D03*
X214252500Y-28250020D03*
D27*
X212982500Y-30790020D03*
X206632500Y-33330020D03*
D24*
X209172500Y-28250020D03*
D13*
X223142500Y-28250020D03*
X233302500Y-28250020D03*
D27*
X232032500Y-30790020D03*
X225682500Y-33330020D03*
D24*
X228222500Y-28250020D03*
D13*
X266005000Y-28248750D03*
X276165000Y-28248750D03*
D27*
X274895000Y-30788750D03*
X268545000Y-33328750D03*
D24*
X271085000Y-28248750D03*
D13*
X37405000Y-47300020D03*
X47565000Y-47300020D03*
D27*
X46295000Y-49840020D03*
X39945000Y-52380020D03*
D24*
X42485000Y-47300020D03*
D13*
X56455000Y-47300020D03*
X66615000Y-47300020D03*
D27*
X65345000Y-49840020D03*
X58995000Y-52380020D03*
D24*
X61535000Y-47300020D03*
D13*
X75505000Y-47300020D03*
X85665000Y-47300020D03*
D27*
X84395000Y-49840020D03*
X78045000Y-52380020D03*
D24*
X80585000Y-47300020D03*
D13*
X94555000Y-47300020D03*
X104715000Y-47300020D03*
D27*
X103445000Y-49840020D03*
X97095000Y-52380020D03*
D24*
X99635000Y-47300020D03*
D13*
X113605000Y-47300020D03*
X123765000Y-47300020D03*
D27*
X122495000Y-49840020D03*
X116145000Y-52380020D03*
D24*
X118685000Y-47300020D03*
D13*
X132655000Y-47300020D03*
X142815000Y-47300020D03*
D27*
X141545000Y-49840020D03*
X135195000Y-52380020D03*
D24*
X137735000Y-47300020D03*
D13*
X151705000Y-47300020D03*
X161865000Y-47300020D03*
D27*
X160595000Y-49840020D03*
X154245000Y-52380020D03*
D24*
X156785000Y-47300020D03*
D13*
X42167500Y-9200020D03*
X52327500Y-9200020D03*
D27*
X51057500Y-11740020D03*
X44707500Y-14280020D03*
D24*
X47247500Y-9200020D03*
X66297500Y-9200020D03*
D27*
X63757500Y-14280020D03*
X70107500Y-11740020D03*
D13*
X71377500Y-9200020D03*
X61217500Y-9200020D03*
X99317500Y-9200020D03*
X109477500Y-9200020D03*
D27*
X108207500Y-11740020D03*
X101857500Y-14280020D03*
D24*
X104397500Y-9200020D03*
D13*
X118367500Y-9200020D03*
X128527500Y-9200020D03*
D27*
X127257500Y-11740020D03*
X120907500Y-14280020D03*
D24*
X123447500Y-9200020D03*
D13*
X137417500Y-9200020D03*
X147577500Y-9200020D03*
D27*
X146307500Y-11740020D03*
X139957500Y-14280020D03*
D24*
X142497500Y-9200020D03*
D13*
X156467500Y-9200020D03*
X166627500Y-9200020D03*
D27*
X165357500Y-11740020D03*
X159007500Y-14280020D03*
D24*
X161547500Y-9200020D03*
D13*
X213617500Y-9200020D03*
X223777500Y-9200020D03*
D27*
X222507500Y-11740020D03*
X216157500Y-14280020D03*
D24*
X218697500Y-9200020D03*
D13*
X232667500Y-9200020D03*
X242827500Y-9200020D03*
D27*
X241557500Y-11740020D03*
X235207500Y-14280020D03*
D24*
X237747500Y-9200020D03*
D13*
X261242500Y-9200020D03*
X271402500Y-9200020D03*
D27*
X270132500Y-11740020D03*
X263782500Y-14280020D03*
D24*
X266322500Y-9200020D03*
D13*
X8830000Y-28250020D03*
X18990000Y-28250020D03*
D27*
X17720000Y-30790020D03*
X11370000Y-33330020D03*
D24*
X13910000Y-28250020D03*
D13*
X32642500Y-28250020D03*
X42802500Y-28250020D03*
D27*
X41532500Y-30790020D03*
X35182500Y-33330020D03*
D24*
X37722500Y-28250020D03*
D13*
X51692500Y-28250020D03*
X61852500Y-28250020D03*
D27*
X60582500Y-30790020D03*
X54232500Y-33330020D03*
D24*
X56772500Y-28250020D03*
D13*
X70742500Y-28250020D03*
X80902500Y-28250020D03*
D27*
X79632500Y-30790020D03*
X73282500Y-33330020D03*
D24*
X75822500Y-28250020D03*
D13*
X254100020Y-66350020D03*
X264260020Y-66350020D03*
D27*
X262990020Y-68890020D03*
X256640020Y-71430020D03*
D24*
X259180020Y-66350020D03*
D13*
X6448750Y-85398750D03*
X16608750Y-85398750D03*
D27*
X15338750Y-87938750D03*
X8988750Y-90478750D03*
D24*
X11528750Y-85398750D03*
D13*
X54073750Y-85398750D03*
X64233750Y-85398750D03*
D27*
X62963750Y-87938750D03*
X56613750Y-90478750D03*
D24*
X59153750Y-85398750D03*
D13*
X125511250Y-85398750D03*
X135671250Y-85398750D03*
D27*
X134401250Y-87938750D03*
X128051250Y-90478750D03*
D24*
X130591250Y-85398750D03*
D13*
X196948750Y-85398750D03*
X207108750Y-85398750D03*
D27*
X205838750Y-87938750D03*
X199488750Y-90478750D03*
D24*
X202028750Y-85398750D03*
D13*
X220761250Y-85398750D03*
X230921250Y-85398750D03*
D27*
X229651250Y-87938750D03*
X223301250Y-90478750D03*
D24*
X225841250Y-85398750D03*
D13*
X244573750Y-85398750D03*
X254733750Y-85398750D03*
D27*
X253463750Y-87938750D03*
X247113750Y-90478750D03*
D24*
X249653750Y-85398750D03*
D13*
X268386250Y-85398750D03*
X278546250Y-85398750D03*
D27*
X277276250Y-87938750D03*
X270926250Y-90478750D03*
D24*
X273466250Y-85398750D03*
D13*
X170755000Y-47300020D03*
X180915000Y-47300020D03*
D27*
X179645000Y-49840020D03*
X173295000Y-52380020D03*
D24*
X175835000Y-47300020D03*
D13*
X189805000Y-47300020D03*
X199965000Y-47300020D03*
D27*
X198695000Y-49840020D03*
X192345000Y-52380020D03*
D24*
X194885000Y-47300020D03*
D13*
X227905000Y-47300020D03*
X238065000Y-47300020D03*
D27*
X236795000Y-49840020D03*
X230445000Y-52380020D03*
D24*
X232985000Y-47300020D03*
D13*
X258861250Y-47298750D03*
X269021250Y-47298750D03*
D27*
X267751250Y-49838750D03*
X261401250Y-52378750D03*
D24*
X263941250Y-47298750D03*
D13*
X15973750Y-66348750D03*
X26133750Y-66348750D03*
D27*
X24863750Y-68888750D03*
X18513750Y-71428750D03*
D24*
X21053750Y-66348750D03*
D13*
X46930000Y-66350020D03*
X57090000Y-66350020D03*
D27*
X55820000Y-68890020D03*
X49470000Y-71430020D03*
D24*
X52010000Y-66350020D03*
D13*
X65980000Y-66350020D03*
X76140000Y-66350020D03*
D27*
X74870000Y-68890020D03*
X68520000Y-71430020D03*
D24*
X71060000Y-66350020D03*
D13*
X104080000Y-66350020D03*
X114240000Y-66350020D03*
D27*
X112970000Y-68890020D03*
X106620000Y-71430020D03*
D24*
X109160000Y-66350020D03*
D13*
X123130000Y-66350020D03*
X133290000Y-66350020D03*
D27*
X132020000Y-68890020D03*
X125670000Y-71430020D03*
D24*
X128210000Y-66350020D03*
D13*
X142180000Y-66350020D03*
X152340000Y-66350020D03*
D27*
X151070000Y-68890020D03*
X144720000Y-71430020D03*
D24*
X147260000Y-66350020D03*
D13*
X161230000Y-66350020D03*
X171390000Y-66350020D03*
D27*
X170120000Y-68890020D03*
X163770000Y-71430020D03*
D24*
X166310000Y-66350020D03*
D13*
X180280000Y-66350020D03*
X190440000Y-66350020D03*
D27*
X189170000Y-68890020D03*
X182820000Y-71430020D03*
D24*
X185360000Y-66350020D03*
D13*
X199330000Y-66350020D03*
X209490000Y-66350020D03*
D27*
X208220000Y-68890020D03*
X201870000Y-71430020D03*
D24*
X204410000Y-66350020D03*
D13*
X218380000Y-66350020D03*
X228540000Y-66350020D03*
D27*
X227270000Y-68890020D03*
X220920000Y-71430020D03*
D24*
X223460000Y-66350020D03*
D13*
X30261250Y-85398750D03*
X40421250Y-85398750D03*
D27*
X39151250Y-87938750D03*
X32801250Y-90478750D03*
D24*
X35341250Y-85398750D03*
D13*
X85030000Y-66350020D03*
X95190000Y-66350020D03*
D27*
X93920000Y-68890020D03*
X87570000Y-71430020D03*
D24*
X90110000Y-66350020D03*
D13*
X80267500Y-9200020D03*
X90427500Y-9200020D03*
D27*
X89157500Y-11740020D03*
X82807500Y-14280020D03*
D24*
X85347500Y-9200020D03*
D13*
X175517500Y-9200020D03*
X185677500Y-9200020D03*
D27*
X184407500Y-11740020D03*
X178057500Y-14280020D03*
D24*
X180597500Y-9200020D03*
D13*
X242192500Y-28250020D03*
X252352500Y-28250020D03*
D27*
X251082500Y-30790020D03*
X244732500Y-33330020D03*
D24*
X247272500Y-28250020D03*
D13*
X127892500Y-28250020D03*
X138052500Y-28250020D03*
D27*
X136782500Y-30790020D03*
X130432500Y-33330020D03*
D24*
X132972500Y-28250020D03*
D13*
X208855000Y-47300020D03*
X219015000Y-47300020D03*
D27*
X217745000Y-49840020D03*
X211395000Y-52380020D03*
D24*
X213935000Y-47300020D03*
D18*
X10417500Y-4118750D03*
X7877500Y-4118750D03*
D24*
X273466250Y-47298750D03*
D27*
X270926250Y-52378750D03*
X277276250Y-49838750D03*
D13*
X278546250Y-47298750D03*
X268386250Y-47298750D03*
X218380000Y-85398750D03*
X228540000Y-85398750D03*
D27*
X227270000Y-87938750D03*
X220920000Y-90478750D03*
D24*
X223460000Y-85398750D03*
D13*
X27880000Y-66350020D03*
X38040000Y-66350020D03*
D27*
X36770000Y-68890020D03*
X30420000Y-71430020D03*
D24*
X32960000Y-66350020D03*
D13*
X270767500Y-66348750D03*
X280927500Y-66348750D03*
D27*
X279657500Y-68888750D03*
X273307500Y-71428750D03*
D24*
X275847500Y-66348750D03*
D13*
X8830000Y-85367000D03*
X18990000Y-85367000D03*
D27*
X17720000Y-87907000D03*
X11370000Y-90447000D03*
D24*
X13910000Y-85367000D03*
D13*
X37405000Y-85367000D03*
X47565000Y-85367000D03*
D27*
X46295000Y-87907000D03*
X39945000Y-90447000D03*
D24*
X42485000Y-85367000D03*
D13*
X32706000Y-85367000D03*
X42866000Y-85367000D03*
D27*
X41596000Y-87907000D03*
X35246000Y-90447000D03*
D24*
X37786000Y-85367000D03*
D13*
X199330000Y-85398750D03*
X209490000Y-85398750D03*
D27*
X208220000Y-87938750D03*
X201870000Y-90478750D03*
D24*
X204410000Y-85398750D03*
D13*
X223142500Y-85398750D03*
X233302500Y-85398750D03*
D27*
X232032500Y-87938750D03*
X225682500Y-90478750D03*
D24*
X228222500Y-85398750D03*
D13*
X56455000Y-85367000D03*
X66615000Y-85367000D03*
D27*
X65345000Y-87907000D03*
X58995000Y-90447000D03*
D24*
X61535000Y-85367000D03*
D13*
X242192500Y-85398750D03*
X252352500Y-85398750D03*
D27*
X251082500Y-87938750D03*
X244732500Y-90478750D03*
D24*
X247272500Y-85398750D03*
D13*
X266005000Y-85398750D03*
X276165000Y-85398750D03*
D27*
X274895000Y-87938750D03*
X268545000Y-90478750D03*
D24*
X271085000Y-85398750D03*
D13*
X137417500Y-85400020D03*
X147577500Y-85400020D03*
D27*
X146307500Y-87940020D03*
X139957500Y-90480020D03*
D24*
X142497500Y-85400020D03*
D13*
X118367500Y-85398750D03*
X128527500Y-85398750D03*
D27*
X127257500Y-87938750D03*
X120907500Y-90478750D03*
D24*
X123447500Y-85398750D03*
D13*
X6450020Y-66350020D03*
X16610020Y-66350020D03*
D27*
X15340020Y-68890020D03*
X8990020Y-71430020D03*
D24*
X11530020Y-66350020D03*
D13*
X263623750Y-66348750D03*
X273783750Y-66348750D03*
D27*
X272513750Y-68888750D03*
X266163750Y-71428750D03*
D24*
X268703750Y-66348750D03*
D13*
X6450020Y-47300020D03*
X16610020Y-47300020D03*
D27*
X15340020Y-49840020D03*
X8990020Y-52380020D03*
D24*
X11530020Y-47300020D03*
D13*
X251717500Y-9198750D03*
X261877500Y-9198750D03*
D27*
X260607500Y-11738750D03*
X254257500Y-14278750D03*
D24*
X256797500Y-9198750D03*
D13*
X270767500Y-9198750D03*
X280927500Y-9198750D03*
D27*
X279657500Y-11738750D03*
X273307500Y-14278750D03*
D24*
X275847500Y-9198750D03*
D13*
X23117500Y-9198750D03*
X33277500Y-9198750D03*
D27*
X32007500Y-11738750D03*
X25657500Y-14278750D03*
D24*
X28197500Y-9198750D03*
D13*
X4067500Y-9198750D03*
X14227500Y-9198750D03*
D27*
X12957500Y-11738750D03*
X6607500Y-14278750D03*
D24*
X9147500Y-9198750D03*
D13*
X273466250Y-42853750D03*
X273466250Y-32693750D03*
D27*
X276006250Y-33963750D03*
X278546250Y-40313750D03*
D24*
X273466250Y-37773750D03*
D13*
X244573750Y-66348750D03*
X254733750Y-66348750D03*
D27*
X253463750Y-68888750D03*
X247113750Y-71428750D03*
D24*
X249653750Y-66348750D03*
D13*
X237430000Y-66348750D03*
X247590000Y-66348750D03*
D27*
X246320000Y-68831600D03*
X239970000Y-71428750D03*
D24*
X242510000Y-66348750D03*
D13*
X246955000Y-47300020D03*
X257115000Y-47300020D03*
D27*
X255845000Y-49840020D03*
X249495000Y-52380020D03*
D24*
X252035000Y-47300020D03*
D18*
X12798750Y-80318750D03*
X10258750Y-80318750D03*
X36611250Y-80318750D03*
X34071250Y-80318750D03*
X38992500Y-80318750D03*
X43755000Y-80318750D03*
X41215000Y-80318750D03*
X60423750Y-80318750D03*
X57883750Y-80318750D03*
X62805000Y-80318750D03*
X200758750Y-80318750D03*
X203298750Y-80318750D03*
X205680000Y-80318750D03*
X229492500Y-80318750D03*
X224730000Y-80318750D03*
X222190000Y-80318750D03*
X227111250Y-80318750D03*
X246002500Y-80318750D03*
X248542500Y-80318750D03*
X250923750Y-80318750D03*
X274736250Y-80318750D03*
X272355000Y-80318750D03*
X269815000Y-80318750D03*
M02*
