M48
;DRILL file {KiCad 5.0.0} date Mon Aug 13 13:33:08 2018
;FORMAT={-:-/ absolute / metric / decimal}
FMAT,2
METRIC,TZ
T1C1.700
T2C2.500
T3C3.050
T4C4.000
%
G90
G05
M71
T1
X220.761Y-85.399
X230.921Y-85.399
X244.574Y-66.349
X254.734Y-66.349
X32.706Y-85.367
X42.866Y-85.367
X56.455Y-85.367
X66.615Y-85.367
X232.667Y-9.2
X242.827Y-9.2
X218.38Y-85.399
X228.54Y-85.399
X142.18Y-66.35
X152.34Y-66.35
X56.455Y-47.3
X66.615Y-47.3
X99.317Y-9.2
X109.477Y-9.2
X208.855Y-47.3
X219.015Y-47.3
X227.905Y-47.3
X238.065Y-47.3
X266.005Y-85.399
X276.165Y-85.399
X185.042Y-28.25
X195.202Y-28.25
X213.617Y-9.2
X223.778Y-9.2
X268.386Y-85.399
X278.546Y-85.399
X54.074Y-85.399
X64.234Y-85.399
X46.93Y-66.35
X57.09Y-66.35
X223.142Y-85.399
X233.302Y-85.399
X80.267Y-9.2
X90.427Y-9.2
X104.08Y-66.35
X114.24Y-66.35
X108.843Y-28.25
X119.002Y-28.25
X161.23Y-66.35
X171.39Y-66.35
X175.517Y-9.2
X185.677Y-9.2
X194.567Y-9.2
X204.727Y-9.2
X132.655Y-47.3
X142.815Y-47.3
X127.892Y-28.25
X138.052Y-28.25
X273.466Y-32.694
X273.466Y-42.854
X204.093Y-28.25
X214.252Y-28.25
X89.792Y-28.25
X99.953Y-28.25
X268.386Y-47.299
X278.546Y-47.299
X70.742Y-28.25
X80.903Y-28.25
X270.767Y-9.199
X280.928Y-9.199
X123.13Y-66.35
X133.29Y-66.35
X199.33Y-85.399
X209.49Y-85.399
X251.718Y-9.199
X261.877Y-9.199
X170.755Y-47.3
X180.915Y-47.3
X8.83Y-85.367
X18.99Y-85.367
X30.261Y-85.399
X40.421Y-85.399
X94.555Y-47.3
X104.715Y-47.3
X8.83Y-28.25
X18.99Y-28.25
X165.992Y-28.25
X176.153Y-28.25
X246.955Y-47.3
X257.115Y-47.3
X51.692Y-28.25
X61.852Y-28.25
X6.45Y-66.35
X16.61Y-66.35
X42.167Y-9.2
X52.328Y-9.2
X266.005Y-28.249
X276.165Y-28.249
X254.1Y-66.35
X264.26Y-66.35
X75.505Y-47.3
X85.665Y-47.3
X6.45Y-47.3
X16.61Y-47.3
X223.142Y-28.25
X233.302Y-28.25
X261.243Y-9.2
X271.402Y-9.2
X270.767Y-66.349
X280.928Y-66.349
X32.642Y-28.25
X42.802Y-28.25
X237.43Y-66.349
X247.59Y-66.349
X180.28Y-66.35
X190.44Y-66.35
X85.03Y-66.35
X95.19Y-66.35
X11.213Y-47.3
X21.373Y-47.3
X151.705Y-47.3
X161.865Y-47.3
X137.417Y-85.4
X147.577Y-85.4
X125.511Y-85.399
X135.671Y-85.399
X242.192Y-28.25
X252.352Y-28.25
X118.367Y-9.2
X128.528Y-9.2
X218.38Y-66.35
X228.54Y-66.35
X23.117Y-9.199
X33.277Y-9.199
X6.449Y-85.399
X16.609Y-85.399
X244.574Y-85.399
X254.734Y-85.399
X146.942Y-28.25
X157.102Y-28.25
X4.067Y-9.199
X14.227Y-9.199
X137.417Y-9.2
X147.577Y-9.2
X27.88Y-66.35
X38.04Y-66.35
X37.405Y-47.3
X47.565Y-47.3
X37.405Y-85.367
X47.565Y-85.367
X15.974Y-66.349
X26.134Y-66.349
X118.367Y-85.399
X128.528Y-85.399
X196.949Y-85.399
X207.109Y-85.399
X113.605Y-47.3
X123.765Y-47.3
X258.861Y-47.299
X269.021Y-47.299
X199.33Y-66.35
X209.49Y-66.35
X65.98Y-66.35
X76.14Y-66.35
X242.192Y-85.399
X252.352Y-85.399
X61.217Y-9.2
X71.377Y-9.2
X189.805Y-47.3
X199.965Y-47.3
X263.624Y-66.349
X273.784Y-66.349
X156.468Y-9.2
X166.627Y-9.2
T2
X25.199Y-27.901
T3
X271.085Y-59.364
X254.418Y-2.215
X85.347Y-92.385
X66.297Y-92.385
X199.647Y-92.385
X266.483Y-49.68
X80.585Y-92.385
X266.483Y-25.867
X247.272Y-59.365
X252.035Y-40.315
X275.847Y-40.314
X32.96Y-59.365
X180.597Y-92.385
X9.147Y-59.365
X278.23Y-2.215
T4
X71.06Y-66.35
X247.272Y-85.399
X180.597Y-77.145
X66.297Y-9.2
X194.885Y-47.3
X268.704Y-66.349
X161.547Y-9.2
X271.085Y-74.604
X225.841Y-85.399
X249.654Y-66.349
X37.786Y-85.367
X61.535Y-85.367
X237.748Y-9.2
X223.46Y-85.399
X254.418Y-17.455
X147.26Y-66.35
X61.535Y-47.3
X104.397Y-9.2
X213.935Y-47.3
X247.272Y-74.605
X232.985Y-47.3
X85.347Y-77.145
X271.085Y-85.399
X190.123Y-28.25
X218.697Y-9.2
X273.466Y-85.399
X59.154Y-85.399
X52.01Y-66.35
X228.222Y-85.399
X85.347Y-9.2
X109.16Y-66.35
X9.147Y-74.605
X113.922Y-28.25
X166.31Y-66.35
X180.597Y-9.2
X252.035Y-55.555
X199.647Y-9.2
X137.735Y-47.3
X132.972Y-28.25
X273.466Y-37.774
X209.172Y-28.25
X94.873Y-28.25
X273.466Y-47.299
X275.847Y-55.554
X75.822Y-28.25
X275.847Y-9.199
X32.96Y-74.605
X128.21Y-66.35
X204.41Y-85.399
X256.798Y-9.199
X175.835Y-47.3
X13.91Y-85.367
X66.297Y-77.145
X35.341Y-85.399
X99.635Y-47.3
X13.91Y-28.25
X171.072Y-28.25
X199.647Y-77.145
X252.035Y-47.3
X56.773Y-28.25
X281.723Y-49.68
X11.53Y-66.35
X47.247Y-9.2
X271.085Y-28.249
X259.18Y-66.35
X80.585Y-47.3
X11.53Y-47.3
X228.222Y-28.25
X266.322Y-9.2
X275.847Y-66.349
X37.722Y-28.25
X242.51Y-66.349
X185.36Y-66.35
X90.11Y-66.35
X16.293Y-47.3
X156.785Y-47.3
X142.498Y-85.4
X130.591Y-85.399
X247.272Y-28.25
X123.447Y-9.2
X278.23Y-17.455
X223.46Y-66.35
X28.197Y-9.199
X11.529Y-85.399
X249.654Y-85.399
X152.022Y-28.25
X9.147Y-9.199
X142.498Y-9.2
X80.585Y-77.145
X32.96Y-66.35
X42.485Y-47.3
X42.485Y-85.367
X21.054Y-66.349
X123.447Y-85.399
X202.029Y-85.399
X118.685Y-47.3
X263.941Y-47.299
X281.723Y-25.867
X204.41Y-66.35
T2
X258.8Y-27.901G85X261.3Y-27.901
G05
X189.249Y-85.201G85X191.749Y-85.201
G05
X-0.84Y-56.501G85X3.66Y-56.501
G05
X126.95Y-47.G85X129.45Y-47.
G05
X281.291Y-56.501G85X285.791Y-56.501
G05
T0
M30
