%TF.GenerationSoftware,KiCad,Pcbnew,5.0.0*%
%TF.CreationDate,2018-08-13T13:33:07+12:00*%
%TF.ProjectId,keyboard,6B6579626F6172642E6B696361645F70,v0.1*%
%TF.SameCoordinates,PX3b67850PY3da05e0*%
%TF.FileFunction,Soldermask,Bot*%
%TF.FilePolarity,Negative*%
%FSLAX46Y46*%
G04 Gerber Fmt 4.6, Leading zero omitted, Abs format (unit mm)*
G04 Created by KiCad (PCBNEW 5.0.0) date Mon Aug 13 13:33:07 2018*
%MOMM*%
%LPD*%
G01*
G04 APERTURE LIST*
%ADD10C,7.000000*%
%ADD11O,10.000000X5.000000*%
%ADD12C,1.700000*%
%ADD13O,1.700000X1.700000*%
%ADD14R,1.200000X1.900000*%
%ADD15O,1.200000X1.900000*%
%ADD16R,1.500000X1.900000*%
%ADD17C,1.450000*%
%ADD18R,0.400000X1.350000*%
%ADD19C,0.150000*%
%ADD20C,0.875000*%
%ADD21C,1.000000*%
%ADD22R,2.500000X6.000000*%
%ADD23C,1.600000*%
%ADD24O,1.600000X1.600000*%
%ADD25R,1.750000X1.200000*%
%ADD26O,1.750000X1.200000*%
%ADD27C,0.975000*%
%ADD28C,4.000000*%
%ADD29C,3.050000*%
%ADD30C,1.200000*%
%ADD31R,0.800000X0.900000*%
%ADD32R,0.900000X0.800000*%
%ADD33R,1.060000X0.650000*%
%ADD34R,1.200000X0.500000*%
%ADD35R,0.500000X1.200000*%
%ADD36C,2.500000*%
%ADD37C,1.250000*%
G04 APERTURE END LIST*
D10*
X25199300Y-27900800D03*
D11*
X283541200Y-56501200D03*
X1410000Y-56501200D03*
D10*
X260049900Y-27900800D03*
X190499400Y-85200700D03*
X128200000Y-47000000D03*
D12*
X2480000Y-24280000D03*
D13*
X2480000Y-26820000D03*
X2480000Y-29360000D03*
D12*
X2480000Y-31900000D03*
X152340000Y-91590000D03*
D13*
X154880000Y-91590000D03*
X157420000Y-91590000D03*
X159960000Y-91590000D03*
X162500000Y-91590000D03*
X165040000Y-91590000D03*
X167580000Y-91590000D03*
X170120000Y-91590000D03*
X172660000Y-91590000D03*
X175200000Y-91590000D03*
D14*
X15310000Y-1442500D03*
X21110000Y-1442500D03*
D15*
X21710000Y-1442500D03*
X14710000Y-1442500D03*
D16*
X17210000Y-1442500D03*
D17*
X20710000Y-4142500D03*
D18*
X18210000Y-4142500D03*
X18860000Y-4142500D03*
X19510000Y-4142500D03*
X16910000Y-4142500D03*
X17560000Y-4142500D03*
D17*
X15710000Y-4142500D03*
D16*
X19210000Y-1442500D03*
D19*
G36*
X24347691Y-36061053D02*
X24368926Y-36064203D01*
X24389750Y-36069419D01*
X24409962Y-36076651D01*
X24429368Y-36085830D01*
X24447781Y-36096866D01*
X24465024Y-36109654D01*
X24480930Y-36124070D01*
X24495346Y-36139976D01*
X24508134Y-36157219D01*
X24519170Y-36175632D01*
X24528349Y-36195038D01*
X24535581Y-36215250D01*
X24540797Y-36236074D01*
X24543947Y-36257309D01*
X24545000Y-36278750D01*
X24545000Y-36716250D01*
X24543947Y-36737691D01*
X24540797Y-36758926D01*
X24535581Y-36779750D01*
X24528349Y-36799962D01*
X24519170Y-36819368D01*
X24508134Y-36837781D01*
X24495346Y-36855024D01*
X24480930Y-36870930D01*
X24465024Y-36885346D01*
X24447781Y-36898134D01*
X24429368Y-36909170D01*
X24409962Y-36918349D01*
X24389750Y-36925581D01*
X24368926Y-36930797D01*
X24347691Y-36933947D01*
X24326250Y-36935000D01*
X23813750Y-36935000D01*
X23792309Y-36933947D01*
X23771074Y-36930797D01*
X23750250Y-36925581D01*
X23730038Y-36918349D01*
X23710632Y-36909170D01*
X23692219Y-36898134D01*
X23674976Y-36885346D01*
X23659070Y-36870930D01*
X23644654Y-36855024D01*
X23631866Y-36837781D01*
X23620830Y-36819368D01*
X23611651Y-36799962D01*
X23604419Y-36779750D01*
X23599203Y-36758926D01*
X23596053Y-36737691D01*
X23595000Y-36716250D01*
X23595000Y-36278750D01*
X23596053Y-36257309D01*
X23599203Y-36236074D01*
X23604419Y-36215250D01*
X23611651Y-36195038D01*
X23620830Y-36175632D01*
X23631866Y-36157219D01*
X23644654Y-36139976D01*
X23659070Y-36124070D01*
X23674976Y-36109654D01*
X23692219Y-36096866D01*
X23710632Y-36085830D01*
X23730038Y-36076651D01*
X23750250Y-36069419D01*
X23771074Y-36064203D01*
X23792309Y-36061053D01*
X23813750Y-36060000D01*
X24326250Y-36060000D01*
X24347691Y-36061053D01*
X24347691Y-36061053D01*
G37*
D20*
X24070000Y-36497500D03*
D19*
G36*
X24347691Y-34486053D02*
X24368926Y-34489203D01*
X24389750Y-34494419D01*
X24409962Y-34501651D01*
X24429368Y-34510830D01*
X24447781Y-34521866D01*
X24465024Y-34534654D01*
X24480930Y-34549070D01*
X24495346Y-34564976D01*
X24508134Y-34582219D01*
X24519170Y-34600632D01*
X24528349Y-34620038D01*
X24535581Y-34640250D01*
X24540797Y-34661074D01*
X24543947Y-34682309D01*
X24545000Y-34703750D01*
X24545000Y-35141250D01*
X24543947Y-35162691D01*
X24540797Y-35183926D01*
X24535581Y-35204750D01*
X24528349Y-35224962D01*
X24519170Y-35244368D01*
X24508134Y-35262781D01*
X24495346Y-35280024D01*
X24480930Y-35295930D01*
X24465024Y-35310346D01*
X24447781Y-35323134D01*
X24429368Y-35334170D01*
X24409962Y-35343349D01*
X24389750Y-35350581D01*
X24368926Y-35355797D01*
X24347691Y-35358947D01*
X24326250Y-35360000D01*
X23813750Y-35360000D01*
X23792309Y-35358947D01*
X23771074Y-35355797D01*
X23750250Y-35350581D01*
X23730038Y-35343349D01*
X23710632Y-35334170D01*
X23692219Y-35323134D01*
X23674976Y-35310346D01*
X23659070Y-35295930D01*
X23644654Y-35280024D01*
X23631866Y-35262781D01*
X23620830Y-35244368D01*
X23611651Y-35224962D01*
X23604419Y-35204750D01*
X23599203Y-35183926D01*
X23596053Y-35162691D01*
X23595000Y-35141250D01*
X23595000Y-34703750D01*
X23596053Y-34682309D01*
X23599203Y-34661074D01*
X23604419Y-34640250D01*
X23611651Y-34620038D01*
X23620830Y-34600632D01*
X23631866Y-34582219D01*
X23644654Y-34564976D01*
X23659070Y-34549070D01*
X23674976Y-34534654D01*
X23692219Y-34521866D01*
X23710632Y-34510830D01*
X23730038Y-34501651D01*
X23750250Y-34494419D01*
X23771074Y-34489203D01*
X23792309Y-34486053D01*
X23813750Y-34485000D01*
X24326250Y-34485000D01*
X24347691Y-34486053D01*
X24347691Y-34486053D01*
G37*
D20*
X24070000Y-34922500D03*
D21*
X79696000Y-71270000D03*
X81596000Y-71270000D03*
D22*
X80646000Y-65770000D03*
D19*
G36*
X33999691Y-55619053D02*
X34020926Y-55622203D01*
X34041750Y-55627419D01*
X34061962Y-55634651D01*
X34081368Y-55643830D01*
X34099781Y-55654866D01*
X34117024Y-55667654D01*
X34132930Y-55682070D01*
X34147346Y-55697976D01*
X34160134Y-55715219D01*
X34171170Y-55733632D01*
X34180349Y-55753038D01*
X34187581Y-55773250D01*
X34192797Y-55794074D01*
X34195947Y-55815309D01*
X34197000Y-55836750D01*
X34197000Y-56274250D01*
X34195947Y-56295691D01*
X34192797Y-56316926D01*
X34187581Y-56337750D01*
X34180349Y-56357962D01*
X34171170Y-56377368D01*
X34160134Y-56395781D01*
X34147346Y-56413024D01*
X34132930Y-56428930D01*
X34117024Y-56443346D01*
X34099781Y-56456134D01*
X34081368Y-56467170D01*
X34061962Y-56476349D01*
X34041750Y-56483581D01*
X34020926Y-56488797D01*
X33999691Y-56491947D01*
X33978250Y-56493000D01*
X33465750Y-56493000D01*
X33444309Y-56491947D01*
X33423074Y-56488797D01*
X33402250Y-56483581D01*
X33382038Y-56476349D01*
X33362632Y-56467170D01*
X33344219Y-56456134D01*
X33326976Y-56443346D01*
X33311070Y-56428930D01*
X33296654Y-56413024D01*
X33283866Y-56395781D01*
X33272830Y-56377368D01*
X33263651Y-56357962D01*
X33256419Y-56337750D01*
X33251203Y-56316926D01*
X33248053Y-56295691D01*
X33247000Y-56274250D01*
X33247000Y-55836750D01*
X33248053Y-55815309D01*
X33251203Y-55794074D01*
X33256419Y-55773250D01*
X33263651Y-55753038D01*
X33272830Y-55733632D01*
X33283866Y-55715219D01*
X33296654Y-55697976D01*
X33311070Y-55682070D01*
X33326976Y-55667654D01*
X33344219Y-55654866D01*
X33362632Y-55643830D01*
X33382038Y-55634651D01*
X33402250Y-55627419D01*
X33423074Y-55622203D01*
X33444309Y-55619053D01*
X33465750Y-55618000D01*
X33978250Y-55618000D01*
X33999691Y-55619053D01*
X33999691Y-55619053D01*
G37*
D20*
X33722000Y-56055500D03*
D19*
G36*
X33999691Y-54044053D02*
X34020926Y-54047203D01*
X34041750Y-54052419D01*
X34061962Y-54059651D01*
X34081368Y-54068830D01*
X34099781Y-54079866D01*
X34117024Y-54092654D01*
X34132930Y-54107070D01*
X34147346Y-54122976D01*
X34160134Y-54140219D01*
X34171170Y-54158632D01*
X34180349Y-54178038D01*
X34187581Y-54198250D01*
X34192797Y-54219074D01*
X34195947Y-54240309D01*
X34197000Y-54261750D01*
X34197000Y-54699250D01*
X34195947Y-54720691D01*
X34192797Y-54741926D01*
X34187581Y-54762750D01*
X34180349Y-54782962D01*
X34171170Y-54802368D01*
X34160134Y-54820781D01*
X34147346Y-54838024D01*
X34132930Y-54853930D01*
X34117024Y-54868346D01*
X34099781Y-54881134D01*
X34081368Y-54892170D01*
X34061962Y-54901349D01*
X34041750Y-54908581D01*
X34020926Y-54913797D01*
X33999691Y-54916947D01*
X33978250Y-54918000D01*
X33465750Y-54918000D01*
X33444309Y-54916947D01*
X33423074Y-54913797D01*
X33402250Y-54908581D01*
X33382038Y-54901349D01*
X33362632Y-54892170D01*
X33344219Y-54881134D01*
X33326976Y-54868346D01*
X33311070Y-54853930D01*
X33296654Y-54838024D01*
X33283866Y-54820781D01*
X33272830Y-54802368D01*
X33263651Y-54782962D01*
X33256419Y-54762750D01*
X33251203Y-54741926D01*
X33248053Y-54720691D01*
X33247000Y-54699250D01*
X33247000Y-54261750D01*
X33248053Y-54240309D01*
X33251203Y-54219074D01*
X33256419Y-54198250D01*
X33263651Y-54178038D01*
X33272830Y-54158632D01*
X33283866Y-54140219D01*
X33296654Y-54122976D01*
X33311070Y-54107070D01*
X33326976Y-54092654D01*
X33344219Y-54079866D01*
X33362632Y-54068830D01*
X33382038Y-54059651D01*
X33402250Y-54052419D01*
X33423074Y-54047203D01*
X33444309Y-54044053D01*
X33465750Y-54043000D01*
X33978250Y-54043000D01*
X33999691Y-54044053D01*
X33999691Y-54044053D01*
G37*
D20*
X33722000Y-54480500D03*
D19*
G36*
X78322691Y-70808053D02*
X78343926Y-70811203D01*
X78364750Y-70816419D01*
X78384962Y-70823651D01*
X78404368Y-70832830D01*
X78422781Y-70843866D01*
X78440024Y-70856654D01*
X78455930Y-70871070D01*
X78470346Y-70886976D01*
X78483134Y-70904219D01*
X78494170Y-70922632D01*
X78503349Y-70942038D01*
X78510581Y-70962250D01*
X78515797Y-70983074D01*
X78518947Y-71004309D01*
X78520000Y-71025750D01*
X78520000Y-71463250D01*
X78518947Y-71484691D01*
X78515797Y-71505926D01*
X78510581Y-71526750D01*
X78503349Y-71546962D01*
X78494170Y-71566368D01*
X78483134Y-71584781D01*
X78470346Y-71602024D01*
X78455930Y-71617930D01*
X78440024Y-71632346D01*
X78422781Y-71645134D01*
X78404368Y-71656170D01*
X78384962Y-71665349D01*
X78364750Y-71672581D01*
X78343926Y-71677797D01*
X78322691Y-71680947D01*
X78301250Y-71682000D01*
X77788750Y-71682000D01*
X77767309Y-71680947D01*
X77746074Y-71677797D01*
X77725250Y-71672581D01*
X77705038Y-71665349D01*
X77685632Y-71656170D01*
X77667219Y-71645134D01*
X77649976Y-71632346D01*
X77634070Y-71617930D01*
X77619654Y-71602024D01*
X77606866Y-71584781D01*
X77595830Y-71566368D01*
X77586651Y-71546962D01*
X77579419Y-71526750D01*
X77574203Y-71505926D01*
X77571053Y-71484691D01*
X77570000Y-71463250D01*
X77570000Y-71025750D01*
X77571053Y-71004309D01*
X77574203Y-70983074D01*
X77579419Y-70962250D01*
X77586651Y-70942038D01*
X77595830Y-70922632D01*
X77606866Y-70904219D01*
X77619654Y-70886976D01*
X77634070Y-70871070D01*
X77649976Y-70856654D01*
X77667219Y-70843866D01*
X77685632Y-70832830D01*
X77705038Y-70823651D01*
X77725250Y-70816419D01*
X77746074Y-70811203D01*
X77767309Y-70808053D01*
X77788750Y-70807000D01*
X78301250Y-70807000D01*
X78322691Y-70808053D01*
X78322691Y-70808053D01*
G37*
D20*
X78045000Y-71244500D03*
D19*
G36*
X78322691Y-72383053D02*
X78343926Y-72386203D01*
X78364750Y-72391419D01*
X78384962Y-72398651D01*
X78404368Y-72407830D01*
X78422781Y-72418866D01*
X78440024Y-72431654D01*
X78455930Y-72446070D01*
X78470346Y-72461976D01*
X78483134Y-72479219D01*
X78494170Y-72497632D01*
X78503349Y-72517038D01*
X78510581Y-72537250D01*
X78515797Y-72558074D01*
X78518947Y-72579309D01*
X78520000Y-72600750D01*
X78520000Y-73038250D01*
X78518947Y-73059691D01*
X78515797Y-73080926D01*
X78510581Y-73101750D01*
X78503349Y-73121962D01*
X78494170Y-73141368D01*
X78483134Y-73159781D01*
X78470346Y-73177024D01*
X78455930Y-73192930D01*
X78440024Y-73207346D01*
X78422781Y-73220134D01*
X78404368Y-73231170D01*
X78384962Y-73240349D01*
X78364750Y-73247581D01*
X78343926Y-73252797D01*
X78322691Y-73255947D01*
X78301250Y-73257000D01*
X77788750Y-73257000D01*
X77767309Y-73255947D01*
X77746074Y-73252797D01*
X77725250Y-73247581D01*
X77705038Y-73240349D01*
X77685632Y-73231170D01*
X77667219Y-73220134D01*
X77649976Y-73207346D01*
X77634070Y-73192930D01*
X77619654Y-73177024D01*
X77606866Y-73159781D01*
X77595830Y-73141368D01*
X77586651Y-73121962D01*
X77579419Y-73101750D01*
X77574203Y-73080926D01*
X77571053Y-73059691D01*
X77570000Y-73038250D01*
X77570000Y-72600750D01*
X77571053Y-72579309D01*
X77574203Y-72558074D01*
X77579419Y-72537250D01*
X77586651Y-72517038D01*
X77595830Y-72497632D01*
X77606866Y-72479219D01*
X77619654Y-72461976D01*
X77634070Y-72446070D01*
X77649976Y-72431654D01*
X77667219Y-72418866D01*
X77685632Y-72407830D01*
X77705038Y-72398651D01*
X77725250Y-72391419D01*
X77746074Y-72386203D01*
X77767309Y-72383053D01*
X77788750Y-72382000D01*
X78301250Y-72382000D01*
X78322691Y-72383053D01*
X78322691Y-72383053D01*
G37*
D20*
X78045000Y-72819500D03*
D19*
G36*
X83529691Y-72383053D02*
X83550926Y-72386203D01*
X83571750Y-72391419D01*
X83591962Y-72398651D01*
X83611368Y-72407830D01*
X83629781Y-72418866D01*
X83647024Y-72431654D01*
X83662930Y-72446070D01*
X83677346Y-72461976D01*
X83690134Y-72479219D01*
X83701170Y-72497632D01*
X83710349Y-72517038D01*
X83717581Y-72537250D01*
X83722797Y-72558074D01*
X83725947Y-72579309D01*
X83727000Y-72600750D01*
X83727000Y-73038250D01*
X83725947Y-73059691D01*
X83722797Y-73080926D01*
X83717581Y-73101750D01*
X83710349Y-73121962D01*
X83701170Y-73141368D01*
X83690134Y-73159781D01*
X83677346Y-73177024D01*
X83662930Y-73192930D01*
X83647024Y-73207346D01*
X83629781Y-73220134D01*
X83611368Y-73231170D01*
X83591962Y-73240349D01*
X83571750Y-73247581D01*
X83550926Y-73252797D01*
X83529691Y-73255947D01*
X83508250Y-73257000D01*
X82995750Y-73257000D01*
X82974309Y-73255947D01*
X82953074Y-73252797D01*
X82932250Y-73247581D01*
X82912038Y-73240349D01*
X82892632Y-73231170D01*
X82874219Y-73220134D01*
X82856976Y-73207346D01*
X82841070Y-73192930D01*
X82826654Y-73177024D01*
X82813866Y-73159781D01*
X82802830Y-73141368D01*
X82793651Y-73121962D01*
X82786419Y-73101750D01*
X82781203Y-73080926D01*
X82778053Y-73059691D01*
X82777000Y-73038250D01*
X82777000Y-72600750D01*
X82778053Y-72579309D01*
X82781203Y-72558074D01*
X82786419Y-72537250D01*
X82793651Y-72517038D01*
X82802830Y-72497632D01*
X82813866Y-72479219D01*
X82826654Y-72461976D01*
X82841070Y-72446070D01*
X82856976Y-72431654D01*
X82874219Y-72418866D01*
X82892632Y-72407830D01*
X82912038Y-72398651D01*
X82932250Y-72391419D01*
X82953074Y-72386203D01*
X82974309Y-72383053D01*
X82995750Y-72382000D01*
X83508250Y-72382000D01*
X83529691Y-72383053D01*
X83529691Y-72383053D01*
G37*
D20*
X83252000Y-72819500D03*
D19*
G36*
X83529691Y-70808053D02*
X83550926Y-70811203D01*
X83571750Y-70816419D01*
X83591962Y-70823651D01*
X83611368Y-70832830D01*
X83629781Y-70843866D01*
X83647024Y-70856654D01*
X83662930Y-70871070D01*
X83677346Y-70886976D01*
X83690134Y-70904219D01*
X83701170Y-70922632D01*
X83710349Y-70942038D01*
X83717581Y-70962250D01*
X83722797Y-70983074D01*
X83725947Y-71004309D01*
X83727000Y-71025750D01*
X83727000Y-71463250D01*
X83725947Y-71484691D01*
X83722797Y-71505926D01*
X83717581Y-71526750D01*
X83710349Y-71546962D01*
X83701170Y-71566368D01*
X83690134Y-71584781D01*
X83677346Y-71602024D01*
X83662930Y-71617930D01*
X83647024Y-71632346D01*
X83629781Y-71645134D01*
X83611368Y-71656170D01*
X83591962Y-71665349D01*
X83571750Y-71672581D01*
X83550926Y-71677797D01*
X83529691Y-71680947D01*
X83508250Y-71682000D01*
X82995750Y-71682000D01*
X82974309Y-71680947D01*
X82953074Y-71677797D01*
X82932250Y-71672581D01*
X82912038Y-71665349D01*
X82892632Y-71656170D01*
X82874219Y-71645134D01*
X82856976Y-71632346D01*
X82841070Y-71617930D01*
X82826654Y-71602024D01*
X82813866Y-71584781D01*
X82802830Y-71566368D01*
X82793651Y-71546962D01*
X82786419Y-71526750D01*
X82781203Y-71505926D01*
X82778053Y-71484691D01*
X82777000Y-71463250D01*
X82777000Y-71025750D01*
X82778053Y-71004309D01*
X82781203Y-70983074D01*
X82786419Y-70962250D01*
X82793651Y-70942038D01*
X82802830Y-70922632D01*
X82813866Y-70904219D01*
X82826654Y-70886976D01*
X82841070Y-70871070D01*
X82856976Y-70856654D01*
X82874219Y-70843866D01*
X82892632Y-70832830D01*
X82912038Y-70823651D01*
X82932250Y-70816419D01*
X82953074Y-70811203D01*
X82974309Y-70808053D01*
X82995750Y-70807000D01*
X83508250Y-70807000D01*
X83529691Y-70808053D01*
X83529691Y-70808053D01*
G37*
D20*
X83252000Y-71244500D03*
D23*
X2480000Y-71270000D03*
D24*
X2480000Y-81430000D03*
D25*
X39310000Y-36726000D03*
D26*
X39310000Y-38726000D03*
D23*
X17562520Y-42220020D03*
X15022520Y-42220020D03*
D19*
G36*
X24042142Y-2633174D02*
X24065803Y-2636684D01*
X24089007Y-2642496D01*
X24111529Y-2650554D01*
X24133153Y-2660782D01*
X24153670Y-2673079D01*
X24172883Y-2687329D01*
X24190607Y-2703393D01*
X24206671Y-2721117D01*
X24220921Y-2740330D01*
X24233218Y-2760847D01*
X24243446Y-2782471D01*
X24251504Y-2804993D01*
X24257316Y-2828197D01*
X24260826Y-2851858D01*
X24262000Y-2875750D01*
X24262000Y-3363250D01*
X24260826Y-3387142D01*
X24257316Y-3410803D01*
X24251504Y-3434007D01*
X24243446Y-3456529D01*
X24233218Y-3478153D01*
X24220921Y-3498670D01*
X24206671Y-3517883D01*
X24190607Y-3535607D01*
X24172883Y-3551671D01*
X24153670Y-3565921D01*
X24133153Y-3578218D01*
X24111529Y-3588446D01*
X24089007Y-3596504D01*
X24065803Y-3602316D01*
X24042142Y-3605826D01*
X24018250Y-3607000D01*
X23105750Y-3607000D01*
X23081858Y-3605826D01*
X23058197Y-3602316D01*
X23034993Y-3596504D01*
X23012471Y-3588446D01*
X22990847Y-3578218D01*
X22970330Y-3565921D01*
X22951117Y-3551671D01*
X22933393Y-3535607D01*
X22917329Y-3517883D01*
X22903079Y-3498670D01*
X22890782Y-3478153D01*
X22880554Y-3456529D01*
X22872496Y-3434007D01*
X22866684Y-3410803D01*
X22863174Y-3387142D01*
X22862000Y-3363250D01*
X22862000Y-2875750D01*
X22863174Y-2851858D01*
X22866684Y-2828197D01*
X22872496Y-2804993D01*
X22880554Y-2782471D01*
X22890782Y-2760847D01*
X22903079Y-2740330D01*
X22917329Y-2721117D01*
X22933393Y-2703393D01*
X22951117Y-2687329D01*
X22970330Y-2673079D01*
X22990847Y-2660782D01*
X23012471Y-2650554D01*
X23034993Y-2642496D01*
X23058197Y-2636684D01*
X23081858Y-2633174D01*
X23105750Y-2632000D01*
X24018250Y-2632000D01*
X24042142Y-2633174D01*
X24042142Y-2633174D01*
G37*
D27*
X23562000Y-3119500D03*
D19*
G36*
X24042142Y-758174D02*
X24065803Y-761684D01*
X24089007Y-767496D01*
X24111529Y-775554D01*
X24133153Y-785782D01*
X24153670Y-798079D01*
X24172883Y-812329D01*
X24190607Y-828393D01*
X24206671Y-846117D01*
X24220921Y-865330D01*
X24233218Y-885847D01*
X24243446Y-907471D01*
X24251504Y-929993D01*
X24257316Y-953197D01*
X24260826Y-976858D01*
X24262000Y-1000750D01*
X24262000Y-1488250D01*
X24260826Y-1512142D01*
X24257316Y-1535803D01*
X24251504Y-1559007D01*
X24243446Y-1581529D01*
X24233218Y-1603153D01*
X24220921Y-1623670D01*
X24206671Y-1642883D01*
X24190607Y-1660607D01*
X24172883Y-1676671D01*
X24153670Y-1690921D01*
X24133153Y-1703218D01*
X24111529Y-1713446D01*
X24089007Y-1721504D01*
X24065803Y-1727316D01*
X24042142Y-1730826D01*
X24018250Y-1732000D01*
X23105750Y-1732000D01*
X23081858Y-1730826D01*
X23058197Y-1727316D01*
X23034993Y-1721504D01*
X23012471Y-1713446D01*
X22990847Y-1703218D01*
X22970330Y-1690921D01*
X22951117Y-1676671D01*
X22933393Y-1660607D01*
X22917329Y-1642883D01*
X22903079Y-1623670D01*
X22890782Y-1603153D01*
X22880554Y-1581529D01*
X22872496Y-1559007D01*
X22866684Y-1535803D01*
X22863174Y-1512142D01*
X22862000Y-1488250D01*
X22862000Y-1000750D01*
X22863174Y-976858D01*
X22866684Y-953197D01*
X22872496Y-929993D01*
X22880554Y-907471D01*
X22890782Y-885847D01*
X22903079Y-865330D01*
X22917329Y-846117D01*
X22933393Y-828393D01*
X22951117Y-812329D01*
X22970330Y-798079D01*
X22990847Y-785782D01*
X23012471Y-775554D01*
X23034993Y-767496D01*
X23058197Y-761684D01*
X23081858Y-758174D01*
X23105750Y-757000D01*
X24018250Y-757000D01*
X24042142Y-758174D01*
X24042142Y-758174D01*
G37*
D27*
X23562000Y-1244500D03*
D19*
G36*
X25617691Y-958053D02*
X25638926Y-961203D01*
X25659750Y-966419D01*
X25679962Y-973651D01*
X25699368Y-982830D01*
X25717781Y-993866D01*
X25735024Y-1006654D01*
X25750930Y-1021070D01*
X25765346Y-1036976D01*
X25778134Y-1054219D01*
X25789170Y-1072632D01*
X25798349Y-1092038D01*
X25805581Y-1112250D01*
X25810797Y-1133074D01*
X25813947Y-1154309D01*
X25815000Y-1175750D01*
X25815000Y-1613250D01*
X25813947Y-1634691D01*
X25810797Y-1655926D01*
X25805581Y-1676750D01*
X25798349Y-1696962D01*
X25789170Y-1716368D01*
X25778134Y-1734781D01*
X25765346Y-1752024D01*
X25750930Y-1767930D01*
X25735024Y-1782346D01*
X25717781Y-1795134D01*
X25699368Y-1806170D01*
X25679962Y-1815349D01*
X25659750Y-1822581D01*
X25638926Y-1827797D01*
X25617691Y-1830947D01*
X25596250Y-1832000D01*
X25083750Y-1832000D01*
X25062309Y-1830947D01*
X25041074Y-1827797D01*
X25020250Y-1822581D01*
X25000038Y-1815349D01*
X24980632Y-1806170D01*
X24962219Y-1795134D01*
X24944976Y-1782346D01*
X24929070Y-1767930D01*
X24914654Y-1752024D01*
X24901866Y-1734781D01*
X24890830Y-1716368D01*
X24881651Y-1696962D01*
X24874419Y-1676750D01*
X24869203Y-1655926D01*
X24866053Y-1634691D01*
X24865000Y-1613250D01*
X24865000Y-1175750D01*
X24866053Y-1154309D01*
X24869203Y-1133074D01*
X24874419Y-1112250D01*
X24881651Y-1092038D01*
X24890830Y-1072632D01*
X24901866Y-1054219D01*
X24914654Y-1036976D01*
X24929070Y-1021070D01*
X24944976Y-1006654D01*
X24962219Y-993866D01*
X24980632Y-982830D01*
X25000038Y-973651D01*
X25020250Y-966419D01*
X25041074Y-961203D01*
X25062309Y-958053D01*
X25083750Y-957000D01*
X25596250Y-957000D01*
X25617691Y-958053D01*
X25617691Y-958053D01*
G37*
D20*
X25340000Y-1394500D03*
D19*
G36*
X25617691Y-2533053D02*
X25638926Y-2536203D01*
X25659750Y-2541419D01*
X25679962Y-2548651D01*
X25699368Y-2557830D01*
X25717781Y-2568866D01*
X25735024Y-2581654D01*
X25750930Y-2596070D01*
X25765346Y-2611976D01*
X25778134Y-2629219D01*
X25789170Y-2647632D01*
X25798349Y-2667038D01*
X25805581Y-2687250D01*
X25810797Y-2708074D01*
X25813947Y-2729309D01*
X25815000Y-2750750D01*
X25815000Y-3188250D01*
X25813947Y-3209691D01*
X25810797Y-3230926D01*
X25805581Y-3251750D01*
X25798349Y-3271962D01*
X25789170Y-3291368D01*
X25778134Y-3309781D01*
X25765346Y-3327024D01*
X25750930Y-3342930D01*
X25735024Y-3357346D01*
X25717781Y-3370134D01*
X25699368Y-3381170D01*
X25679962Y-3390349D01*
X25659750Y-3397581D01*
X25638926Y-3402797D01*
X25617691Y-3405947D01*
X25596250Y-3407000D01*
X25083750Y-3407000D01*
X25062309Y-3405947D01*
X25041074Y-3402797D01*
X25020250Y-3397581D01*
X25000038Y-3390349D01*
X24980632Y-3381170D01*
X24962219Y-3370134D01*
X24944976Y-3357346D01*
X24929070Y-3342930D01*
X24914654Y-3327024D01*
X24901866Y-3309781D01*
X24890830Y-3291368D01*
X24881651Y-3271962D01*
X24874419Y-3251750D01*
X24869203Y-3230926D01*
X24866053Y-3209691D01*
X24865000Y-3188250D01*
X24865000Y-2750750D01*
X24866053Y-2729309D01*
X24869203Y-2708074D01*
X24874419Y-2687250D01*
X24881651Y-2667038D01*
X24890830Y-2647632D01*
X24901866Y-2629219D01*
X24914654Y-2611976D01*
X24929070Y-2596070D01*
X24944976Y-2581654D01*
X24962219Y-2568866D01*
X24980632Y-2557830D01*
X25000038Y-2548651D01*
X25020250Y-2541419D01*
X25041074Y-2536203D01*
X25062309Y-2533053D01*
X25083750Y-2532000D01*
X25596250Y-2532000D01*
X25617691Y-2533053D01*
X25617691Y-2533053D01*
G37*
D20*
X25340000Y-2969500D03*
D19*
G36*
X2757691Y-51809053D02*
X2778926Y-51812203D01*
X2799750Y-51817419D01*
X2819962Y-51824651D01*
X2839368Y-51833830D01*
X2857781Y-51844866D01*
X2875024Y-51857654D01*
X2890930Y-51872070D01*
X2905346Y-51887976D01*
X2918134Y-51905219D01*
X2929170Y-51923632D01*
X2938349Y-51943038D01*
X2945581Y-51963250D01*
X2950797Y-51984074D01*
X2953947Y-52005309D01*
X2955000Y-52026750D01*
X2955000Y-52464250D01*
X2953947Y-52485691D01*
X2950797Y-52506926D01*
X2945581Y-52527750D01*
X2938349Y-52547962D01*
X2929170Y-52567368D01*
X2918134Y-52585781D01*
X2905346Y-52603024D01*
X2890930Y-52618930D01*
X2875024Y-52633346D01*
X2857781Y-52646134D01*
X2839368Y-52657170D01*
X2819962Y-52666349D01*
X2799750Y-52673581D01*
X2778926Y-52678797D01*
X2757691Y-52681947D01*
X2736250Y-52683000D01*
X2223750Y-52683000D01*
X2202309Y-52681947D01*
X2181074Y-52678797D01*
X2160250Y-52673581D01*
X2140038Y-52666349D01*
X2120632Y-52657170D01*
X2102219Y-52646134D01*
X2084976Y-52633346D01*
X2069070Y-52618930D01*
X2054654Y-52603024D01*
X2041866Y-52585781D01*
X2030830Y-52567368D01*
X2021651Y-52547962D01*
X2014419Y-52527750D01*
X2009203Y-52506926D01*
X2006053Y-52485691D01*
X2005000Y-52464250D01*
X2005000Y-52026750D01*
X2006053Y-52005309D01*
X2009203Y-51984074D01*
X2014419Y-51963250D01*
X2021651Y-51943038D01*
X2030830Y-51923632D01*
X2041866Y-51905219D01*
X2054654Y-51887976D01*
X2069070Y-51872070D01*
X2084976Y-51857654D01*
X2102219Y-51844866D01*
X2120632Y-51833830D01*
X2140038Y-51824651D01*
X2160250Y-51817419D01*
X2181074Y-51812203D01*
X2202309Y-51809053D01*
X2223750Y-51808000D01*
X2736250Y-51808000D01*
X2757691Y-51809053D01*
X2757691Y-51809053D01*
G37*
D20*
X2480000Y-52245500D03*
D19*
G36*
X2757691Y-50234053D02*
X2778926Y-50237203D01*
X2799750Y-50242419D01*
X2819962Y-50249651D01*
X2839368Y-50258830D01*
X2857781Y-50269866D01*
X2875024Y-50282654D01*
X2890930Y-50297070D01*
X2905346Y-50312976D01*
X2918134Y-50330219D01*
X2929170Y-50348632D01*
X2938349Y-50368038D01*
X2945581Y-50388250D01*
X2950797Y-50409074D01*
X2953947Y-50430309D01*
X2955000Y-50451750D01*
X2955000Y-50889250D01*
X2953947Y-50910691D01*
X2950797Y-50931926D01*
X2945581Y-50952750D01*
X2938349Y-50972962D01*
X2929170Y-50992368D01*
X2918134Y-51010781D01*
X2905346Y-51028024D01*
X2890930Y-51043930D01*
X2875024Y-51058346D01*
X2857781Y-51071134D01*
X2839368Y-51082170D01*
X2819962Y-51091349D01*
X2799750Y-51098581D01*
X2778926Y-51103797D01*
X2757691Y-51106947D01*
X2736250Y-51108000D01*
X2223750Y-51108000D01*
X2202309Y-51106947D01*
X2181074Y-51103797D01*
X2160250Y-51098581D01*
X2140038Y-51091349D01*
X2120632Y-51082170D01*
X2102219Y-51071134D01*
X2084976Y-51058346D01*
X2069070Y-51043930D01*
X2054654Y-51028024D01*
X2041866Y-51010781D01*
X2030830Y-50992368D01*
X2021651Y-50972962D01*
X2014419Y-50952750D01*
X2009203Y-50931926D01*
X2006053Y-50910691D01*
X2005000Y-50889250D01*
X2005000Y-50451750D01*
X2006053Y-50430309D01*
X2009203Y-50409074D01*
X2014419Y-50388250D01*
X2021651Y-50368038D01*
X2030830Y-50348632D01*
X2041866Y-50330219D01*
X2054654Y-50312976D01*
X2069070Y-50297070D01*
X2084976Y-50282654D01*
X2102219Y-50269866D01*
X2120632Y-50258830D01*
X2140038Y-50249651D01*
X2160250Y-50242419D01*
X2181074Y-50237203D01*
X2202309Y-50234053D01*
X2223750Y-50233000D01*
X2736250Y-50233000D01*
X2757691Y-50234053D01*
X2757691Y-50234053D01*
G37*
D20*
X2480000Y-50670500D03*
D26*
X153610000Y-38726000D03*
D25*
X153610000Y-36726000D03*
D28*
X85347500Y-77145020D03*
D29*
X85347500Y-92385020D03*
D19*
G36*
X33999691Y-50996053D02*
X34020926Y-50999203D01*
X34041750Y-51004419D01*
X34061962Y-51011651D01*
X34081368Y-51020830D01*
X34099781Y-51031866D01*
X34117024Y-51044654D01*
X34132930Y-51059070D01*
X34147346Y-51074976D01*
X34160134Y-51092219D01*
X34171170Y-51110632D01*
X34180349Y-51130038D01*
X34187581Y-51150250D01*
X34192797Y-51171074D01*
X34195947Y-51192309D01*
X34197000Y-51213750D01*
X34197000Y-51651250D01*
X34195947Y-51672691D01*
X34192797Y-51693926D01*
X34187581Y-51714750D01*
X34180349Y-51734962D01*
X34171170Y-51754368D01*
X34160134Y-51772781D01*
X34147346Y-51790024D01*
X34132930Y-51805930D01*
X34117024Y-51820346D01*
X34099781Y-51833134D01*
X34081368Y-51844170D01*
X34061962Y-51853349D01*
X34041750Y-51860581D01*
X34020926Y-51865797D01*
X33999691Y-51868947D01*
X33978250Y-51870000D01*
X33465750Y-51870000D01*
X33444309Y-51868947D01*
X33423074Y-51865797D01*
X33402250Y-51860581D01*
X33382038Y-51853349D01*
X33362632Y-51844170D01*
X33344219Y-51833134D01*
X33326976Y-51820346D01*
X33311070Y-51805930D01*
X33296654Y-51790024D01*
X33283866Y-51772781D01*
X33272830Y-51754368D01*
X33263651Y-51734962D01*
X33256419Y-51714750D01*
X33251203Y-51693926D01*
X33248053Y-51672691D01*
X33247000Y-51651250D01*
X33247000Y-51213750D01*
X33248053Y-51192309D01*
X33251203Y-51171074D01*
X33256419Y-51150250D01*
X33263651Y-51130038D01*
X33272830Y-51110632D01*
X33283866Y-51092219D01*
X33296654Y-51074976D01*
X33311070Y-51059070D01*
X33326976Y-51044654D01*
X33344219Y-51031866D01*
X33362632Y-51020830D01*
X33382038Y-51011651D01*
X33402250Y-51004419D01*
X33423074Y-50999203D01*
X33444309Y-50996053D01*
X33465750Y-50995000D01*
X33978250Y-50995000D01*
X33999691Y-50996053D01*
X33999691Y-50996053D01*
G37*
D20*
X33722000Y-51432500D03*
D19*
G36*
X33999691Y-52571053D02*
X34020926Y-52574203D01*
X34041750Y-52579419D01*
X34061962Y-52586651D01*
X34081368Y-52595830D01*
X34099781Y-52606866D01*
X34117024Y-52619654D01*
X34132930Y-52634070D01*
X34147346Y-52649976D01*
X34160134Y-52667219D01*
X34171170Y-52685632D01*
X34180349Y-52705038D01*
X34187581Y-52725250D01*
X34192797Y-52746074D01*
X34195947Y-52767309D01*
X34197000Y-52788750D01*
X34197000Y-53226250D01*
X34195947Y-53247691D01*
X34192797Y-53268926D01*
X34187581Y-53289750D01*
X34180349Y-53309962D01*
X34171170Y-53329368D01*
X34160134Y-53347781D01*
X34147346Y-53365024D01*
X34132930Y-53380930D01*
X34117024Y-53395346D01*
X34099781Y-53408134D01*
X34081368Y-53419170D01*
X34061962Y-53428349D01*
X34041750Y-53435581D01*
X34020926Y-53440797D01*
X33999691Y-53443947D01*
X33978250Y-53445000D01*
X33465750Y-53445000D01*
X33444309Y-53443947D01*
X33423074Y-53440797D01*
X33402250Y-53435581D01*
X33382038Y-53428349D01*
X33362632Y-53419170D01*
X33344219Y-53408134D01*
X33326976Y-53395346D01*
X33311070Y-53380930D01*
X33296654Y-53365024D01*
X33283866Y-53347781D01*
X33272830Y-53329368D01*
X33263651Y-53309962D01*
X33256419Y-53289750D01*
X33251203Y-53268926D01*
X33248053Y-53247691D01*
X33247000Y-53226250D01*
X33247000Y-52788750D01*
X33248053Y-52767309D01*
X33251203Y-52746074D01*
X33256419Y-52725250D01*
X33263651Y-52705038D01*
X33272830Y-52685632D01*
X33283866Y-52667219D01*
X33296654Y-52649976D01*
X33311070Y-52634070D01*
X33326976Y-52619654D01*
X33344219Y-52606866D01*
X33362632Y-52595830D01*
X33382038Y-52586651D01*
X33402250Y-52579419D01*
X33423074Y-52574203D01*
X33444309Y-52571053D01*
X33465750Y-52570000D01*
X33978250Y-52570000D01*
X33999691Y-52571053D01*
X33999691Y-52571053D01*
G37*
D20*
X33722000Y-53007500D03*
D19*
G36*
X33999691Y-49523053D02*
X34020926Y-49526203D01*
X34041750Y-49531419D01*
X34061962Y-49538651D01*
X34081368Y-49547830D01*
X34099781Y-49558866D01*
X34117024Y-49571654D01*
X34132930Y-49586070D01*
X34147346Y-49601976D01*
X34160134Y-49619219D01*
X34171170Y-49637632D01*
X34180349Y-49657038D01*
X34187581Y-49677250D01*
X34192797Y-49698074D01*
X34195947Y-49719309D01*
X34197000Y-49740750D01*
X34197000Y-50178250D01*
X34195947Y-50199691D01*
X34192797Y-50220926D01*
X34187581Y-50241750D01*
X34180349Y-50261962D01*
X34171170Y-50281368D01*
X34160134Y-50299781D01*
X34147346Y-50317024D01*
X34132930Y-50332930D01*
X34117024Y-50347346D01*
X34099781Y-50360134D01*
X34081368Y-50371170D01*
X34061962Y-50380349D01*
X34041750Y-50387581D01*
X34020926Y-50392797D01*
X33999691Y-50395947D01*
X33978250Y-50397000D01*
X33465750Y-50397000D01*
X33444309Y-50395947D01*
X33423074Y-50392797D01*
X33402250Y-50387581D01*
X33382038Y-50380349D01*
X33362632Y-50371170D01*
X33344219Y-50360134D01*
X33326976Y-50347346D01*
X33311070Y-50332930D01*
X33296654Y-50317024D01*
X33283866Y-50299781D01*
X33272830Y-50281368D01*
X33263651Y-50261962D01*
X33256419Y-50241750D01*
X33251203Y-50220926D01*
X33248053Y-50199691D01*
X33247000Y-50178250D01*
X33247000Y-49740750D01*
X33248053Y-49719309D01*
X33251203Y-49698074D01*
X33256419Y-49677250D01*
X33263651Y-49657038D01*
X33272830Y-49637632D01*
X33283866Y-49619219D01*
X33296654Y-49601976D01*
X33311070Y-49586070D01*
X33326976Y-49571654D01*
X33344219Y-49558866D01*
X33362632Y-49547830D01*
X33382038Y-49538651D01*
X33402250Y-49531419D01*
X33423074Y-49526203D01*
X33444309Y-49523053D01*
X33465750Y-49522000D01*
X33978250Y-49522000D01*
X33999691Y-49523053D01*
X33999691Y-49523053D01*
G37*
D20*
X33722000Y-49959500D03*
D19*
G36*
X33999691Y-47948053D02*
X34020926Y-47951203D01*
X34041750Y-47956419D01*
X34061962Y-47963651D01*
X34081368Y-47972830D01*
X34099781Y-47983866D01*
X34117024Y-47996654D01*
X34132930Y-48011070D01*
X34147346Y-48026976D01*
X34160134Y-48044219D01*
X34171170Y-48062632D01*
X34180349Y-48082038D01*
X34187581Y-48102250D01*
X34192797Y-48123074D01*
X34195947Y-48144309D01*
X34197000Y-48165750D01*
X34197000Y-48603250D01*
X34195947Y-48624691D01*
X34192797Y-48645926D01*
X34187581Y-48666750D01*
X34180349Y-48686962D01*
X34171170Y-48706368D01*
X34160134Y-48724781D01*
X34147346Y-48742024D01*
X34132930Y-48757930D01*
X34117024Y-48772346D01*
X34099781Y-48785134D01*
X34081368Y-48796170D01*
X34061962Y-48805349D01*
X34041750Y-48812581D01*
X34020926Y-48817797D01*
X33999691Y-48820947D01*
X33978250Y-48822000D01*
X33465750Y-48822000D01*
X33444309Y-48820947D01*
X33423074Y-48817797D01*
X33402250Y-48812581D01*
X33382038Y-48805349D01*
X33362632Y-48796170D01*
X33344219Y-48785134D01*
X33326976Y-48772346D01*
X33311070Y-48757930D01*
X33296654Y-48742024D01*
X33283866Y-48724781D01*
X33272830Y-48706368D01*
X33263651Y-48686962D01*
X33256419Y-48666750D01*
X33251203Y-48645926D01*
X33248053Y-48624691D01*
X33247000Y-48603250D01*
X33247000Y-48165750D01*
X33248053Y-48144309D01*
X33251203Y-48123074D01*
X33256419Y-48102250D01*
X33263651Y-48082038D01*
X33272830Y-48062632D01*
X33283866Y-48044219D01*
X33296654Y-48026976D01*
X33311070Y-48011070D01*
X33326976Y-47996654D01*
X33344219Y-47983866D01*
X33362632Y-47972830D01*
X33382038Y-47963651D01*
X33402250Y-47956419D01*
X33423074Y-47951203D01*
X33444309Y-47948053D01*
X33465750Y-47947000D01*
X33978250Y-47947000D01*
X33999691Y-47948053D01*
X33999691Y-47948053D01*
G37*
D20*
X33722000Y-48384500D03*
D30*
X27880000Y-46410000D03*
X27880000Y-48410000D03*
X27880000Y-50410000D03*
D28*
X80585000Y-77145020D03*
D29*
X80585000Y-92385020D03*
D19*
G36*
X174080691Y-81654053D02*
X174101926Y-81657203D01*
X174122750Y-81662419D01*
X174142962Y-81669651D01*
X174162368Y-81678830D01*
X174180781Y-81689866D01*
X174198024Y-81702654D01*
X174213930Y-81717070D01*
X174228346Y-81732976D01*
X174241134Y-81750219D01*
X174252170Y-81768632D01*
X174261349Y-81788038D01*
X174268581Y-81808250D01*
X174273797Y-81829074D01*
X174276947Y-81850309D01*
X174278000Y-81871750D01*
X174278000Y-82309250D01*
X174276947Y-82330691D01*
X174273797Y-82351926D01*
X174268581Y-82372750D01*
X174261349Y-82392962D01*
X174252170Y-82412368D01*
X174241134Y-82430781D01*
X174228346Y-82448024D01*
X174213930Y-82463930D01*
X174198024Y-82478346D01*
X174180781Y-82491134D01*
X174162368Y-82502170D01*
X174142962Y-82511349D01*
X174122750Y-82518581D01*
X174101926Y-82523797D01*
X174080691Y-82526947D01*
X174059250Y-82528000D01*
X173546750Y-82528000D01*
X173525309Y-82526947D01*
X173504074Y-82523797D01*
X173483250Y-82518581D01*
X173463038Y-82511349D01*
X173443632Y-82502170D01*
X173425219Y-82491134D01*
X173407976Y-82478346D01*
X173392070Y-82463930D01*
X173377654Y-82448024D01*
X173364866Y-82430781D01*
X173353830Y-82412368D01*
X173344651Y-82392962D01*
X173337419Y-82372750D01*
X173332203Y-82351926D01*
X173329053Y-82330691D01*
X173328000Y-82309250D01*
X173328000Y-81871750D01*
X173329053Y-81850309D01*
X173332203Y-81829074D01*
X173337419Y-81808250D01*
X173344651Y-81788038D01*
X173353830Y-81768632D01*
X173364866Y-81750219D01*
X173377654Y-81732976D01*
X173392070Y-81717070D01*
X173407976Y-81702654D01*
X173425219Y-81689866D01*
X173443632Y-81678830D01*
X173463038Y-81669651D01*
X173483250Y-81662419D01*
X173504074Y-81657203D01*
X173525309Y-81654053D01*
X173546750Y-81653000D01*
X174059250Y-81653000D01*
X174080691Y-81654053D01*
X174080691Y-81654053D01*
G37*
D20*
X173803000Y-82090500D03*
D19*
G36*
X174080691Y-80079053D02*
X174101926Y-80082203D01*
X174122750Y-80087419D01*
X174142962Y-80094651D01*
X174162368Y-80103830D01*
X174180781Y-80114866D01*
X174198024Y-80127654D01*
X174213930Y-80142070D01*
X174228346Y-80157976D01*
X174241134Y-80175219D01*
X174252170Y-80193632D01*
X174261349Y-80213038D01*
X174268581Y-80233250D01*
X174273797Y-80254074D01*
X174276947Y-80275309D01*
X174278000Y-80296750D01*
X174278000Y-80734250D01*
X174276947Y-80755691D01*
X174273797Y-80776926D01*
X174268581Y-80797750D01*
X174261349Y-80817962D01*
X174252170Y-80837368D01*
X174241134Y-80855781D01*
X174228346Y-80873024D01*
X174213930Y-80888930D01*
X174198024Y-80903346D01*
X174180781Y-80916134D01*
X174162368Y-80927170D01*
X174142962Y-80936349D01*
X174122750Y-80943581D01*
X174101926Y-80948797D01*
X174080691Y-80951947D01*
X174059250Y-80953000D01*
X173546750Y-80953000D01*
X173525309Y-80951947D01*
X173504074Y-80948797D01*
X173483250Y-80943581D01*
X173463038Y-80936349D01*
X173443632Y-80927170D01*
X173425219Y-80916134D01*
X173407976Y-80903346D01*
X173392070Y-80888930D01*
X173377654Y-80873024D01*
X173364866Y-80855781D01*
X173353830Y-80837368D01*
X173344651Y-80817962D01*
X173337419Y-80797750D01*
X173332203Y-80776926D01*
X173329053Y-80755691D01*
X173328000Y-80734250D01*
X173328000Y-80296750D01*
X173329053Y-80275309D01*
X173332203Y-80254074D01*
X173337419Y-80233250D01*
X173344651Y-80213038D01*
X173353830Y-80193632D01*
X173364866Y-80175219D01*
X173377654Y-80157976D01*
X173392070Y-80142070D01*
X173407976Y-80127654D01*
X173425219Y-80114866D01*
X173443632Y-80103830D01*
X173463038Y-80094651D01*
X173483250Y-80087419D01*
X173504074Y-80082203D01*
X173525309Y-80079053D01*
X173546750Y-80078000D01*
X174059250Y-80078000D01*
X174080691Y-80079053D01*
X174080691Y-80079053D01*
G37*
D20*
X173803000Y-80515500D03*
D31*
X260290000Y-19692000D03*
X261240000Y-17692000D03*
X259340000Y-17692000D03*
X242190000Y-76842000D03*
X240290000Y-76842000D03*
X241240000Y-74842000D03*
X232858000Y-74842000D03*
X231908000Y-76842000D03*
X233808000Y-76842000D03*
X215012000Y-76842000D03*
X213112000Y-76842000D03*
X214062000Y-74842000D03*
X261052000Y-74842000D03*
X260102000Y-76842000D03*
X262002000Y-76842000D03*
X54042000Y-74842000D03*
X53092000Y-76842000D03*
X54992000Y-76842000D03*
X119762000Y-76842000D03*
X117862000Y-76842000D03*
X118812000Y-74842000D03*
X46356000Y-76842000D03*
X44456000Y-76842000D03*
X45406000Y-74842000D03*
X20006000Y-74842000D03*
X19056000Y-76842000D03*
X20956000Y-76842000D03*
X271278000Y-17692000D03*
X273178000Y-17692000D03*
X272228000Y-19692000D03*
D28*
X180597500Y-77145020D03*
D29*
X180597500Y-92385020D03*
D28*
X278230020Y-17455020D03*
D29*
X278230020Y-2215020D03*
D28*
X9147500Y-74605020D03*
D29*
X9147500Y-59365020D03*
D28*
X32960000Y-74605020D03*
D29*
X32960000Y-59365020D03*
D28*
X247272500Y-74605020D03*
D29*
X247272500Y-59365020D03*
D28*
X275847500Y-55553750D03*
D29*
X275847500Y-40313750D03*
D28*
X252035000Y-55555020D03*
D29*
X252035000Y-40315020D03*
D28*
X281722520Y-25867500D03*
D29*
X266482520Y-25867500D03*
D28*
X281722520Y-49680000D03*
D29*
X266482520Y-49680000D03*
D28*
X254417520Y-17455020D03*
D29*
X254417520Y-2215020D03*
D28*
X66297500Y-77145020D03*
D29*
X66297500Y-92385020D03*
D28*
X199647500Y-77145020D03*
D29*
X199647500Y-92385020D03*
D28*
X271085000Y-74603750D03*
D29*
X271085000Y-59363750D03*
D19*
G36*
X169127691Y-84829053D02*
X169148926Y-84832203D01*
X169169750Y-84837419D01*
X169189962Y-84844651D01*
X169209368Y-84853830D01*
X169227781Y-84864866D01*
X169245024Y-84877654D01*
X169260930Y-84892070D01*
X169275346Y-84907976D01*
X169288134Y-84925219D01*
X169299170Y-84943632D01*
X169308349Y-84963038D01*
X169315581Y-84983250D01*
X169320797Y-85004074D01*
X169323947Y-85025309D01*
X169325000Y-85046750D01*
X169325000Y-85484250D01*
X169323947Y-85505691D01*
X169320797Y-85526926D01*
X169315581Y-85547750D01*
X169308349Y-85567962D01*
X169299170Y-85587368D01*
X169288134Y-85605781D01*
X169275346Y-85623024D01*
X169260930Y-85638930D01*
X169245024Y-85653346D01*
X169227781Y-85666134D01*
X169209368Y-85677170D01*
X169189962Y-85686349D01*
X169169750Y-85693581D01*
X169148926Y-85698797D01*
X169127691Y-85701947D01*
X169106250Y-85703000D01*
X168593750Y-85703000D01*
X168572309Y-85701947D01*
X168551074Y-85698797D01*
X168530250Y-85693581D01*
X168510038Y-85686349D01*
X168490632Y-85677170D01*
X168472219Y-85666134D01*
X168454976Y-85653346D01*
X168439070Y-85638930D01*
X168424654Y-85623024D01*
X168411866Y-85605781D01*
X168400830Y-85587368D01*
X168391651Y-85567962D01*
X168384419Y-85547750D01*
X168379203Y-85526926D01*
X168376053Y-85505691D01*
X168375000Y-85484250D01*
X168375000Y-85046750D01*
X168376053Y-85025309D01*
X168379203Y-85004074D01*
X168384419Y-84983250D01*
X168391651Y-84963038D01*
X168400830Y-84943632D01*
X168411866Y-84925219D01*
X168424654Y-84907976D01*
X168439070Y-84892070D01*
X168454976Y-84877654D01*
X168472219Y-84864866D01*
X168490632Y-84853830D01*
X168510038Y-84844651D01*
X168530250Y-84837419D01*
X168551074Y-84832203D01*
X168572309Y-84829053D01*
X168593750Y-84828000D01*
X169106250Y-84828000D01*
X169127691Y-84829053D01*
X169127691Y-84829053D01*
G37*
D20*
X168850000Y-85265500D03*
D19*
G36*
X169127691Y-83254053D02*
X169148926Y-83257203D01*
X169169750Y-83262419D01*
X169189962Y-83269651D01*
X169209368Y-83278830D01*
X169227781Y-83289866D01*
X169245024Y-83302654D01*
X169260930Y-83317070D01*
X169275346Y-83332976D01*
X169288134Y-83350219D01*
X169299170Y-83368632D01*
X169308349Y-83388038D01*
X169315581Y-83408250D01*
X169320797Y-83429074D01*
X169323947Y-83450309D01*
X169325000Y-83471750D01*
X169325000Y-83909250D01*
X169323947Y-83930691D01*
X169320797Y-83951926D01*
X169315581Y-83972750D01*
X169308349Y-83992962D01*
X169299170Y-84012368D01*
X169288134Y-84030781D01*
X169275346Y-84048024D01*
X169260930Y-84063930D01*
X169245024Y-84078346D01*
X169227781Y-84091134D01*
X169209368Y-84102170D01*
X169189962Y-84111349D01*
X169169750Y-84118581D01*
X169148926Y-84123797D01*
X169127691Y-84126947D01*
X169106250Y-84128000D01*
X168593750Y-84128000D01*
X168572309Y-84126947D01*
X168551074Y-84123797D01*
X168530250Y-84118581D01*
X168510038Y-84111349D01*
X168490632Y-84102170D01*
X168472219Y-84091134D01*
X168454976Y-84078346D01*
X168439070Y-84063930D01*
X168424654Y-84048024D01*
X168411866Y-84030781D01*
X168400830Y-84012368D01*
X168391651Y-83992962D01*
X168384419Y-83972750D01*
X168379203Y-83951926D01*
X168376053Y-83930691D01*
X168375000Y-83909250D01*
X168375000Y-83471750D01*
X168376053Y-83450309D01*
X168379203Y-83429074D01*
X168384419Y-83408250D01*
X168391651Y-83388038D01*
X168400830Y-83368632D01*
X168411866Y-83350219D01*
X168424654Y-83332976D01*
X168439070Y-83317070D01*
X168454976Y-83302654D01*
X168472219Y-83289866D01*
X168490632Y-83278830D01*
X168510038Y-83269651D01*
X168530250Y-83262419D01*
X168551074Y-83257203D01*
X168572309Y-83254053D01*
X168593750Y-83253000D01*
X169106250Y-83253000D01*
X169127691Y-83254053D01*
X169127691Y-83254053D01*
G37*
D20*
X168850000Y-83690500D03*
D19*
G36*
X176747691Y-82619053D02*
X176768926Y-82622203D01*
X176789750Y-82627419D01*
X176809962Y-82634651D01*
X176829368Y-82643830D01*
X176847781Y-82654866D01*
X176865024Y-82667654D01*
X176880930Y-82682070D01*
X176895346Y-82697976D01*
X176908134Y-82715219D01*
X176919170Y-82733632D01*
X176928349Y-82753038D01*
X176935581Y-82773250D01*
X176940797Y-82794074D01*
X176943947Y-82815309D01*
X176945000Y-82836750D01*
X176945000Y-83274250D01*
X176943947Y-83295691D01*
X176940797Y-83316926D01*
X176935581Y-83337750D01*
X176928349Y-83357962D01*
X176919170Y-83377368D01*
X176908134Y-83395781D01*
X176895346Y-83413024D01*
X176880930Y-83428930D01*
X176865024Y-83443346D01*
X176847781Y-83456134D01*
X176829368Y-83467170D01*
X176809962Y-83476349D01*
X176789750Y-83483581D01*
X176768926Y-83488797D01*
X176747691Y-83491947D01*
X176726250Y-83493000D01*
X176213750Y-83493000D01*
X176192309Y-83491947D01*
X176171074Y-83488797D01*
X176150250Y-83483581D01*
X176130038Y-83476349D01*
X176110632Y-83467170D01*
X176092219Y-83456134D01*
X176074976Y-83443346D01*
X176059070Y-83428930D01*
X176044654Y-83413024D01*
X176031866Y-83395781D01*
X176020830Y-83377368D01*
X176011651Y-83357962D01*
X176004419Y-83337750D01*
X175999203Y-83316926D01*
X175996053Y-83295691D01*
X175995000Y-83274250D01*
X175995000Y-82836750D01*
X175996053Y-82815309D01*
X175999203Y-82794074D01*
X176004419Y-82773250D01*
X176011651Y-82753038D01*
X176020830Y-82733632D01*
X176031866Y-82715219D01*
X176044654Y-82697976D01*
X176059070Y-82682070D01*
X176074976Y-82667654D01*
X176092219Y-82654866D01*
X176110632Y-82643830D01*
X176130038Y-82634651D01*
X176150250Y-82627419D01*
X176171074Y-82622203D01*
X176192309Y-82619053D01*
X176213750Y-82618000D01*
X176726250Y-82618000D01*
X176747691Y-82619053D01*
X176747691Y-82619053D01*
G37*
D20*
X176470000Y-83055500D03*
D19*
G36*
X176747691Y-84194053D02*
X176768926Y-84197203D01*
X176789750Y-84202419D01*
X176809962Y-84209651D01*
X176829368Y-84218830D01*
X176847781Y-84229866D01*
X176865024Y-84242654D01*
X176880930Y-84257070D01*
X176895346Y-84272976D01*
X176908134Y-84290219D01*
X176919170Y-84308632D01*
X176928349Y-84328038D01*
X176935581Y-84348250D01*
X176940797Y-84369074D01*
X176943947Y-84390309D01*
X176945000Y-84411750D01*
X176945000Y-84849250D01*
X176943947Y-84870691D01*
X176940797Y-84891926D01*
X176935581Y-84912750D01*
X176928349Y-84932962D01*
X176919170Y-84952368D01*
X176908134Y-84970781D01*
X176895346Y-84988024D01*
X176880930Y-85003930D01*
X176865024Y-85018346D01*
X176847781Y-85031134D01*
X176829368Y-85042170D01*
X176809962Y-85051349D01*
X176789750Y-85058581D01*
X176768926Y-85063797D01*
X176747691Y-85066947D01*
X176726250Y-85068000D01*
X176213750Y-85068000D01*
X176192309Y-85066947D01*
X176171074Y-85063797D01*
X176150250Y-85058581D01*
X176130038Y-85051349D01*
X176110632Y-85042170D01*
X176092219Y-85031134D01*
X176074976Y-85018346D01*
X176059070Y-85003930D01*
X176044654Y-84988024D01*
X176031866Y-84970781D01*
X176020830Y-84952368D01*
X176011651Y-84932962D01*
X176004419Y-84912750D01*
X175999203Y-84891926D01*
X175996053Y-84870691D01*
X175995000Y-84849250D01*
X175995000Y-84411750D01*
X175996053Y-84390309D01*
X175999203Y-84369074D01*
X176004419Y-84348250D01*
X176011651Y-84328038D01*
X176020830Y-84308632D01*
X176031866Y-84290219D01*
X176044654Y-84272976D01*
X176059070Y-84257070D01*
X176074976Y-84242654D01*
X176092219Y-84229866D01*
X176110632Y-84218830D01*
X176130038Y-84209651D01*
X176150250Y-84202419D01*
X176171074Y-84197203D01*
X176192309Y-84194053D01*
X176213750Y-84193000D01*
X176726250Y-84193000D01*
X176747691Y-84194053D01*
X176747691Y-84194053D01*
G37*
D20*
X176470000Y-84630500D03*
D19*
G36*
X98271345Y-78936053D02*
X98292580Y-78939203D01*
X98313404Y-78944419D01*
X98333616Y-78951651D01*
X98353022Y-78960830D01*
X98371435Y-78971866D01*
X98388678Y-78984654D01*
X98404584Y-78999070D01*
X98419000Y-79014976D01*
X98431788Y-79032219D01*
X98442824Y-79050632D01*
X98452003Y-79070038D01*
X98459235Y-79090250D01*
X98464451Y-79111074D01*
X98467601Y-79132309D01*
X98468654Y-79153750D01*
X98468654Y-79591250D01*
X98467601Y-79612691D01*
X98464451Y-79633926D01*
X98459235Y-79654750D01*
X98452003Y-79674962D01*
X98442824Y-79694368D01*
X98431788Y-79712781D01*
X98419000Y-79730024D01*
X98404584Y-79745930D01*
X98388678Y-79760346D01*
X98371435Y-79773134D01*
X98353022Y-79784170D01*
X98333616Y-79793349D01*
X98313404Y-79800581D01*
X98292580Y-79805797D01*
X98271345Y-79808947D01*
X98249904Y-79810000D01*
X97737404Y-79810000D01*
X97715963Y-79808947D01*
X97694728Y-79805797D01*
X97673904Y-79800581D01*
X97653692Y-79793349D01*
X97634286Y-79784170D01*
X97615873Y-79773134D01*
X97598630Y-79760346D01*
X97582724Y-79745930D01*
X97568308Y-79730024D01*
X97555520Y-79712781D01*
X97544484Y-79694368D01*
X97535305Y-79674962D01*
X97528073Y-79654750D01*
X97522857Y-79633926D01*
X97519707Y-79612691D01*
X97518654Y-79591250D01*
X97518654Y-79153750D01*
X97519707Y-79132309D01*
X97522857Y-79111074D01*
X97528073Y-79090250D01*
X97535305Y-79070038D01*
X97544484Y-79050632D01*
X97555520Y-79032219D01*
X97568308Y-79014976D01*
X97582724Y-78999070D01*
X97598630Y-78984654D01*
X97615873Y-78971866D01*
X97634286Y-78960830D01*
X97653692Y-78951651D01*
X97673904Y-78944419D01*
X97694728Y-78939203D01*
X97715963Y-78936053D01*
X97737404Y-78935000D01*
X98249904Y-78935000D01*
X98271345Y-78936053D01*
X98271345Y-78936053D01*
G37*
D20*
X97993654Y-79372500D03*
D19*
G36*
X98271345Y-80511053D02*
X98292580Y-80514203D01*
X98313404Y-80519419D01*
X98333616Y-80526651D01*
X98353022Y-80535830D01*
X98371435Y-80546866D01*
X98388678Y-80559654D01*
X98404584Y-80574070D01*
X98419000Y-80589976D01*
X98431788Y-80607219D01*
X98442824Y-80625632D01*
X98452003Y-80645038D01*
X98459235Y-80665250D01*
X98464451Y-80686074D01*
X98467601Y-80707309D01*
X98468654Y-80728750D01*
X98468654Y-81166250D01*
X98467601Y-81187691D01*
X98464451Y-81208926D01*
X98459235Y-81229750D01*
X98452003Y-81249962D01*
X98442824Y-81269368D01*
X98431788Y-81287781D01*
X98419000Y-81305024D01*
X98404584Y-81320930D01*
X98388678Y-81335346D01*
X98371435Y-81348134D01*
X98353022Y-81359170D01*
X98333616Y-81368349D01*
X98313404Y-81375581D01*
X98292580Y-81380797D01*
X98271345Y-81383947D01*
X98249904Y-81385000D01*
X97737404Y-81385000D01*
X97715963Y-81383947D01*
X97694728Y-81380797D01*
X97673904Y-81375581D01*
X97653692Y-81368349D01*
X97634286Y-81359170D01*
X97615873Y-81348134D01*
X97598630Y-81335346D01*
X97582724Y-81320930D01*
X97568308Y-81305024D01*
X97555520Y-81287781D01*
X97544484Y-81269368D01*
X97535305Y-81249962D01*
X97528073Y-81229750D01*
X97522857Y-81208926D01*
X97519707Y-81187691D01*
X97518654Y-81166250D01*
X97518654Y-80728750D01*
X97519707Y-80707309D01*
X97522857Y-80686074D01*
X97528073Y-80665250D01*
X97535305Y-80645038D01*
X97544484Y-80625632D01*
X97555520Y-80607219D01*
X97568308Y-80589976D01*
X97582724Y-80574070D01*
X97598630Y-80559654D01*
X97615873Y-80546866D01*
X97634286Y-80535830D01*
X97653692Y-80526651D01*
X97673904Y-80519419D01*
X97694728Y-80514203D01*
X97715963Y-80511053D01*
X97737404Y-80510000D01*
X98249904Y-80510000D01*
X98271345Y-80511053D01*
X98271345Y-80511053D01*
G37*
D20*
X97993654Y-80947500D03*
D19*
G36*
X92683345Y-78936053D02*
X92704580Y-78939203D01*
X92725404Y-78944419D01*
X92745616Y-78951651D01*
X92765022Y-78960830D01*
X92783435Y-78971866D01*
X92800678Y-78984654D01*
X92816584Y-78999070D01*
X92831000Y-79014976D01*
X92843788Y-79032219D01*
X92854824Y-79050632D01*
X92864003Y-79070038D01*
X92871235Y-79090250D01*
X92876451Y-79111074D01*
X92879601Y-79132309D01*
X92880654Y-79153750D01*
X92880654Y-79591250D01*
X92879601Y-79612691D01*
X92876451Y-79633926D01*
X92871235Y-79654750D01*
X92864003Y-79674962D01*
X92854824Y-79694368D01*
X92843788Y-79712781D01*
X92831000Y-79730024D01*
X92816584Y-79745930D01*
X92800678Y-79760346D01*
X92783435Y-79773134D01*
X92765022Y-79784170D01*
X92745616Y-79793349D01*
X92725404Y-79800581D01*
X92704580Y-79805797D01*
X92683345Y-79808947D01*
X92661904Y-79810000D01*
X92149404Y-79810000D01*
X92127963Y-79808947D01*
X92106728Y-79805797D01*
X92085904Y-79800581D01*
X92065692Y-79793349D01*
X92046286Y-79784170D01*
X92027873Y-79773134D01*
X92010630Y-79760346D01*
X91994724Y-79745930D01*
X91980308Y-79730024D01*
X91967520Y-79712781D01*
X91956484Y-79694368D01*
X91947305Y-79674962D01*
X91940073Y-79654750D01*
X91934857Y-79633926D01*
X91931707Y-79612691D01*
X91930654Y-79591250D01*
X91930654Y-79153750D01*
X91931707Y-79132309D01*
X91934857Y-79111074D01*
X91940073Y-79090250D01*
X91947305Y-79070038D01*
X91956484Y-79050632D01*
X91967520Y-79032219D01*
X91980308Y-79014976D01*
X91994724Y-78999070D01*
X92010630Y-78984654D01*
X92027873Y-78971866D01*
X92046286Y-78960830D01*
X92065692Y-78951651D01*
X92085904Y-78944419D01*
X92106728Y-78939203D01*
X92127963Y-78936053D01*
X92149404Y-78935000D01*
X92661904Y-78935000D01*
X92683345Y-78936053D01*
X92683345Y-78936053D01*
G37*
D20*
X92405654Y-79372500D03*
D19*
G36*
X92683345Y-80511053D02*
X92704580Y-80514203D01*
X92725404Y-80519419D01*
X92745616Y-80526651D01*
X92765022Y-80535830D01*
X92783435Y-80546866D01*
X92800678Y-80559654D01*
X92816584Y-80574070D01*
X92831000Y-80589976D01*
X92843788Y-80607219D01*
X92854824Y-80625632D01*
X92864003Y-80645038D01*
X92871235Y-80665250D01*
X92876451Y-80686074D01*
X92879601Y-80707309D01*
X92880654Y-80728750D01*
X92880654Y-81166250D01*
X92879601Y-81187691D01*
X92876451Y-81208926D01*
X92871235Y-81229750D01*
X92864003Y-81249962D01*
X92854824Y-81269368D01*
X92843788Y-81287781D01*
X92831000Y-81305024D01*
X92816584Y-81320930D01*
X92800678Y-81335346D01*
X92783435Y-81348134D01*
X92765022Y-81359170D01*
X92745616Y-81368349D01*
X92725404Y-81375581D01*
X92704580Y-81380797D01*
X92683345Y-81383947D01*
X92661904Y-81385000D01*
X92149404Y-81385000D01*
X92127963Y-81383947D01*
X92106728Y-81380797D01*
X92085904Y-81375581D01*
X92065692Y-81368349D01*
X92046286Y-81359170D01*
X92027873Y-81348134D01*
X92010630Y-81335346D01*
X91994724Y-81320930D01*
X91980308Y-81305024D01*
X91967520Y-81287781D01*
X91956484Y-81269368D01*
X91947305Y-81249962D01*
X91940073Y-81229750D01*
X91934857Y-81208926D01*
X91931707Y-81187691D01*
X91930654Y-81166250D01*
X91930654Y-80728750D01*
X91931707Y-80707309D01*
X91934857Y-80686074D01*
X91940073Y-80665250D01*
X91947305Y-80645038D01*
X91956484Y-80625632D01*
X91967520Y-80607219D01*
X91980308Y-80589976D01*
X91994724Y-80574070D01*
X92010630Y-80559654D01*
X92027873Y-80546866D01*
X92046286Y-80535830D01*
X92065692Y-80526651D01*
X92085904Y-80519419D01*
X92106728Y-80514203D01*
X92127963Y-80511053D01*
X92149404Y-80510000D01*
X92661904Y-80510000D01*
X92683345Y-80511053D01*
X92683345Y-80511053D01*
G37*
D20*
X92405654Y-80947500D03*
D32*
X25610000Y-35710000D03*
X27610000Y-36660000D03*
X27610000Y-34760000D03*
D33*
X96299654Y-81110000D03*
X96299654Y-79210000D03*
X94099654Y-79210000D03*
X94099654Y-80160000D03*
X94099654Y-81110000D03*
X171560000Y-84605000D03*
X171560000Y-83655000D03*
X171560000Y-85555000D03*
X173760000Y-85555000D03*
X173760000Y-84605000D03*
X173760000Y-83655000D03*
D34*
X102990000Y-89360000D03*
X102990000Y-88610000D03*
X102990000Y-87860000D03*
X102990000Y-87110000D03*
X102990000Y-86360000D03*
X102990000Y-85610000D03*
X102990000Y-84860000D03*
X102990000Y-84110000D03*
X102990000Y-83360000D03*
X102990000Y-82610000D03*
X102990000Y-81860000D03*
X102990000Y-81110000D03*
D35*
X104140000Y-80660000D03*
X104890000Y-80660000D03*
X105640000Y-80660000D03*
X106390000Y-80660000D03*
X107140000Y-80660000D03*
X107890000Y-80660000D03*
X108640000Y-80660000D03*
X109390000Y-80660000D03*
X110140000Y-80660000D03*
X110890000Y-80660000D03*
X111640000Y-80660000D03*
D34*
X112790000Y-81110000D03*
X112790000Y-81860000D03*
X112790000Y-82610000D03*
X112790000Y-83360000D03*
X112790000Y-84110000D03*
X112790000Y-84860000D03*
X112790000Y-85610000D03*
X112790000Y-86360000D03*
X112790000Y-87110000D03*
X112790000Y-87860000D03*
X112790000Y-88610000D03*
X112790000Y-89360000D03*
X112790000Y-90110000D03*
X112790000Y-90860000D03*
X112790000Y-91610000D03*
X112790000Y-92360000D03*
D19*
G36*
X171794691Y-88258053D02*
X171815926Y-88261203D01*
X171836750Y-88266419D01*
X171856962Y-88273651D01*
X171876368Y-88282830D01*
X171894781Y-88293866D01*
X171912024Y-88306654D01*
X171927930Y-88321070D01*
X171942346Y-88336976D01*
X171955134Y-88354219D01*
X171966170Y-88372632D01*
X171975349Y-88392038D01*
X171982581Y-88412250D01*
X171987797Y-88433074D01*
X171990947Y-88454309D01*
X171992000Y-88475750D01*
X171992000Y-88913250D01*
X171990947Y-88934691D01*
X171987797Y-88955926D01*
X171982581Y-88976750D01*
X171975349Y-88996962D01*
X171966170Y-89016368D01*
X171955134Y-89034781D01*
X171942346Y-89052024D01*
X171927930Y-89067930D01*
X171912024Y-89082346D01*
X171894781Y-89095134D01*
X171876368Y-89106170D01*
X171856962Y-89115349D01*
X171836750Y-89122581D01*
X171815926Y-89127797D01*
X171794691Y-89130947D01*
X171773250Y-89132000D01*
X171260750Y-89132000D01*
X171239309Y-89130947D01*
X171218074Y-89127797D01*
X171197250Y-89122581D01*
X171177038Y-89115349D01*
X171157632Y-89106170D01*
X171139219Y-89095134D01*
X171121976Y-89082346D01*
X171106070Y-89067930D01*
X171091654Y-89052024D01*
X171078866Y-89034781D01*
X171067830Y-89016368D01*
X171058651Y-88996962D01*
X171051419Y-88976750D01*
X171046203Y-88955926D01*
X171043053Y-88934691D01*
X171042000Y-88913250D01*
X171042000Y-88475750D01*
X171043053Y-88454309D01*
X171046203Y-88433074D01*
X171051419Y-88412250D01*
X171058651Y-88392038D01*
X171067830Y-88372632D01*
X171078866Y-88354219D01*
X171091654Y-88336976D01*
X171106070Y-88321070D01*
X171121976Y-88306654D01*
X171139219Y-88293866D01*
X171157632Y-88282830D01*
X171177038Y-88273651D01*
X171197250Y-88266419D01*
X171218074Y-88261203D01*
X171239309Y-88258053D01*
X171260750Y-88257000D01*
X171773250Y-88257000D01*
X171794691Y-88258053D01*
X171794691Y-88258053D01*
G37*
D20*
X171517000Y-88694500D03*
D19*
G36*
X171794691Y-86683053D02*
X171815926Y-86686203D01*
X171836750Y-86691419D01*
X171856962Y-86698651D01*
X171876368Y-86707830D01*
X171894781Y-86718866D01*
X171912024Y-86731654D01*
X171927930Y-86746070D01*
X171942346Y-86761976D01*
X171955134Y-86779219D01*
X171966170Y-86797632D01*
X171975349Y-86817038D01*
X171982581Y-86837250D01*
X171987797Y-86858074D01*
X171990947Y-86879309D01*
X171992000Y-86900750D01*
X171992000Y-87338250D01*
X171990947Y-87359691D01*
X171987797Y-87380926D01*
X171982581Y-87401750D01*
X171975349Y-87421962D01*
X171966170Y-87441368D01*
X171955134Y-87459781D01*
X171942346Y-87477024D01*
X171927930Y-87492930D01*
X171912024Y-87507346D01*
X171894781Y-87520134D01*
X171876368Y-87531170D01*
X171856962Y-87540349D01*
X171836750Y-87547581D01*
X171815926Y-87552797D01*
X171794691Y-87555947D01*
X171773250Y-87557000D01*
X171260750Y-87557000D01*
X171239309Y-87555947D01*
X171218074Y-87552797D01*
X171197250Y-87547581D01*
X171177038Y-87540349D01*
X171157632Y-87531170D01*
X171139219Y-87520134D01*
X171121976Y-87507346D01*
X171106070Y-87492930D01*
X171091654Y-87477024D01*
X171078866Y-87459781D01*
X171067830Y-87441368D01*
X171058651Y-87421962D01*
X171051419Y-87401750D01*
X171046203Y-87380926D01*
X171043053Y-87359691D01*
X171042000Y-87338250D01*
X171042000Y-86900750D01*
X171043053Y-86879309D01*
X171046203Y-86858074D01*
X171051419Y-86837250D01*
X171058651Y-86817038D01*
X171067830Y-86797632D01*
X171078866Y-86779219D01*
X171091654Y-86761976D01*
X171106070Y-86746070D01*
X171121976Y-86731654D01*
X171139219Y-86718866D01*
X171157632Y-86707830D01*
X171177038Y-86698651D01*
X171197250Y-86691419D01*
X171218074Y-86686203D01*
X171239309Y-86683053D01*
X171260750Y-86682000D01*
X171773250Y-86682000D01*
X171794691Y-86683053D01*
X171794691Y-86683053D01*
G37*
D20*
X171517000Y-87119500D03*
D23*
X15180000Y-80318750D03*
X274736250Y-42218750D03*
X272196250Y-42218750D03*
X268386250Y-39043750D03*
X268386250Y-36503750D03*
X265052500Y-4118750D03*
X267592500Y-4118750D03*
X12798750Y-61268750D03*
X10258750Y-61268750D03*
X12800020Y-42220020D03*
X10260020Y-42220020D03*
X43755000Y-42218750D03*
X41215000Y-42218750D03*
X62805000Y-42218750D03*
X60265000Y-42218750D03*
X81855000Y-42218750D03*
X79315000Y-42218750D03*
X58042500Y-23168750D03*
X55502500Y-23168750D03*
X274577500Y-61268750D03*
X277117500Y-61268750D03*
X248383750Y-61268750D03*
X250923750Y-61268750D03*
X241240000Y-61268750D03*
X243780000Y-61268750D03*
X257908750Y-61268750D03*
X260448750Y-61268750D03*
X212665000Y-42218750D03*
X215205000Y-42218750D03*
X53280000Y-61268750D03*
X50740000Y-61268750D03*
X34230000Y-61268750D03*
X31690000Y-61268750D03*
X22323750Y-61268750D03*
X19783750Y-61268750D03*
X148530000Y-61268750D03*
X145990000Y-61268750D03*
X129480000Y-61268750D03*
X126940000Y-61268750D03*
X110430000Y-61268750D03*
X107890000Y-61268750D03*
X91380000Y-61268750D03*
X88840000Y-61268750D03*
X231715000Y-42218750D03*
X234255000Y-42218750D03*
X72330000Y-61268750D03*
X69790000Y-61268750D03*
X196155000Y-42218750D03*
X193615000Y-42218750D03*
X177105000Y-42218750D03*
X174565000Y-42218750D03*
X265211250Y-42218750D03*
X262671250Y-42218750D03*
X250765000Y-42218750D03*
X253305000Y-42218750D03*
X167580000Y-61268750D03*
X165040000Y-61268750D03*
X186630000Y-61268750D03*
X184090000Y-61268750D03*
X203140000Y-61268750D03*
X205680000Y-61268750D03*
X222190000Y-61268750D03*
X224730000Y-61268750D03*
X274577500Y-4118750D03*
X277117500Y-4118750D03*
X131861250Y-80318750D03*
X129321250Y-80318750D03*
X236477500Y-4118750D03*
X239017500Y-4118750D03*
X115192500Y-23168750D03*
X112652500Y-23168750D03*
X96142500Y-23168750D03*
X93602500Y-23168750D03*
X217427500Y-4118750D03*
X219967500Y-4118750D03*
X198377500Y-4118750D03*
X200917500Y-4118750D03*
X181867500Y-4118750D03*
X179327500Y-4118750D03*
X162817500Y-4118750D03*
X160277500Y-4118750D03*
X255527500Y-4118750D03*
X258067500Y-4118750D03*
X134242500Y-23168750D03*
X131702500Y-23168750D03*
X67567500Y-4118750D03*
X65027500Y-4118750D03*
X48517500Y-4118750D03*
X45977500Y-4118750D03*
X29467500Y-4118750D03*
X26927500Y-4118750D03*
X143767500Y-4118750D03*
X141227500Y-4118750D03*
X124717500Y-4118750D03*
X122177500Y-4118750D03*
X105667500Y-4118750D03*
X103127500Y-4118750D03*
X86617500Y-4118750D03*
X84077500Y-4118750D03*
X153292500Y-23168750D03*
X150752500Y-23168750D03*
X15180000Y-23168750D03*
X12640000Y-23168750D03*
X38992500Y-23168750D03*
X36452500Y-23168750D03*
X77092500Y-23168750D03*
X74552500Y-23168750D03*
X246002500Y-23168750D03*
X248542500Y-23168750D03*
X269815000Y-23168750D03*
X272355000Y-23168750D03*
X172342500Y-23168750D03*
X169802500Y-23168750D03*
X191392500Y-23168750D03*
X188852500Y-23168750D03*
X207902500Y-23168750D03*
X210442500Y-23168750D03*
X226952500Y-23168750D03*
X229492500Y-23168750D03*
X100905000Y-42218750D03*
X98365000Y-42218750D03*
X119955000Y-42218750D03*
X117415000Y-42218750D03*
X139005000Y-42218750D03*
X136465000Y-42218750D03*
X158055000Y-42218750D03*
X155515000Y-42218750D03*
X143767500Y-80318750D03*
X141227500Y-80318750D03*
X124717500Y-80318750D03*
X122177500Y-80318750D03*
X267433750Y-61268750D03*
X269973750Y-61268750D03*
D12*
X11212520Y-47300020D03*
X21372520Y-47300020D03*
D36*
X20102520Y-49840020D03*
X13752520Y-52380020D03*
D28*
X16292520Y-47300020D03*
D12*
X194567500Y-9200020D03*
X204727500Y-9200020D03*
D36*
X203457500Y-11740020D03*
X197107500Y-14280020D03*
D28*
X199647500Y-9200020D03*
D12*
X89792500Y-28250020D03*
X99952500Y-28250020D03*
D36*
X98682500Y-30790020D03*
X92332500Y-33330020D03*
D28*
X94872500Y-28250020D03*
D12*
X108842500Y-28250020D03*
X119002500Y-28250020D03*
D36*
X117732500Y-30790020D03*
X111382500Y-33330020D03*
D28*
X113922500Y-28250020D03*
D12*
X146942500Y-28250020D03*
X157102500Y-28250020D03*
D36*
X155832500Y-30790020D03*
X149482500Y-33330020D03*
D28*
X152022500Y-28250020D03*
D12*
X165992500Y-28250020D03*
X176152500Y-28250020D03*
D36*
X174882500Y-30790020D03*
X168532500Y-33330020D03*
D28*
X171072500Y-28250020D03*
D12*
X185042500Y-28250020D03*
X195202500Y-28250020D03*
D36*
X193932500Y-30790020D03*
X187582500Y-33330020D03*
D28*
X190122500Y-28250020D03*
D12*
X204092500Y-28250020D03*
X214252500Y-28250020D03*
D36*
X212982500Y-30790020D03*
X206632500Y-33330020D03*
D28*
X209172500Y-28250020D03*
D12*
X223142500Y-28250020D03*
X233302500Y-28250020D03*
D36*
X232032500Y-30790020D03*
X225682500Y-33330020D03*
D28*
X228222500Y-28250020D03*
D12*
X266005000Y-28248750D03*
X276165000Y-28248750D03*
D36*
X274895000Y-30788750D03*
X268545000Y-33328750D03*
D28*
X271085000Y-28248750D03*
D12*
X37405000Y-47300020D03*
X47565000Y-47300020D03*
D36*
X46295000Y-49840020D03*
X39945000Y-52380020D03*
D28*
X42485000Y-47300020D03*
D12*
X56455000Y-47300020D03*
X66615000Y-47300020D03*
D36*
X65345000Y-49840020D03*
X58995000Y-52380020D03*
D28*
X61535000Y-47300020D03*
D12*
X75505000Y-47300020D03*
X85665000Y-47300020D03*
D36*
X84395000Y-49840020D03*
X78045000Y-52380020D03*
D28*
X80585000Y-47300020D03*
D12*
X94555000Y-47300020D03*
X104715000Y-47300020D03*
D36*
X103445000Y-49840020D03*
X97095000Y-52380020D03*
D28*
X99635000Y-47300020D03*
D12*
X113605000Y-47300020D03*
X123765000Y-47300020D03*
D36*
X122495000Y-49840020D03*
X116145000Y-52380020D03*
D28*
X118685000Y-47300020D03*
D12*
X132655000Y-47300020D03*
X142815000Y-47300020D03*
D36*
X141545000Y-49840020D03*
X135195000Y-52380020D03*
D28*
X137735000Y-47300020D03*
D12*
X151705000Y-47300020D03*
X161865000Y-47300020D03*
D36*
X160595000Y-49840020D03*
X154245000Y-52380020D03*
D28*
X156785000Y-47300020D03*
D12*
X42167500Y-9200020D03*
X52327500Y-9200020D03*
D36*
X51057500Y-11740020D03*
X44707500Y-14280020D03*
D28*
X47247500Y-9200020D03*
X66297500Y-9200020D03*
D36*
X63757500Y-14280020D03*
X70107500Y-11740020D03*
D12*
X71377500Y-9200020D03*
X61217500Y-9200020D03*
X99317500Y-9200020D03*
X109477500Y-9200020D03*
D36*
X108207500Y-11740020D03*
X101857500Y-14280020D03*
D28*
X104397500Y-9200020D03*
D12*
X118367500Y-9200020D03*
X128527500Y-9200020D03*
D36*
X127257500Y-11740020D03*
X120907500Y-14280020D03*
D28*
X123447500Y-9200020D03*
D12*
X137417500Y-9200020D03*
X147577500Y-9200020D03*
D36*
X146307500Y-11740020D03*
X139957500Y-14280020D03*
D28*
X142497500Y-9200020D03*
D12*
X156467500Y-9200020D03*
X166627500Y-9200020D03*
D36*
X165357500Y-11740020D03*
X159007500Y-14280020D03*
D28*
X161547500Y-9200020D03*
D12*
X213617500Y-9200020D03*
X223777500Y-9200020D03*
D36*
X222507500Y-11740020D03*
X216157500Y-14280020D03*
D28*
X218697500Y-9200020D03*
D12*
X232667500Y-9200020D03*
X242827500Y-9200020D03*
D36*
X241557500Y-11740020D03*
X235207500Y-14280020D03*
D28*
X237747500Y-9200020D03*
D12*
X261242500Y-9200020D03*
X271402500Y-9200020D03*
D36*
X270132500Y-11740020D03*
X263782500Y-14280020D03*
D28*
X266322500Y-9200020D03*
D12*
X8830000Y-28250020D03*
X18990000Y-28250020D03*
D36*
X17720000Y-30790020D03*
X11370000Y-33330020D03*
D28*
X13910000Y-28250020D03*
D12*
X32642500Y-28250020D03*
X42802500Y-28250020D03*
D36*
X41532500Y-30790020D03*
X35182500Y-33330020D03*
D28*
X37722500Y-28250020D03*
D12*
X51692500Y-28250020D03*
X61852500Y-28250020D03*
D36*
X60582500Y-30790020D03*
X54232500Y-33330020D03*
D28*
X56772500Y-28250020D03*
D12*
X70742500Y-28250020D03*
X80902500Y-28250020D03*
D36*
X79632500Y-30790020D03*
X73282500Y-33330020D03*
D28*
X75822500Y-28250020D03*
D12*
X254100020Y-66350020D03*
X264260020Y-66350020D03*
D36*
X262990020Y-68890020D03*
X256640020Y-71430020D03*
D28*
X259180020Y-66350020D03*
D12*
X6448750Y-85398750D03*
X16608750Y-85398750D03*
D36*
X15338750Y-87938750D03*
X8988750Y-90478750D03*
D28*
X11528750Y-85398750D03*
D12*
X54073750Y-85398750D03*
X64233750Y-85398750D03*
D36*
X62963750Y-87938750D03*
X56613750Y-90478750D03*
D28*
X59153750Y-85398750D03*
D12*
X125511250Y-85398750D03*
X135671250Y-85398750D03*
D36*
X134401250Y-87938750D03*
X128051250Y-90478750D03*
D28*
X130591250Y-85398750D03*
D12*
X196948750Y-85398750D03*
X207108750Y-85398750D03*
D36*
X205838750Y-87938750D03*
X199488750Y-90478750D03*
D28*
X202028750Y-85398750D03*
D12*
X220761250Y-85398750D03*
X230921250Y-85398750D03*
D36*
X229651250Y-87938750D03*
X223301250Y-90478750D03*
D28*
X225841250Y-85398750D03*
D12*
X244573750Y-85398750D03*
X254733750Y-85398750D03*
D36*
X253463750Y-87938750D03*
X247113750Y-90478750D03*
D28*
X249653750Y-85398750D03*
D12*
X268386250Y-85398750D03*
X278546250Y-85398750D03*
D36*
X277276250Y-87938750D03*
X270926250Y-90478750D03*
D28*
X273466250Y-85398750D03*
D12*
X170755000Y-47300020D03*
X180915000Y-47300020D03*
D36*
X179645000Y-49840020D03*
X173295000Y-52380020D03*
D28*
X175835000Y-47300020D03*
D12*
X189805000Y-47300020D03*
X199965000Y-47300020D03*
D36*
X198695000Y-49840020D03*
X192345000Y-52380020D03*
D28*
X194885000Y-47300020D03*
D12*
X227905000Y-47300020D03*
X238065000Y-47300020D03*
D36*
X236795000Y-49840020D03*
X230445000Y-52380020D03*
D28*
X232985000Y-47300020D03*
D12*
X258861250Y-47298750D03*
X269021250Y-47298750D03*
D36*
X267751250Y-49838750D03*
X261401250Y-52378750D03*
D28*
X263941250Y-47298750D03*
D12*
X15973750Y-66348750D03*
X26133750Y-66348750D03*
D36*
X24863750Y-68888750D03*
X18513750Y-71428750D03*
D28*
X21053750Y-66348750D03*
D12*
X46930000Y-66350020D03*
X57090000Y-66350020D03*
D36*
X55820000Y-68890020D03*
X49470000Y-71430020D03*
D28*
X52010000Y-66350020D03*
D12*
X65980000Y-66350020D03*
X76140000Y-66350020D03*
D36*
X74870000Y-68890020D03*
X68520000Y-71430020D03*
D28*
X71060000Y-66350020D03*
D12*
X104080000Y-66350020D03*
X114240000Y-66350020D03*
D36*
X112970000Y-68890020D03*
X106620000Y-71430020D03*
D28*
X109160000Y-66350020D03*
D12*
X123130000Y-66350020D03*
X133290000Y-66350020D03*
D36*
X132020000Y-68890020D03*
X125670000Y-71430020D03*
D28*
X128210000Y-66350020D03*
D12*
X142180000Y-66350020D03*
X152340000Y-66350020D03*
D36*
X151070000Y-68890020D03*
X144720000Y-71430020D03*
D28*
X147260000Y-66350020D03*
D12*
X161230000Y-66350020D03*
X171390000Y-66350020D03*
D36*
X170120000Y-68890020D03*
X163770000Y-71430020D03*
D28*
X166310000Y-66350020D03*
D12*
X180280000Y-66350020D03*
X190440000Y-66350020D03*
D36*
X189170000Y-68890020D03*
X182820000Y-71430020D03*
D28*
X185360000Y-66350020D03*
D12*
X199330000Y-66350020D03*
X209490000Y-66350020D03*
D36*
X208220000Y-68890020D03*
X201870000Y-71430020D03*
D28*
X204410000Y-66350020D03*
D12*
X218380000Y-66350020D03*
X228540000Y-66350020D03*
D36*
X227270000Y-68890020D03*
X220920000Y-71430020D03*
D28*
X223460000Y-66350020D03*
D12*
X30261250Y-85398750D03*
X40421250Y-85398750D03*
D36*
X39151250Y-87938750D03*
X32801250Y-90478750D03*
D28*
X35341250Y-85398750D03*
D12*
X85030000Y-66350020D03*
X95190000Y-66350020D03*
D36*
X93920000Y-68890020D03*
X87570000Y-71430020D03*
D28*
X90110000Y-66350020D03*
D12*
X80267500Y-9200020D03*
X90427500Y-9200020D03*
D36*
X89157500Y-11740020D03*
X82807500Y-14280020D03*
D28*
X85347500Y-9200020D03*
D12*
X175517500Y-9200020D03*
X185677500Y-9200020D03*
D36*
X184407500Y-11740020D03*
X178057500Y-14280020D03*
D28*
X180597500Y-9200020D03*
D12*
X242192500Y-28250020D03*
X252352500Y-28250020D03*
D36*
X251082500Y-30790020D03*
X244732500Y-33330020D03*
D28*
X247272500Y-28250020D03*
D12*
X127892500Y-28250020D03*
X138052500Y-28250020D03*
D36*
X136782500Y-30790020D03*
X130432500Y-33330020D03*
D28*
X132972500Y-28250020D03*
D12*
X208855000Y-47300020D03*
X219015000Y-47300020D03*
D36*
X217745000Y-49840020D03*
X211395000Y-52380020D03*
D28*
X213935000Y-47300020D03*
D23*
X10417500Y-4118750D03*
X7877500Y-4118750D03*
D28*
X273466250Y-47298750D03*
D36*
X270926250Y-52378750D03*
X277276250Y-49838750D03*
D12*
X278546250Y-47298750D03*
X268386250Y-47298750D03*
X218380000Y-85398750D03*
X228540000Y-85398750D03*
D36*
X227270000Y-87938750D03*
X220920000Y-90478750D03*
D28*
X223460000Y-85398750D03*
D12*
X27880000Y-66350020D03*
X38040000Y-66350020D03*
D36*
X36770000Y-68890020D03*
X30420000Y-71430020D03*
D28*
X32960000Y-66350020D03*
D12*
X270767500Y-66348750D03*
X280927500Y-66348750D03*
D36*
X279657500Y-68888750D03*
X273307500Y-71428750D03*
D28*
X275847500Y-66348750D03*
D12*
X8830000Y-85367000D03*
X18990000Y-85367000D03*
D36*
X17720000Y-87907000D03*
X11370000Y-90447000D03*
D28*
X13910000Y-85367000D03*
D12*
X37405000Y-85367000D03*
X47565000Y-85367000D03*
D36*
X46295000Y-87907000D03*
X39945000Y-90447000D03*
D28*
X42485000Y-85367000D03*
D12*
X32706000Y-85367000D03*
X42866000Y-85367000D03*
D36*
X41596000Y-87907000D03*
X35246000Y-90447000D03*
D28*
X37786000Y-85367000D03*
D12*
X199330000Y-85398750D03*
X209490000Y-85398750D03*
D36*
X208220000Y-87938750D03*
X201870000Y-90478750D03*
D28*
X204410000Y-85398750D03*
D12*
X223142500Y-85398750D03*
X233302500Y-85398750D03*
D36*
X232032500Y-87938750D03*
X225682500Y-90478750D03*
D28*
X228222500Y-85398750D03*
D12*
X56455000Y-85367000D03*
X66615000Y-85367000D03*
D36*
X65345000Y-87907000D03*
X58995000Y-90447000D03*
D28*
X61535000Y-85367000D03*
D12*
X242192500Y-85398750D03*
X252352500Y-85398750D03*
D36*
X251082500Y-87938750D03*
X244732500Y-90478750D03*
D28*
X247272500Y-85398750D03*
D12*
X266005000Y-85398750D03*
X276165000Y-85398750D03*
D36*
X274895000Y-87938750D03*
X268545000Y-90478750D03*
D28*
X271085000Y-85398750D03*
D12*
X137417500Y-85400020D03*
X147577500Y-85400020D03*
D36*
X146307500Y-87940020D03*
X139957500Y-90480020D03*
D28*
X142497500Y-85400020D03*
D12*
X118367500Y-85398750D03*
X128527500Y-85398750D03*
D36*
X127257500Y-87938750D03*
X120907500Y-90478750D03*
D28*
X123447500Y-85398750D03*
D12*
X6450020Y-66350020D03*
X16610020Y-66350020D03*
D36*
X15340020Y-68890020D03*
X8990020Y-71430020D03*
D28*
X11530020Y-66350020D03*
D12*
X263623750Y-66348750D03*
X273783750Y-66348750D03*
D36*
X272513750Y-68888750D03*
X266163750Y-71428750D03*
D28*
X268703750Y-66348750D03*
D12*
X6450020Y-47300020D03*
X16610020Y-47300020D03*
D36*
X15340020Y-49840020D03*
X8990020Y-52380020D03*
D28*
X11530020Y-47300020D03*
D12*
X251717500Y-9198750D03*
X261877500Y-9198750D03*
D36*
X260607500Y-11738750D03*
X254257500Y-14278750D03*
D28*
X256797500Y-9198750D03*
D12*
X270767500Y-9198750D03*
X280927500Y-9198750D03*
D36*
X279657500Y-11738750D03*
X273307500Y-14278750D03*
D28*
X275847500Y-9198750D03*
D12*
X23117500Y-9198750D03*
X33277500Y-9198750D03*
D36*
X32007500Y-11738750D03*
X25657500Y-14278750D03*
D28*
X28197500Y-9198750D03*
D12*
X4067500Y-9198750D03*
X14227500Y-9198750D03*
D36*
X12957500Y-11738750D03*
X6607500Y-14278750D03*
D28*
X9147500Y-9198750D03*
D12*
X273466250Y-42853750D03*
X273466250Y-32693750D03*
D36*
X276006250Y-33963750D03*
X278546250Y-40313750D03*
D28*
X273466250Y-37773750D03*
D12*
X244573750Y-66348750D03*
X254733750Y-66348750D03*
D36*
X253463750Y-68888750D03*
X247113750Y-71428750D03*
D28*
X249653750Y-66348750D03*
D12*
X237430000Y-66348750D03*
X247590000Y-66348750D03*
D36*
X246320000Y-68831600D03*
X239970000Y-71428750D03*
D28*
X242510000Y-66348750D03*
D12*
X246955000Y-47300020D03*
X257115000Y-47300020D03*
D36*
X255845000Y-49840020D03*
X249495000Y-52380020D03*
D28*
X252035000Y-47300020D03*
D23*
X12798750Y-80318750D03*
X10258750Y-80318750D03*
X36611250Y-80318750D03*
X34071250Y-80318750D03*
X38992500Y-80318750D03*
X43755000Y-80318750D03*
X41215000Y-80318750D03*
X60423750Y-80318750D03*
X57883750Y-80318750D03*
X62805000Y-80318750D03*
X200758750Y-80318750D03*
X203298750Y-80318750D03*
X205680000Y-80318750D03*
X229492500Y-80318750D03*
X224730000Y-80318750D03*
X222190000Y-80318750D03*
X227111250Y-80318750D03*
X246002500Y-80318750D03*
X248542500Y-80318750D03*
X250923750Y-80318750D03*
X274736250Y-80318750D03*
X272355000Y-80318750D03*
X269815000Y-80318750D03*
D31*
X4512000Y-19692000D03*
X5462000Y-17692000D03*
X3562000Y-17692000D03*
X16450000Y-57792000D03*
X17400000Y-55792000D03*
X15500000Y-55792000D03*
X28134000Y-23248000D03*
X29084000Y-21248000D03*
X27184000Y-21248000D03*
X41596000Y-57792000D03*
X42546000Y-55792000D03*
X40646000Y-55792000D03*
X47184000Y-23248000D03*
X48134000Y-21248000D03*
X46234000Y-21248000D03*
X52010000Y-57792000D03*
X52960000Y-55792000D03*
X51060000Y-55792000D03*
X66234000Y-23248000D03*
X67184000Y-21248000D03*
X65284000Y-21248000D03*
X71060000Y-57792000D03*
X72010000Y-55792000D03*
X70110000Y-55792000D03*
X93285000Y-19692000D03*
X94235000Y-17692000D03*
X92335000Y-17692000D03*
X103064000Y-57792000D03*
X104014000Y-55792000D03*
X102114000Y-55792000D03*
X104588000Y-19692000D03*
X105538000Y-17692000D03*
X103638000Y-17692000D03*
X109160000Y-57792000D03*
X110110000Y-55792000D03*
X108210000Y-55792000D03*
X123384000Y-19692000D03*
X124334000Y-17692000D03*
X122434000Y-17692000D03*
X134052000Y-57792000D03*
X135002000Y-55792000D03*
X133102000Y-55792000D03*
X142434000Y-19692000D03*
X143384000Y-17692000D03*
X141484000Y-17692000D03*
X147260000Y-57792000D03*
X148210000Y-55792000D03*
X146310000Y-55792000D03*
X161484000Y-19692000D03*
X162434000Y-17692000D03*
X160534000Y-17692000D03*
X166310000Y-57538000D03*
X167260000Y-55538000D03*
X165360000Y-55538000D03*
X179584000Y-17692000D03*
X181484000Y-17692000D03*
X180534000Y-19692000D03*
X185360000Y-57792000D03*
X186310000Y-55792000D03*
X184410000Y-55792000D03*
X198634000Y-17692000D03*
X200534000Y-17692000D03*
X199584000Y-19692000D03*
X204410000Y-57792000D03*
X205360000Y-55792000D03*
X203460000Y-55792000D03*
X217684000Y-17692000D03*
X219584000Y-17692000D03*
X218634000Y-19692000D03*
X223460000Y-57792000D03*
X224410000Y-55792000D03*
X222510000Y-55792000D03*
X237684000Y-19692000D03*
X238634000Y-17692000D03*
X236734000Y-17692000D03*
X241560000Y-55792000D03*
X243460000Y-55792000D03*
X242510000Y-57792000D03*
X257496000Y-57792000D03*
X258446000Y-55792000D03*
X256546000Y-55792000D03*
D19*
G36*
X3129504Y-77126204D02*
X3153773Y-77129804D01*
X3177571Y-77135765D01*
X3200671Y-77144030D01*
X3222849Y-77154520D01*
X3243893Y-77167133D01*
X3263598Y-77181747D01*
X3281777Y-77198223D01*
X3298253Y-77216402D01*
X3312867Y-77236107D01*
X3325480Y-77257151D01*
X3335970Y-77279329D01*
X3344235Y-77302429D01*
X3350196Y-77326227D01*
X3353796Y-77350496D01*
X3355000Y-77375000D01*
X3355000Y-78125000D01*
X3353796Y-78149504D01*
X3350196Y-78173773D01*
X3344235Y-78197571D01*
X3335970Y-78220671D01*
X3325480Y-78242849D01*
X3312867Y-78263893D01*
X3298253Y-78283598D01*
X3281777Y-78301777D01*
X3263598Y-78318253D01*
X3243893Y-78332867D01*
X3222849Y-78345480D01*
X3200671Y-78355970D01*
X3177571Y-78364235D01*
X3153773Y-78370196D01*
X3129504Y-78373796D01*
X3105000Y-78375000D01*
X1855000Y-78375000D01*
X1830496Y-78373796D01*
X1806227Y-78370196D01*
X1782429Y-78364235D01*
X1759329Y-78355970D01*
X1737151Y-78345480D01*
X1716107Y-78332867D01*
X1696402Y-78318253D01*
X1678223Y-78301777D01*
X1661747Y-78283598D01*
X1647133Y-78263893D01*
X1634520Y-78242849D01*
X1624030Y-78220671D01*
X1615765Y-78197571D01*
X1609804Y-78173773D01*
X1606204Y-78149504D01*
X1605000Y-78125000D01*
X1605000Y-77375000D01*
X1606204Y-77350496D01*
X1609804Y-77326227D01*
X1615765Y-77302429D01*
X1624030Y-77279329D01*
X1634520Y-77257151D01*
X1647133Y-77236107D01*
X1661747Y-77216402D01*
X1678223Y-77198223D01*
X1696402Y-77181747D01*
X1716107Y-77167133D01*
X1737151Y-77154520D01*
X1759329Y-77144030D01*
X1782429Y-77135765D01*
X1806227Y-77129804D01*
X1830496Y-77126204D01*
X1855000Y-77125000D01*
X3105000Y-77125000D01*
X3129504Y-77126204D01*
X3129504Y-77126204D01*
G37*
D37*
X2480000Y-77750000D03*
D19*
G36*
X3129504Y-74326204D02*
X3153773Y-74329804D01*
X3177571Y-74335765D01*
X3200671Y-74344030D01*
X3222849Y-74354520D01*
X3243893Y-74367133D01*
X3263598Y-74381747D01*
X3281777Y-74398223D01*
X3298253Y-74416402D01*
X3312867Y-74436107D01*
X3325480Y-74457151D01*
X3335970Y-74479329D01*
X3344235Y-74502429D01*
X3350196Y-74526227D01*
X3353796Y-74550496D01*
X3355000Y-74575000D01*
X3355000Y-75325000D01*
X3353796Y-75349504D01*
X3350196Y-75373773D01*
X3344235Y-75397571D01*
X3335970Y-75420671D01*
X3325480Y-75442849D01*
X3312867Y-75463893D01*
X3298253Y-75483598D01*
X3281777Y-75501777D01*
X3263598Y-75518253D01*
X3243893Y-75532867D01*
X3222849Y-75545480D01*
X3200671Y-75555970D01*
X3177571Y-75564235D01*
X3153773Y-75570196D01*
X3129504Y-75573796D01*
X3105000Y-75575000D01*
X1855000Y-75575000D01*
X1830496Y-75573796D01*
X1806227Y-75570196D01*
X1782429Y-75564235D01*
X1759329Y-75555970D01*
X1737151Y-75545480D01*
X1716107Y-75532867D01*
X1696402Y-75518253D01*
X1678223Y-75501777D01*
X1661747Y-75483598D01*
X1647133Y-75463893D01*
X1634520Y-75442849D01*
X1624030Y-75420671D01*
X1615765Y-75397571D01*
X1609804Y-75373773D01*
X1606204Y-75349504D01*
X1605000Y-75325000D01*
X1605000Y-74575000D01*
X1606204Y-74550496D01*
X1609804Y-74526227D01*
X1615765Y-74502429D01*
X1624030Y-74479329D01*
X1634520Y-74457151D01*
X1647133Y-74436107D01*
X1661747Y-74416402D01*
X1678223Y-74398223D01*
X1696402Y-74381747D01*
X1716107Y-74367133D01*
X1737151Y-74354520D01*
X1759329Y-74344030D01*
X1782429Y-74335765D01*
X1806227Y-74329804D01*
X1830496Y-74326204D01*
X1855000Y-74325000D01*
X3105000Y-74325000D01*
X3129504Y-74326204D01*
X3129504Y-74326204D01*
G37*
D37*
X2480000Y-74950000D03*
D19*
G36*
X85295691Y-31426053D02*
X85316926Y-31429203D01*
X85337750Y-31434419D01*
X85357962Y-31441651D01*
X85377368Y-31450830D01*
X85395781Y-31461866D01*
X85413024Y-31474654D01*
X85428930Y-31489070D01*
X85443346Y-31504976D01*
X85456134Y-31522219D01*
X85467170Y-31540632D01*
X85476349Y-31560038D01*
X85483581Y-31580250D01*
X85488797Y-31601074D01*
X85491947Y-31622309D01*
X85493000Y-31643750D01*
X85493000Y-32156250D01*
X85491947Y-32177691D01*
X85488797Y-32198926D01*
X85483581Y-32219750D01*
X85476349Y-32239962D01*
X85467170Y-32259368D01*
X85456134Y-32277781D01*
X85443346Y-32295024D01*
X85428930Y-32310930D01*
X85413024Y-32325346D01*
X85395781Y-32338134D01*
X85377368Y-32349170D01*
X85357962Y-32358349D01*
X85337750Y-32365581D01*
X85316926Y-32370797D01*
X85295691Y-32373947D01*
X85274250Y-32375000D01*
X84836750Y-32375000D01*
X84815309Y-32373947D01*
X84794074Y-32370797D01*
X84773250Y-32365581D01*
X84753038Y-32358349D01*
X84733632Y-32349170D01*
X84715219Y-32338134D01*
X84697976Y-32325346D01*
X84682070Y-32310930D01*
X84667654Y-32295024D01*
X84654866Y-32277781D01*
X84643830Y-32259368D01*
X84634651Y-32239962D01*
X84627419Y-32219750D01*
X84622203Y-32198926D01*
X84619053Y-32177691D01*
X84618000Y-32156250D01*
X84618000Y-31643750D01*
X84619053Y-31622309D01*
X84622203Y-31601074D01*
X84627419Y-31580250D01*
X84634651Y-31560038D01*
X84643830Y-31540632D01*
X84654866Y-31522219D01*
X84667654Y-31504976D01*
X84682070Y-31489070D01*
X84697976Y-31474654D01*
X84715219Y-31461866D01*
X84733632Y-31450830D01*
X84753038Y-31441651D01*
X84773250Y-31434419D01*
X84794074Y-31429203D01*
X84815309Y-31426053D01*
X84836750Y-31425000D01*
X85274250Y-31425000D01*
X85295691Y-31426053D01*
X85295691Y-31426053D01*
G37*
D20*
X85055500Y-31900000D03*
D19*
G36*
X83720691Y-31426053D02*
X83741926Y-31429203D01*
X83762750Y-31434419D01*
X83782962Y-31441651D01*
X83802368Y-31450830D01*
X83820781Y-31461866D01*
X83838024Y-31474654D01*
X83853930Y-31489070D01*
X83868346Y-31504976D01*
X83881134Y-31522219D01*
X83892170Y-31540632D01*
X83901349Y-31560038D01*
X83908581Y-31580250D01*
X83913797Y-31601074D01*
X83916947Y-31622309D01*
X83918000Y-31643750D01*
X83918000Y-32156250D01*
X83916947Y-32177691D01*
X83913797Y-32198926D01*
X83908581Y-32219750D01*
X83901349Y-32239962D01*
X83892170Y-32259368D01*
X83881134Y-32277781D01*
X83868346Y-32295024D01*
X83853930Y-32310930D01*
X83838024Y-32325346D01*
X83820781Y-32338134D01*
X83802368Y-32349170D01*
X83782962Y-32358349D01*
X83762750Y-32365581D01*
X83741926Y-32370797D01*
X83720691Y-32373947D01*
X83699250Y-32375000D01*
X83261750Y-32375000D01*
X83240309Y-32373947D01*
X83219074Y-32370797D01*
X83198250Y-32365581D01*
X83178038Y-32358349D01*
X83158632Y-32349170D01*
X83140219Y-32338134D01*
X83122976Y-32325346D01*
X83107070Y-32310930D01*
X83092654Y-32295024D01*
X83079866Y-32277781D01*
X83068830Y-32259368D01*
X83059651Y-32239962D01*
X83052419Y-32219750D01*
X83047203Y-32198926D01*
X83044053Y-32177691D01*
X83043000Y-32156250D01*
X83043000Y-31643750D01*
X83044053Y-31622309D01*
X83047203Y-31601074D01*
X83052419Y-31580250D01*
X83059651Y-31560038D01*
X83068830Y-31540632D01*
X83079866Y-31522219D01*
X83092654Y-31504976D01*
X83107070Y-31489070D01*
X83122976Y-31474654D01*
X83140219Y-31461866D01*
X83158632Y-31450830D01*
X83178038Y-31441651D01*
X83198250Y-31434419D01*
X83219074Y-31429203D01*
X83240309Y-31426053D01*
X83261750Y-31425000D01*
X83699250Y-31425000D01*
X83720691Y-31426053D01*
X83720691Y-31426053D01*
G37*
D20*
X83480500Y-31900000D03*
M02*
